{"glyphs":{"0":{"ha":625,"x_min":192,"x_max":703,"o":"m 389 29 q 426 40 403 29 q 474 67 450 51 q 513 97 499 83 q 556 145 538 122 q 574 174 574 168 q 577 178 574 178 q 581 179 581 179 q 592 192 585 179 q 607 219 600 204 q 614 236 614 233 q 612 246 608 242 q 621 256 615 250 q 638 294 626 267 q 656 332 650 322 q 656 345 656 338 q 661 361 657 353 q 674 400 667 374 q 688 457 681 426 q 699 515 694 488 q 703 554 703 542 q 699 588 703 569 q 689 618 694 607 l 675 658 l 689 658 q 701 658 700 653 q 703 672 703 663 q 683 702 703 686 q 636 729 664 718 q 581 740 608 740 q 553 740 571 740 q 519 735 535 739 q 449 708 478 725 q 383 658 419 690 q 265 515 317 601 q 199 339 214 428 q 200 247 192 294 q 229 157 208 199 q 281 86 250 115 q 317 60 294 74 q 359 38 339 47 q 389 29 379 29 m 385 117 q 349 113 358 111 q 324 129 339 115 q 308 148 319 135 q 290 171 296 161 q 279 197 283 185 q 273 225 275 208 q 271 265 271 242 q 271 310 271 286 q 271 340 271 335 q 283 373 274 351 q 301 417 292 394 q 318 449 311 439 q 326 468 322 460 q 331 482 331 476 q 348 513 331 488 q 390 564 365 539 q 446 617 421 601 q 471 614 471 633 q 483 603 471 607 q 504 604 494 599 q 542 622 515 611 q 578 632 568 632 q 597 628 588 632 q 611 619 606 624 q 622 597 621 608 q 624 549 624 585 q 617 504 618 531 q 617 463 617 478 q 613 425 617 447 q 597 388 608 403 q 569 309 578 332 q 544 265 560 286 q 496 191 529 229 q 438 136 463 153 q 414 122 428 126 q 385 117 400 117 "},"1":{"ha":625,"x_min":225,"x_max":694,"o":"m 446 -14 q 460 15 453 -8 q 478 69 467 39 q 490 123 482 90 q 509 190 499 156 q 529 246 519 224 q 547 305 539 283 q 563 350 554 326 q 583 417 572 374 q 605 487 592 446 q 633 570 618 528 q 660 645 647 613 q 678 690 672 678 q 686 735 694 725 q 676 751 685 743 q 659 765 668 760 q 646 771 650 771 q 605 753 640 772 q 518 701 569 733 q 428 636 469 665 q 379 599 386 607 q 356 581 367 590 q 340 571 344 571 q 317 556 333 567 q 283 532 301 544 q 251 510 265 519 q 233 499 236 500 q 231 468 225 485 q 256 436 238 451 q 276 433 268 429 q 322 465 285 436 q 380 506 347 481 q 436 544 413 531 q 496 585 465 567 q 547 616 526 604 q 567 628 567 628 q 558 595 567 628 q 538 522 550 563 q 510 433 524 479 q 490 368 496 388 q 460 274 474 313 q 440 232 447 235 q 435 213 440 232 q 422 167 429 194 q 410 111 415 139 q 397 49 401 68 q 394 22 393 29 q 401 8 396 14 q 419 -6 411 0 q 435 -15 428 -12 q 446 -14 442 -17 "},"2":{"ha":625,"x_min":165,"x_max":719,"o":"m 221 32 q 252 35 228 31 q 307 47 276 39 q 364 64 338 56 q 403 76 390 72 q 463 92 438 88 q 513 94 488 97 q 547 96 529 96 q 571 99 565 96 q 631 103 594 103 q 703 99 686 93 q 697 122 719 104 q 685 138 689 132 q 682 144 682 144 q 673 153 682 150 q 649 160 664 156 q 590 172 622 168 q 554 167 557 176 q 552 165 554 167 q 547 169 550 163 q 516 172 543 174 q 453 166 489 171 q 383 154 417 161 q 328 140 349 147 q 310 135 315 136 q 306 140 304 135 q 320 162 303 140 q 363 212 338 183 q 412 265 389 240 q 444 293 435 289 q 476 325 451 300 q 530 383 500 350 q 583 442 560 415 q 614 476 607 468 q 656 565 649 528 q 642 635 664 601 q 617 674 633 654 q 585 706 601 693 q 557 718 568 719 q 544 722 557 718 q 517 725 532 725 q 431 724 478 738 q 328 674 385 710 l 285 650 l 299 621 q 314 603 307 613 q 326 590 321 593 q 353 596 338 589 q 389 607 369 603 q 477 644 438 642 q 550 635 517 646 q 585 622 581 625 q 585 603 589 618 q 572 573 582 593 q 551 536 563 553 q 524 502 538 522 q 508 471 511 482 q 488 453 500 463 q 469 439 476 443 q 458 430 463 435 q 453 425 453 425 q 429 391 451 415 q 378 335 407 367 q 321 278 350 306 q 281 236 292 250 q 262 216 274 228 q 243 193 250 204 q 231 185 238 189 q 224 176 225 182 q 214 159 224 174 q 194 132 204 144 q 181 122 185 119 q 170 104 175 122 q 169 79 165 86 q 184 60 174 71 q 205 42 194 50 q 221 32 215 35 "},"3":{"ha":625,"x_min":199,"x_max":701,"o":"m 338 22 q 433 40 382 25 q 524 76 485 54 q 597 141 572 106 q 626 217 622 176 q 610 300 629 257 q 563 350 596 319 q 489 394 529 381 q 474 407 482 401 q 460 416 465 413 q 454 419 454 419 q 468 431 454 422 q 499 451 482 440 q 525 469 515 463 q 592 508 569 493 q 649 546 614 524 q 688 584 676 571 q 700 610 699 597 q 697 642 701 622 q 654 713 689 686 q 556 746 619 739 q 503 747 539 747 q 431 743 467 746 q 376 735 396 740 q 342 717 361 728 q 308 698 322 707 q 290 683 293 689 q 293 663 288 676 q 308 638 299 650 q 324 624 317 626 q 342 628 328 624 q 372 638 357 632 q 388 647 386 644 q 410 657 389 651 q 456 667 432 663 q 486 668 479 671 q 491 668 490 668 q 492 668 492 668 q 524 672 492 674 q 590 668 556 671 q 626 651 626 661 q 601 608 626 642 q 569 584 589 597 q 515 551 549 571 q 422 499 481 531 q 328 447 358 464 q 288 422 297 429 q 281 408 279 415 q 290 391 283 403 q 306 369 297 379 q 331 358 324 360 q 351 358 339 357 q 402 353 371 360 q 465 336 433 347 q 515 313 497 325 q 559 250 556 286 q 525 178 563 214 q 451 131 499 151 q 350 101 404 110 q 249 103 296 93 q 210 105 218 107 q 200 81 201 103 q 218 51 199 64 q 270 30 238 38 q 338 22 303 22 "},"4":{"ha":625,"x_min":253,"x_max":739,"o":"m 440 10 q 462 -9 446 -11 q 492 10 478 -7 q 503 53 506 28 q 497 84 496 67 q 507 133 497 101 q 536 219 517 164 q 562 287 544 244 q 600 378 579 329 q 642 472 621 426 q 681 551 664 518 q 706 600 697 583 q 720 628 715 617 q 728 657 725 640 q 736 685 739 676 q 724 704 733 694 q 708 720 718 715 q 693 725 699 725 q 678 702 688 725 q 635 601 669 679 q 602 540 618 575 q 575 483 586 504 q 560 450 569 468 q 551 426 551 432 q 542 417 551 421 q 522 413 533 413 q 490 402 513 407 q 440 392 467 397 q 365 376 392 378 q 329 378 338 374 q 326 396 324 383 q 343 456 328 408 q 372 504 357 481 q 401 551 386 528 q 433 599 417 575 q 469 650 450 624 q 500 688 486 669 q 514 711 514 706 q 517 717 514 717 q 521 718 521 718 q 523 729 525 718 q 517 754 521 740 q 508 775 513 768 q 492 777 504 781 q 468 768 479 774 q 433 725 457 758 q 381 651 408 692 q 333 577 354 611 q 306 531 311 543 q 302 520 306 525 q 299 511 299 515 q 292 494 299 508 q 277 463 286 481 q 260 426 268 444 q 253 403 253 419 q 258 369 253 386 q 269 344 263 351 q 330 300 292 307 q 438 310 368 293 q 481 322 463 321 q 499 324 499 324 q 492 301 499 324 q 475 253 486 279 q 460 185 469 228 q 443 107 450 143 q 431 39 431 56 q 440 10 431 22 "},"5":{"ha":625,"x_min":179,"x_max":681,"o":"m 232 33 q 308 14 263 13 q 403 34 353 15 q 499 87 453 53 q 576 165 544 121 q 600 211 596 194 q 608 258 604 228 q 606 351 615 306 q 574 434 597 397 q 511 493 550 471 q 458 519 476 514 q 406 529 440 524 q 376 538 379 532 q 374 554 372 544 q 375 564 375 560 q 375 568 375 568 q 383 566 381 563 q 392 578 385 569 q 396 588 392 583 q 400 593 400 593 q 408 596 406 592 q 415 604 410 600 q 455 644 422 619 q 517 679 488 668 q 588 693 554 690 q 642 683 622 696 q 668 681 658 675 q 679 701 678 686 q 669 736 681 717 q 635 763 653 758 q 578 769 618 768 q 467 749 521 772 q 372 681 414 726 q 338 640 356 664 q 303 588 319 615 q 276 540 288 561 q 263 508 265 518 q 274 490 263 501 q 298 469 285 479 q 318 458 311 460 q 335 457 318 458 q 375 457 353 456 q 422 458 396 460 q 457 453 447 456 q 506 422 481 443 q 538 379 531 400 q 544 358 542 368 q 546 349 546 349 q 550 324 553 349 q 539 267 547 299 q 521 215 531 235 q 462 158 499 186 q 383 113 425 131 q 301 93 340 94 q 252 99 271 92 q 231 117 233 106 q 219 133 229 128 q 197 135 208 138 q 181 122 186 133 q 181 103 179 117 q 187 81 183 90 q 194 72 190 71 q 207 64 201 72 q 232 33 207 51 "},"6":{"ha":625,"x_min":163,"x_max":660,"o":"m 351 43 q 402 61 374 49 q 458 89 431 74 q 505 117 486 104 q 525 139 524 131 q 530 142 525 139 q 540 149 535 146 q 570 176 553 157 q 606 220 588 196 q 635 263 624 244 q 654 297 650 281 q 658 336 658 314 q 649 398 660 372 q 611 450 639 424 q 583 476 594 471 q 542 488 572 482 q 506 494 528 490 q 472 493 485 499 q 409 481 440 490 q 378 467 378 472 q 360 457 376 461 q 340 461 344 453 q 354 478 340 461 q 386 514 368 496 q 399 531 389 519 q 421 553 408 542 q 473 599 442 575 q 532 638 504 622 q 568 650 560 653 q 575 648 568 650 q 581 640 582 646 q 594 636 586 635 q 621 651 601 638 q 644 678 640 669 q 644 697 647 686 q 637 712 640 704 q 628 721 633 719 q 613 728 617 724 q 608 732 608 732 q 567 733 611 749 q 519 719 544 731 q 467 693 493 708 q 422 661 442 678 q 390 632 401 644 q 377 618 383 622 q 364 610 371 614 q 352 594 364 610 q 326 560 340 578 q 297 524 311 543 q 276 494 283 504 q 255 456 269 486 q 229 397 240 426 q 196 334 204 363 q 176 256 188 306 q 166 200 169 218 q 164 169 163 182 q 172 136 165 157 q 186 94 176 108 q 215 65 196 81 q 275 34 244 38 q 351 43 306 31 m 258 111 q 240 118 249 114 q 229 139 232 122 q 224 167 222 150 q 235 231 225 183 q 261 325 250 300 q 289 351 272 350 q 310 360 299 354 q 326 371 321 367 q 351 380 339 374 q 374 389 364 386 q 469 410 438 404 q 516 418 500 417 q 549 415 532 419 q 574 410 564 413 q 588 407 583 407 q 591 391 586 401 q 594 369 596 381 q 561 274 601 332 q 447 169 521 217 q 401 141 421 154 q 382 128 382 128 q 367 126 376 129 q 346 121 357 124 q 297 106 311 107 q 258 111 283 106 "},"7":{"ha":625,"x_min":251,"x_max":694,"o":"m 307 -25 q 340 -19 322 -28 q 369 3 358 -10 q 374 26 381 17 q 366 42 371 38 q 350 44 361 47 q 346 60 346 46 q 350 94 346 75 q 360 122 354 113 q 369 139 363 132 q 376 153 375 146 q 401 197 385 167 q 433 258 417 226 q 458 303 449 289 q 471 319 465 311 q 482 329 476 326 q 500 325 486 329 q 528 313 514 321 q 547 297 543 306 q 566 290 551 292 q 588 299 581 289 q 594 331 596 303 q 574 363 589 350 q 535 386 558 376 q 517 403 517 394 q 536 429 517 411 q 552 453 540 436 q 578 492 564 471 q 601 528 592 513 q 613 544 611 543 q 619 556 614 549 q 625 568 624 563 q 639 581 632 576 q 647 592 646 586 q 651 599 647 592 q 661 611 654 606 q 676 631 667 615 q 690 661 686 646 q 691 693 694 682 q 674 728 688 704 q 663 751 665 742 q 654 761 660 760 q 649 759 653 756 q 646 763 646 763 q 619 778 640 774 q 568 781 597 782 q 507 774 539 779 q 382 738 436 756 q 325 704 328 719 q 324 684 324 694 q 330 666 325 674 q 343 657 335 658 q 378 653 358 649 q 450 681 399 658 q 530 708 503 700 q 579 718 557 717 q 612 689 619 721 q 538 563 604 657 q 496 495 519 528 q 461 443 472 463 q 435 412 442 418 q 408 408 428 406 q 390 410 400 410 q 372 410 379 410 q 347 410 357 410 q 318 410 338 410 q 305 413 311 411 q 294 413 299 414 q 294 403 293 408 q 290 396 296 399 q 281 381 278 394 q 307 357 285 368 q 328 348 311 351 q 357 342 344 344 q 383 333 382 342 q 354 275 385 325 q 279 120 307 186 q 257 28 251 54 q 278 -7 265 8 q 307 -25 290 -22 "},"8":{"ha":625,"x_min":171,"x_max":736,"o":"m 244 -44 q 275 -48 254 -49 q 320 -41 296 -47 q 363 -22 344 -35 q 406 -8 393 -3 q 422 -6 413 -10 q 433 7 431 -3 q 447 15 440 11 q 453 19 453 19 q 501 56 471 18 q 558 154 532 94 q 563 238 579 183 q 515 353 547 293 q 494 397 476 400 q 507 403 503 403 q 511 403 511 403 q 536 407 517 400 q 574 424 556 414 q 593 436 593 433 q 599 441 593 442 q 610 436 604 440 q 622 443 615 436 q 635 460 628 450 q 655 471 646 463 q 671 485 664 479 q 719 529 685 490 q 732 562 728 542 q 735 603 736 582 q 726 639 735 624 q 720 651 725 646 q 715 660 715 656 q 697 683 714 668 q 659 713 681 697 q 621 735 638 728 q 558 754 597 746 q 483 769 519 763 q 432 778 447 776 q 363 747 390 772 q 314 671 336 721 q 294 592 294 632 q 314 532 293 551 q 322 517 318 522 q 325 513 325 513 q 326 505 319 513 q 339 482 333 497 q 367 431 367 444 q 353 399 368 418 q 319 353 342 385 q 270 285 296 322 q 223 210 244 247 q 192 144 201 172 q 178 108 182 131 q 175 69 175 86 q 175 28 171 40 q 189 -8 179 15 q 206 -24 197 -15 q 225 -37 215 -32 q 244 -44 235 -43 m 267 26 q 256 73 249 29 q 294 169 264 117 q 314 209 306 189 q 322 233 322 229 q 335 246 326 238 q 353 264 343 254 q 367 288 358 274 q 392 321 376 301 q 409 344 399 336 q 419 351 419 351 q 433 342 426 347 q 447 324 439 336 q 464 293 454 313 q 482 257 474 274 q 480 174 499 214 q 408 90 461 133 q 359 60 388 76 q 306 35 331 44 q 267 26 281 25 m 482 485 q 431 471 447 463 q 411 486 414 479 q 400 499 400 486 q 396 508 400 499 q 379 522 392 517 q 368 567 368 546 q 376 614 368 588 q 451 690 396 679 q 593 671 507 701 q 635 651 622 660 q 653 634 649 643 q 656 611 657 625 q 657 581 658 589 q 647 557 656 572 q 595 515 625 533 q 563 503 565 497 q 533 515 554 518 q 482 485 511 511 "},"9":{"ha":625,"x_min":289,"x_max":718,"o":"m 435 -37 q 450 -30 440 -37 q 471 -10 460 -22 q 491 16 482 3 q 504 39 500 29 q 511 61 511 54 q 507 74 511 68 q 492 78 501 74 q 478 82 483 82 q 473 131 468 83 q 497 236 478 178 q 549 366 519 300 q 609 483 579 432 q 661 554 639 535 q 692 597 679 574 q 714 667 704 621 q 707 708 718 683 q 677 756 696 733 q 638 788 658 779 q 590 796 621 794 q 538 793 560 797 q 463 764 501 786 q 390 708 425 742 q 326 631 356 674 q 301 583 308 600 q 292 544 293 565 q 310 469 289 504 q 366 415 331 433 q 444 404 401 397 q 480 396 478 407 q 463 335 482 385 q 433 244 449 294 q 407 147 418 193 q 393 74 396 101 q 392 47 393 64 q 390 26 390 31 q 392 8 389 17 q 394 -1 394 -1 q 400 -8 401 -1 q 406 -18 400 -11 q 419 -31 411 -25 q 435 -37 428 -36 m 372 492 q 371 547 358 507 q 419 625 383 586 q 436 657 443 644 q 439 663 436 663 q 442 664 442 664 q 453 663 447 663 q 464 669 458 664 q 512 698 493 689 q 553 711 531 707 q 604 722 586 724 q 632 706 622 721 q 640 683 642 696 q 619 651 638 671 q 602 630 614 647 q 574 593 590 613 q 505 517 544 547 q 429 478 465 486 q 372 492 393 469 "},"A":{"ha":697,"x_min":67,"x_max":749,"o":"m 96 -46 l 118 -62 l 147 -18 q 186 51 167 11 q 219 123 206 90 q 232 164 232 156 q 238 174 232 164 q 254 190 244 183 q 269 219 254 197 q 289 260 283 240 q 322 303 304 286 q 351 319 339 319 q 398 328 364 324 q 472 338 432 333 q 547 346 513 343 q 594 349 582 349 l 613 350 l 606 125 q 603 46 604 71 q 602 13 601 21 q 607 1 603 6 q 627 -19 610 -11 q 663 -28 644 -28 q 690 -21 682 -29 q 692 -3 690 -14 q 692 21 693 8 q 692 158 688 79 q 703 321 696 236 q 719 483 711 406 q 732 618 728 561 q 742 728 738 676 q 747 815 746 779 q 742 863 749 851 q 715 901 733 883 q 676 931 697 919 q 638 942 654 942 q 613 931 625 943 q 585 900 600 919 q 514 799 547 850 q 453 700 481 749 q 381 578 408 625 q 336 501 353 532 q 307 442 319 471 q 277 399 293 417 q 254 374 261 381 q 236 360 242 368 q 233 340 231 353 q 227 321 233 336 q 203 270 221 306 q 153 172 186 235 q 88 43 108 85 q 69 -15 67 1 q 96 -46 71 -32 m 383 401 q 389 426 379 404 q 414 474 399 447 q 442 523 429 501 q 458 547 456 544 q 478 568 465 547 q 504 615 490 589 q 567 722 533 672 q 627 803 600 772 q 663 833 654 833 q 661 812 663 833 q 658 764 660 790 q 654 703 657 743 q 647 617 651 664 q 637 528 642 571 q 629 456 632 485 q 625 424 626 426 q 620 425 625 424 q 610 433 615 426 q 591 438 601 438 q 554 433 581 438 q 469 414 528 428 q 433 410 453 414 q 398 404 413 407 q 383 401 383 401 "},"Á":{"ha":697,"x_min":67,"x_max":850,"o":"m 96 -46 l 118 -62 l 147 -18 q 186 51 167 11 q 219 123 206 90 q 232 164 232 156 q 238 174 232 164 q 254 190 244 183 q 269 219 254 197 q 289 260 283 240 q 322 303 304 286 q 351 319 339 319 q 398 328 364 324 q 472 338 432 333 q 547 346 513 343 q 594 349 582 349 l 613 350 l 606 125 q 603 46 604 71 q 602 13 601 21 q 607 1 603 6 q 627 -19 610 -11 q 663 -28 644 -28 q 690 -21 682 -29 q 692 -3 690 -14 q 692 21 693 8 q 692 158 688 79 q 703 321 696 236 q 719 483 711 406 q 732 618 728 561 q 742 728 738 676 q 747 815 746 779 q 742 863 749 851 q 715 901 733 883 q 676 931 697 919 q 638 942 654 942 q 613 931 625 943 q 585 900 600 919 q 514 799 547 850 q 453 700 481 749 q 381 578 408 625 q 336 501 353 532 q 307 442 319 471 q 277 399 293 417 q 254 374 261 381 q 236 360 242 368 q 233 340 231 353 q 227 321 233 336 q 203 270 221 306 q 153 172 186 235 q 88 43 108 85 q 69 -15 67 1 q 96 -46 71 -32 m 383 401 q 389 426 379 404 q 414 474 399 447 q 442 523 429 501 q 458 547 456 544 q 478 568 465 547 q 504 615 490 589 q 567 722 533 672 q 627 803 600 772 q 663 833 654 833 q 661 812 663 833 q 658 764 660 790 q 654 703 657 743 q 647 617 651 664 q 637 528 642 571 q 629 456 632 485 q 625 424 626 426 q 620 425 625 424 q 610 433 615 426 q 591 438 601 438 q 554 433 581 438 q 469 414 528 428 q 433 410 453 414 q 398 404 413 407 q 383 401 383 401 m 671 992 q 695 983 688 979 q 717 1010 703 988 q 751 1044 728 1025 q 797 1082 774 1063 q 835 1119 821 1101 q 846 1149 850 1136 q 818 1184 832 1171 q 789 1188 804 1197 q 758 1164 779 1183 q 713 1119 736 1144 q 672 1074 689 1094 q 653 1046 654 1053 q 656 1021 651 1040 q 671 992 661 1001 "},"Ă":{"ha":697,"x_min":67,"x_max":903,"o":"m 96 -46 l 118 -62 l 147 -18 q 186 51 167 11 q 219 123 206 90 q 232 164 232 156 q 238 174 232 164 q 254 190 244 183 q 269 219 254 197 q 289 260 283 240 q 322 303 304 286 q 351 319 339 319 q 398 328 364 324 q 472 338 432 333 q 547 346 513 343 q 594 349 582 349 l 613 350 l 606 125 q 603 46 604 71 q 602 13 601 21 q 607 1 603 6 q 627 -19 610 -11 q 663 -28 644 -28 q 690 -21 682 -29 q 692 -3 690 -14 q 692 21 693 8 q 692 158 688 79 q 703 321 696 236 q 719 483 711 406 q 732 618 728 561 q 742 728 738 676 q 747 815 746 779 q 742 863 749 851 q 715 901 733 883 q 676 931 697 919 q 638 942 654 942 q 613 931 625 943 q 585 900 600 919 q 514 799 547 850 q 453 700 481 749 q 381 578 408 625 q 336 501 353 532 q 307 442 319 471 q 277 399 293 417 q 254 374 261 381 q 236 360 242 368 q 233 340 231 353 q 227 321 233 336 q 203 270 221 306 q 153 172 186 235 q 88 43 108 85 q 69 -15 67 1 q 96 -46 71 -32 m 383 401 q 389 426 379 404 q 414 474 399 447 q 442 523 429 501 q 458 547 456 544 q 478 568 465 547 q 504 615 490 589 q 567 722 533 672 q 627 803 600 772 q 663 833 654 833 q 661 812 663 833 q 658 764 660 790 q 654 703 657 743 q 647 617 651 664 q 637 528 642 571 q 629 456 632 485 q 625 424 626 426 q 620 425 625 424 q 610 433 615 426 q 591 438 601 438 q 554 433 581 438 q 469 414 528 428 q 433 410 453 414 q 398 404 413 407 q 383 401 383 401 m 715 974 q 785 987 753 971 q 842 1028 818 1003 q 881 1077 867 1053 q 900 1114 896 1101 q 899 1137 903 1124 q 887 1158 896 1150 q 865 1160 878 1165 q 838 1128 853 1154 q 812 1092 829 1114 q 774 1053 794 1069 q 736 1035 754 1036 q 676 1051 694 1033 q 656 1092 658 1068 q 657 1131 653 1115 q 656 1165 664 1154 q 635 1176 649 1176 q 610 1161 622 1175 q 593 1122 597 1147 q 598 1049 586 1081 q 640 997 610 1017 q 715 974 671 978 "},"Â":{"ha":697,"x_min":67,"x_max":842,"o":"m 96 -46 l 118 -62 l 147 -18 q 186 51 167 11 q 219 123 206 90 q 232 164 232 156 q 238 174 232 164 q 254 190 244 183 q 269 219 254 197 q 289 260 283 240 q 322 303 304 286 q 351 319 339 319 q 398 328 364 324 q 472 338 432 333 q 547 346 513 343 q 594 349 582 349 l 613 350 l 606 125 q 603 46 604 71 q 602 13 601 21 q 607 1 603 6 q 627 -19 610 -11 q 663 -28 644 -28 q 690 -21 682 -29 q 692 -3 690 -14 q 692 21 693 8 q 692 158 688 79 q 703 321 696 236 q 719 483 711 406 q 732 618 728 561 q 742 728 738 676 q 747 815 746 779 q 742 863 749 851 q 715 901 733 883 q 676 931 697 919 q 638 942 654 942 q 613 931 625 943 q 585 900 600 919 q 514 799 547 850 q 453 700 481 749 q 381 578 408 625 q 336 501 353 532 q 307 442 319 471 q 277 399 293 417 q 254 374 261 381 q 236 360 242 368 q 233 340 231 353 q 227 321 233 336 q 203 270 221 306 q 153 172 186 235 q 88 43 108 85 q 69 -15 67 1 q 96 -46 71 -32 m 383 401 q 389 426 379 404 q 414 474 399 447 q 442 523 429 501 q 458 547 456 544 q 478 568 465 547 q 504 615 490 589 q 567 722 533 672 q 627 803 600 772 q 663 833 654 833 q 661 812 663 833 q 658 764 660 790 q 654 703 657 743 q 647 617 651 664 q 637 528 642 571 q 629 456 632 485 q 625 424 626 426 q 620 425 625 424 q 610 433 615 426 q 591 438 601 438 q 554 433 581 438 q 469 414 528 428 q 433 410 453 414 q 398 404 413 407 q 383 401 383 401 m 600 1014 q 626 1037 610 1022 q 663 1067 643 1051 q 700 1092 683 1082 q 743 1052 721 1074 q 775 1018 765 1031 q 808 992 794 996 q 831 999 822 989 q 841 1023 840 1008 q 833 1049 842 1038 q 810 1074 831 1053 q 765 1119 789 1094 q 724 1157 740 1143 q 704 1170 715 1169 q 681 1160 693 1171 q 646 1136 667 1151 q 605 1103 625 1121 q 569 1071 585 1085 q 550 1051 554 1057 q 539 1015 535 1032 q 560 994 543 997 q 600 1014 576 990 "},"Ȁ":{"ha":697,"x_min":67,"x_max":797,"o":"m 96 -46 l 118 -62 l 147 -18 q 186 51 167 11 q 219 123 206 90 q 232 164 232 156 q 238 174 232 164 q 254 190 244 183 q 269 219 254 197 q 289 260 283 240 q 322 303 304 286 q 351 319 339 319 q 398 328 364 324 q 472 338 432 333 q 547 346 513 343 q 594 349 582 349 l 613 350 l 606 125 q 603 46 604 71 q 602 13 601 21 q 607 1 603 6 q 627 -19 610 -11 q 663 -28 644 -28 q 690 -21 682 -29 q 692 -3 690 -14 q 692 21 693 8 q 692 158 688 79 q 703 321 696 236 q 719 483 711 406 q 732 618 728 561 q 742 728 738 676 q 747 815 746 779 q 742 863 749 851 q 715 901 733 883 q 676 931 697 919 q 638 942 654 942 q 613 931 625 943 q 585 900 600 919 q 514 799 547 850 q 453 700 481 749 q 381 578 408 625 q 336 501 353 532 q 307 442 319 471 q 277 399 293 417 q 254 374 261 381 q 236 360 242 368 q 233 340 231 353 q 227 321 233 336 q 203 270 221 306 q 153 172 186 235 q 88 43 108 85 q 69 -15 67 1 q 96 -46 71 -32 m 383 401 q 389 426 379 404 q 414 474 399 447 q 442 523 429 501 q 458 547 456 544 q 478 568 465 547 q 504 615 490 589 q 567 722 533 672 q 627 803 600 772 q 663 833 654 833 q 661 812 663 833 q 658 764 660 790 q 654 703 657 743 q 647 617 651 664 q 637 528 642 571 q 629 456 632 485 q 625 424 626 426 q 620 425 625 424 q 610 433 615 426 q 591 438 601 438 q 554 433 581 438 q 469 414 528 428 q 433 410 453 414 q 398 404 413 407 q 383 401 383 401 m 604 999 q 619 1014 613 1004 q 629 1033 625 1024 q 632 1044 633 1042 q 621 1069 632 1049 q 594 1117 610 1090 q 564 1165 579 1143 q 540 1192 549 1186 q 515 1191 531 1199 q 486 1164 500 1183 q 490 1140 481 1157 q 515 1101 499 1122 q 547 1059 531 1079 q 569 1024 563 1039 q 584 997 578 1001 q 604 999 590 992 m 769 999 q 789 1023 781 1006 q 796 1044 797 1040 q 785 1069 796 1049 q 759 1117 775 1090 q 728 1165 743 1143 q 704 1192 713 1186 q 681 1191 694 1199 q 650 1164 667 1183 q 653 1140 644 1157 q 678 1101 663 1122 q 710 1059 694 1079 q 733 1024 726 1039 q 748 997 742 1001 q 769 999 754 992 "},"Ä":{"ha":697,"x_min":67,"x_max":890,"o":"m 96 -46 l 118 -62 l 147 -18 q 186 51 167 11 q 219 123 206 90 q 232 164 232 156 q 238 174 232 164 q 254 190 244 183 q 269 219 254 197 q 289 260 283 240 q 322 303 304 286 q 351 319 339 319 q 398 328 364 324 q 472 338 432 333 q 547 346 513 343 q 594 349 582 349 l 613 350 l 606 125 q 603 46 604 71 q 602 13 601 21 q 607 1 603 6 q 627 -19 610 -11 q 663 -28 644 -28 q 690 -21 682 -29 q 692 -3 690 -14 q 692 21 693 8 q 692 158 688 79 q 703 321 696 236 q 719 483 711 406 q 732 618 728 561 q 742 728 738 676 q 747 815 746 779 q 742 863 749 851 q 715 901 733 883 q 676 931 697 919 q 638 942 654 942 q 613 931 625 943 q 585 900 600 919 q 514 799 547 850 q 453 700 481 749 q 381 578 408 625 q 336 501 353 532 q 307 442 319 471 q 277 399 293 417 q 254 374 261 381 q 236 360 242 368 q 233 340 231 353 q 227 321 233 336 q 203 270 221 306 q 153 172 186 235 q 88 43 108 85 q 69 -15 67 1 q 96 -46 71 -32 m 383 401 q 389 426 379 404 q 414 474 399 447 q 442 523 429 501 q 458 547 456 544 q 478 568 465 547 q 504 615 490 589 q 567 722 533 672 q 627 803 600 772 q 663 833 654 833 q 661 812 663 833 q 658 764 660 790 q 654 703 657 743 q 647 617 651 664 q 637 528 642 571 q 629 456 632 485 q 625 424 626 426 q 620 425 625 424 q 610 433 615 426 q 591 438 601 438 q 554 433 581 438 q 469 414 528 428 q 433 410 453 414 q 398 404 413 407 q 383 401 383 401 m 797 1042 q 826 1028 810 1025 q 864 1060 843 1031 q 886 1098 882 1083 q 878 1132 890 1113 q 856 1163 871 1154 q 825 1158 842 1171 q 814 1151 819 1157 q 804 1142 808 1144 q 787 1113 794 1133 q 776 1086 779 1093 q 781 1066 775 1081 q 797 1042 788 1051 m 618 1042 q 646 1028 629 1025 q 685 1060 663 1031 q 707 1098 703 1083 q 699 1132 711 1113 q 685 1156 694 1147 q 666 1165 676 1164 q 644 1158 656 1167 q 634 1151 639 1157 q 625 1142 629 1144 q 608 1113 615 1133 q 597 1086 600 1093 q 602 1066 596 1081 q 618 1042 608 1051 "},"À":{"ha":697,"x_min":67,"x_max":796,"o":"m 96 -46 l 118 -62 l 147 -18 q 186 51 167 11 q 219 123 206 90 q 232 164 232 156 q 238 174 232 164 q 254 190 244 183 q 269 219 254 197 q 289 260 283 240 q 322 303 304 286 q 351 319 339 319 q 398 328 364 324 q 472 338 432 333 q 547 346 513 343 q 594 349 582 349 l 613 350 l 606 125 q 603 46 604 71 q 602 13 601 21 q 607 1 603 6 q 627 -19 610 -11 q 663 -28 644 -28 q 690 -21 682 -29 q 692 -3 690 -14 q 692 21 693 8 q 692 158 688 79 q 703 321 696 236 q 719 483 711 406 q 732 618 728 561 q 742 728 738 676 q 747 815 746 779 q 742 863 749 851 q 715 901 733 883 q 676 931 697 919 q 638 942 654 942 q 613 931 625 943 q 585 900 600 919 q 514 799 547 850 q 453 700 481 749 q 381 578 408 625 q 336 501 353 532 q 307 442 319 471 q 277 399 293 417 q 254 374 261 381 q 236 360 242 368 q 233 340 231 353 q 227 321 233 336 q 203 270 221 306 q 153 172 186 235 q 88 43 108 85 q 69 -15 67 1 q 96 -46 71 -32 m 383 401 q 389 426 379 404 q 414 474 399 447 q 442 523 429 501 q 458 547 456 544 q 478 568 465 547 q 504 615 490 589 q 567 722 533 672 q 627 803 600 772 q 663 833 654 833 q 661 812 663 833 q 658 764 660 790 q 654 703 657 743 q 647 617 651 664 q 637 528 642 571 q 629 456 632 485 q 625 424 626 426 q 620 425 625 424 q 610 433 615 426 q 591 438 601 438 q 554 433 581 438 q 469 414 528 428 q 433 410 453 414 q 398 404 413 407 q 383 401 383 401 m 767 988 q 787 1004 778 990 q 794 1024 796 1018 q 786 1056 794 1032 q 765 1110 778 1081 q 738 1162 751 1139 q 715 1190 725 1185 q 688 1197 701 1206 q 657 1174 675 1189 q 660 1128 646 1158 q 696 1065 674 1097 q 729 1010 718 1033 q 739 986 735 994 q 749 978 743 978 q 767 988 756 979 "},"Ȃ":{"ha":697,"x_min":67,"x_max":864,"o":"m 96 -46 l 118 -62 l 147 -18 q 186 51 167 11 q 219 123 206 90 q 232 164 232 156 q 238 174 232 164 q 254 190 244 183 q 269 219 254 197 q 289 260 283 240 q 322 303 304 286 q 351 319 339 319 q 398 328 364 324 q 472 338 432 333 q 547 346 513 343 q 594 349 582 349 l 613 350 l 606 125 q 603 46 604 71 q 602 13 601 21 q 607 1 603 6 q 627 -19 610 -11 q 663 -28 644 -28 q 690 -21 682 -29 q 692 -3 690 -14 q 692 21 693 8 q 692 158 688 79 q 703 321 696 236 q 719 483 711 406 q 732 618 728 561 q 742 728 738 676 q 747 815 746 779 q 742 863 749 851 q 715 901 733 883 q 676 931 697 919 q 638 942 654 942 q 613 931 625 943 q 585 900 600 919 q 514 799 547 850 q 453 700 481 749 q 381 578 408 625 q 336 501 353 532 q 307 442 319 471 q 277 399 293 417 q 254 374 261 381 q 236 360 242 368 q 233 340 231 353 q 227 321 233 336 q 203 270 221 306 q 153 172 186 235 q 88 43 108 85 q 69 -15 67 1 q 96 -46 71 -32 m 383 401 q 389 426 379 404 q 414 474 399 447 q 442 523 429 501 q 458 547 456 544 q 478 568 465 547 q 504 615 490 589 q 567 722 533 672 q 627 803 600 772 q 663 833 654 833 q 661 812 663 833 q 658 764 660 790 q 654 703 657 743 q 647 617 651 664 q 637 528 642 571 q 629 456 632 485 q 625 424 626 426 q 620 425 625 424 q 610 433 615 426 q 591 438 601 438 q 554 433 581 438 q 469 414 528 428 q 433 410 453 414 q 398 404 413 407 q 383 401 383 401 m 792 1014 q 797 974 783 983 q 831 976 811 964 q 856 1022 850 989 q 851 1096 864 1064 q 809 1148 839 1128 q 733 1171 779 1168 q 663 1158 696 1174 q 606 1117 631 1142 q 567 1067 582 1092 q 549 1031 553 1043 q 553 1001 546 1018 q 576 983 560 983 q 611 1017 592 982 q 637 1053 619 1032 q 674 1092 654 1075 q 713 1110 694 1110 q 772 1094 754 1111 q 793 1053 790 1076 q 792 1014 796 1031 "},"Ā":{"ha":697,"x_min":67,"x_max":918,"o":"m 96 -46 l 118 -62 l 147 -18 q 186 51 167 11 q 219 123 206 90 q 232 164 232 156 q 238 174 232 164 q 254 190 244 183 q 269 219 254 197 q 289 260 283 240 q 322 303 304 286 q 351 319 339 319 q 398 328 364 324 q 472 338 432 333 q 547 346 513 343 q 594 349 582 349 l 613 350 l 606 125 q 603 46 604 71 q 602 13 601 21 q 607 1 603 6 q 627 -19 610 -11 q 663 -28 644 -28 q 690 -21 682 -29 q 692 -3 690 -14 q 692 21 693 8 q 692 158 688 79 q 703 321 696 236 q 719 483 711 406 q 732 618 728 561 q 742 728 738 676 q 747 815 746 779 q 742 863 749 851 q 715 901 733 883 q 676 931 697 919 q 638 942 654 942 q 613 931 625 943 q 585 900 600 919 q 514 799 547 850 q 453 700 481 749 q 381 578 408 625 q 336 501 353 532 q 307 442 319 471 q 277 399 293 417 q 254 374 261 381 q 236 360 242 368 q 233 340 231 353 q 227 321 233 336 q 203 270 221 306 q 153 172 186 235 q 88 43 108 85 q 69 -15 67 1 q 96 -46 71 -32 m 383 401 q 389 426 379 404 q 414 474 399 447 q 442 523 429 501 q 458 547 456 544 q 478 568 465 547 q 504 615 490 589 q 567 722 533 672 q 627 803 600 772 q 663 833 654 833 q 661 812 663 833 q 658 764 660 790 q 654 703 657 743 q 647 617 651 664 q 637 528 642 571 q 629 456 632 485 q 625 424 626 426 q 620 425 625 424 q 610 433 615 426 q 591 438 601 438 q 554 433 581 438 q 469 414 528 428 q 433 410 453 414 q 398 404 413 407 q 383 401 383 401 m 625 1058 q 680 1060 650 1058 q 734 1063 710 1061 q 767 1064 758 1064 q 807 1065 783 1064 q 851 1067 831 1065 q 878 1068 871 1068 q 913 1083 908 1065 q 900 1121 918 1100 q 858 1135 885 1132 q 800 1138 832 1138 q 696 1133 747 1138 q 597 1122 644 1129 q 539 1109 550 1117 q 540 1081 528 1101 q 553 1067 546 1071 q 581 1064 560 1064 q 605 1059 593 1060 q 625 1058 617 1058 "},"Ą":{"ha":697,"x_min":67,"x_max":749,"o":"m 96 -46 l 118 -62 l 147 -18 q 186 51 167 11 q 219 123 206 90 q 232 164 232 156 q 238 174 232 164 q 254 190 244 183 q 269 219 254 197 q 289 260 283 240 q 322 303 304 286 q 351 319 339 319 q 398 328 364 324 q 472 338 432 333 q 547 346 513 343 q 594 349 582 349 l 613 350 l 606 125 q 603 46 604 71 q 602 13 601 21 q 607 1 603 6 q 627 -19 610 -11 q 663 -28 644 -28 q 690 -21 682 -29 q 692 -3 690 -14 q 692 21 693 8 q 692 158 688 79 q 703 321 696 236 q 719 483 711 406 q 732 618 728 561 q 742 728 738 676 q 747 815 746 779 q 742 863 749 851 q 715 901 733 883 q 676 931 697 919 q 638 942 654 942 q 613 931 625 943 q 585 900 600 919 q 514 799 547 850 q 453 700 481 749 q 381 578 408 625 q 336 501 353 532 q 307 442 319 471 q 277 399 293 417 q 254 374 261 381 q 236 360 242 368 q 233 340 231 353 q 227 321 233 336 q 203 270 221 306 q 153 172 186 235 q 88 43 108 85 q 69 -15 67 1 q 96 -46 71 -32 m 383 401 q 389 426 379 404 q 414 474 399 447 q 442 523 429 501 q 458 547 456 544 q 478 568 465 547 q 504 615 490 589 q 567 722 533 672 q 627 803 600 772 q 663 833 654 833 q 661 812 663 833 q 658 764 660 790 q 654 703 657 743 q 647 617 651 664 q 637 528 642 571 q 629 456 632 485 q 625 424 626 426 q 620 425 625 424 q 610 433 615 426 q 591 438 601 438 q 554 433 581 438 q 469 414 528 428 q 433 410 453 414 q 398 404 413 407 q 383 401 383 401 m 539 -268 q 575 -258 554 -265 q 617 -241 596 -250 q 654 -224 638 -232 q 676 -214 671 -215 q 699 -194 693 -207 q 703 -170 706 -182 q 692 -154 701 -158 q 664 -160 682 -150 q 607 -190 629 -176 q 553 -210 585 -204 q 528 -201 532 -210 q 526 -165 518 -186 q 553 -121 533 -144 q 620 -55 578 -90 q 693 -1 663 -19 l 651 40 q 585 -8 621 21 q 518 -70 549 -37 q 472 -135 488 -103 q 466 -190 460 -161 q 492 -239 472 -218 q 539 -268 511 -260 "},"Å":{"ha":697,"x_min":67,"x_max":842,"o":"m 96 -46 l 118 -62 l 147 -18 q 186 51 167 11 q 219 123 206 90 q 232 164 232 156 q 238 174 232 164 q 254 190 244 183 q 269 219 254 197 q 289 260 283 240 q 322 303 304 286 q 351 319 339 319 q 398 328 364 324 q 472 338 432 333 q 547 346 513 343 q 594 349 582 349 l 613 350 l 606 125 q 603 46 604 71 q 602 13 601 21 q 607 1 603 6 q 627 -19 610 -11 q 663 -28 644 -28 q 690 -21 682 -29 q 692 -3 690 -14 q 692 21 693 8 q 692 158 688 79 q 703 321 696 236 q 719 483 711 406 q 732 618 728 561 q 742 728 738 676 q 747 815 746 779 q 742 863 749 851 q 715 901 733 883 q 676 931 697 919 q 638 942 654 942 q 613 931 625 943 q 585 900 600 919 q 514 799 547 850 q 453 700 481 749 q 381 578 408 625 q 336 501 353 532 q 307 442 319 471 q 277 399 293 417 q 254 374 261 381 q 236 360 242 368 q 233 340 231 353 q 227 321 233 336 q 203 270 221 306 q 153 172 186 235 q 88 43 108 85 q 69 -15 67 1 q 96 -46 71 -32 m 383 401 q 389 426 379 404 q 414 474 399 447 q 442 523 429 501 q 458 547 456 544 q 478 568 465 547 q 504 615 490 589 q 567 722 533 672 q 627 803 600 772 q 663 833 654 833 q 661 812 663 833 q 658 764 660 790 q 654 703 657 743 q 647 617 651 664 q 637 528 642 571 q 629 456 632 485 q 625 424 626 426 q 620 425 625 424 q 610 433 615 426 q 591 438 601 438 q 554 433 581 438 q 469 414 528 428 q 433 410 453 414 q 398 404 413 407 q 383 401 383 401 m 733 958 q 792 981 768 958 q 828 1039 815 1004 q 842 1107 842 1074 q 811 1167 842 1147 q 736 1188 781 1188 q 685 1165 707 1188 q 652 1113 664 1143 q 640 1056 640 1082 q 665 987 644 1015 q 733 958 686 958 m 728 1014 q 705 1031 717 1014 q 693 1061 693 1047 q 746 1131 693 1131 q 775 1114 769 1131 q 782 1079 781 1097 q 768 1030 783 1046 q 728 1014 753 1014 "},"Ǻ":{"ha":697,"x_min":67,"x_max":960,"o":"m 96 -46 l 118 -62 l 147 -18 q 186 51 167 11 q 219 123 206 90 q 232 164 232 156 q 238 174 232 164 q 254 190 244 183 q 269 219 254 197 q 289 260 283 240 q 322 303 304 286 q 351 319 339 319 q 398 328 364 324 q 472 338 432 333 q 547 346 513 343 q 594 349 582 349 l 613 350 l 606 125 q 603 46 604 71 q 602 13 601 21 q 607 1 603 6 q 627 -19 610 -11 q 663 -28 644 -28 q 690 -21 682 -29 q 692 -3 690 -14 q 692 21 693 8 q 692 158 688 79 q 703 321 696 236 q 719 483 711 406 q 732 618 728 561 q 742 728 738 676 q 747 815 746 779 q 742 863 749 851 q 715 901 733 883 q 676 931 697 919 q 638 942 654 942 q 613 931 625 943 q 585 900 600 919 q 514 799 547 850 q 453 700 481 749 q 381 578 408 625 q 336 501 353 532 q 307 442 319 471 q 277 399 293 417 q 254 374 261 381 q 236 360 242 368 q 233 340 231 353 q 227 321 233 336 q 203 270 221 306 q 153 172 186 235 q 88 43 108 85 q 69 -15 67 1 q 96 -46 71 -32 m 383 401 q 389 426 379 404 q 414 474 399 447 q 442 523 429 501 q 458 547 456 544 q 478 568 465 547 q 504 615 490 589 q 567 722 533 672 q 627 803 600 772 q 663 833 654 833 q 661 812 663 833 q 658 764 660 790 q 654 703 657 743 q 647 617 651 664 q 637 528 642 571 q 629 456 632 485 q 625 424 626 426 q 620 425 625 424 q 610 433 615 426 q 591 438 601 438 q 554 433 581 438 q 469 414 528 428 q 433 410 453 414 q 398 404 413 407 q 383 401 383 401 m 733 958 q 792 981 768 958 q 828 1039 815 1004 q 842 1107 842 1074 q 811 1167 842 1147 q 736 1188 781 1188 q 685 1165 707 1188 q 652 1113 664 1143 q 640 1056 640 1082 q 665 987 644 1015 q 733 958 686 958 m 728 1014 q 705 1031 717 1014 q 693 1061 693 1047 q 746 1131 693 1131 q 775 1114 769 1131 q 782 1079 781 1097 q 768 1030 783 1046 q 728 1014 753 1014 m 781 1124 q 805 1115 797 1111 q 826 1142 813 1119 q 860 1176 838 1157 q 907 1214 883 1194 q 945 1251 931 1233 q 956 1281 960 1268 q 928 1316 942 1303 q 899 1319 914 1329 q 867 1296 889 1315 q 822 1251 846 1276 q 781 1206 799 1226 q 763 1178 764 1185 q 766 1153 761 1172 q 781 1124 771 1133 "},"Ã":{"ha":697,"x_min":67,"x_max":935,"o":"m 96 -46 l 118 -62 l 147 -18 q 186 51 167 11 q 219 123 206 90 q 232 164 232 156 q 238 174 232 164 q 254 190 244 183 q 269 219 254 197 q 289 260 283 240 q 322 303 304 286 q 351 319 339 319 q 398 328 364 324 q 472 338 432 333 q 547 346 513 343 q 594 349 582 349 l 613 350 l 606 125 q 603 46 604 71 q 602 13 601 21 q 607 1 603 6 q 627 -19 610 -11 q 663 -28 644 -28 q 690 -21 682 -29 q 692 -3 690 -14 q 692 21 693 8 q 692 158 688 79 q 703 321 696 236 q 719 483 711 406 q 732 618 728 561 q 742 728 738 676 q 747 815 746 779 q 742 863 749 851 q 715 901 733 883 q 676 931 697 919 q 638 942 654 942 q 613 931 625 943 q 585 900 600 919 q 514 799 547 850 q 453 700 481 749 q 381 578 408 625 q 336 501 353 532 q 307 442 319 471 q 277 399 293 417 q 254 374 261 381 q 236 360 242 368 q 233 340 231 353 q 227 321 233 336 q 203 270 221 306 q 153 172 186 235 q 88 43 108 85 q 69 -15 67 1 q 96 -46 71 -32 m 383 401 q 389 426 379 404 q 414 474 399 447 q 442 523 429 501 q 458 547 456 544 q 478 568 465 547 q 504 615 490 589 q 567 722 533 672 q 627 803 600 772 q 663 833 654 833 q 661 812 663 833 q 658 764 660 790 q 654 703 657 743 q 647 617 651 664 q 637 528 642 571 q 629 456 632 485 q 625 424 626 426 q 620 425 625 424 q 610 433 615 426 q 591 438 601 438 q 554 433 581 438 q 469 414 528 428 q 433 410 453 414 q 398 404 413 407 q 383 401 383 401 m 793 1013 q 808 1015 799 1013 q 839 1029 817 1018 q 903 1064 861 1040 q 924 1085 915 1071 q 933 1104 933 1099 q 931 1122 935 1113 q 918 1137 926 1132 q 900 1138 910 1142 q 847 1110 871 1126 q 801 1089 822 1094 q 758 1091 775 1078 q 710 1133 742 1104 q 658 1161 688 1154 q 611 1161 628 1168 q 544 1106 564 1138 q 524 1061 525 1074 q 530 1044 522 1054 q 551 1031 538 1035 q 561 1034 554 1024 q 569 1051 568 1044 q 593 1066 585 1054 q 610 1089 601 1078 q 633 1100 619 1100 q 671 1079 650 1100 q 704 1051 692 1058 q 748 1023 731 1033 q 793 1013 765 1013 "},"Æ":{"ha":1089,"x_min":75,"x_max":1258,"o":"m 765 -67 q 817 -63 797 -67 q 858 -51 836 -60 q 914 -28 879 -43 q 1014 14 983 0 q 1044 42 1044 28 q 1036 58 1046 46 q 1016 81 1026 71 q 1003 92 1006 92 q 987 88 993 92 q 975 76 981 83 q 955 73 969 76 q 933 69 940 69 q 903 55 924 64 q 857 31 882 46 q 751 14 797 15 q 676 18 704 13 q 627 62 632 39 q 632 122 622 85 q 648 199 640 165 q 667 265 656 233 q 694 331 679 296 q 726 412 722 392 q 738 413 729 432 q 775 417 743 411 q 852 431 807 422 q 942 451 897 440 q 1019 474 986 463 q 1061 493 1053 485 q 1072 504 1071 497 q 1065 519 1072 511 q 1042 529 1058 526 q 1019 538 1035 533 q 981 535 1004 542 q 922 531 960 535 q 845 524 883 528 q 785 515 807 519 q 776 535 772 521 q 794 568 781 550 q 821 607 810 590 q 832 638 832 624 q 845 666 832 642 q 876 719 858 690 q 908 769 893 747 q 925 790 922 790 q 940 792 925 790 q 974 799 954 793 q 1008 803 983 799 q 1067 811 1033 807 q 1135 815 1101 815 q 1194 816 1165 815 q 1240 819 1222 817 q 1258 825 1258 821 q 1257 833 1258 825 q 1252 850 1256 840 q 1242 867 1249 860 q 1206 883 1224 875 q 1157 892 1188 892 q 1088 894 1125 894 q 1022 892 1050 894 q 985 883 993 889 q 922 874 954 882 q 865 856 890 865 q 793 869 826 864 q 744 882 760 875 q 702 887 718 894 q 656 850 686 879 q 622 813 638 831 q 597 779 606 794 q 564 741 583 764 q 522 699 544 718 q 490 653 507 676 q 465 622 474 629 q 447 597 457 610 q 417 544 438 583 q 388 508 406 532 q 353 456 371 483 q 324 409 336 429 q 310 386 311 389 q 303 378 310 381 q 283 368 297 375 q 260 361 271 368 q 247 347 250 354 q 254 335 244 339 q 250 282 279 310 q 226 256 243 279 q 191 206 210 233 q 158 155 172 178 q 143 129 144 132 q 137 119 143 129 q 122 100 131 110 q 81 33 88 60 q 101 -6 75 7 q 122 -17 113 -15 q 143 -18 131 -18 q 164 -2 150 -18 q 207 57 178 14 q 249 118 229 83 q 283 179 269 153 q 317 232 299 208 q 339 261 335 256 l 363 290 q 484 284 432 286 q 563 286 536 282 l 579 286 q 567 253 574 275 q 557 208 561 232 q 537 99 540 143 q 546 25 533 54 q 586 -26 558 -4 q 666 -60 622 -54 q 765 -67 710 -67 m 414 363 q 413 388 407 367 q 442 446 419 408 q 506 538 464 483 q 549 600 529 571 q 575 636 569 629 q 601 669 582 647 q 644 715 621 692 q 684 754 667 739 q 704 765 701 769 q 749 764 728 765 q 788 760 769 763 q 753 681 778 729 q 692 568 728 633 q 677 539 686 550 q 665 522 668 528 q 660 506 665 517 q 644 476 656 496 q 638 452 639 463 q 636 442 636 442 q 629 423 635 439 q 619 404 624 407 q 610 390 614 399 q 604 369 607 382 q 569 370 590 369 q 521 368 547 371 q 448 366 482 369 q 414 363 414 363 "},"Ǽ":{"ha":1089,"x_min":75,"x_max":1258,"o":"m 765 -67 q 817 -63 797 -67 q 858 -51 836 -60 q 914 -28 879 -43 q 1014 14 983 0 q 1044 42 1044 28 q 1036 58 1046 46 q 1016 81 1026 71 q 1003 92 1006 92 q 987 88 993 92 q 975 76 981 83 q 955 73 969 76 q 933 69 940 69 q 903 55 924 64 q 857 31 882 46 q 751 14 797 15 q 676 18 704 13 q 627 62 632 39 q 632 122 622 85 q 648 199 640 165 q 667 265 656 233 q 694 331 679 296 q 726 412 722 392 q 738 413 729 432 q 775 417 743 411 q 852 431 807 422 q 942 451 897 440 q 1019 474 986 463 q 1061 493 1053 485 q 1072 504 1071 497 q 1065 519 1072 511 q 1042 529 1058 526 q 1019 538 1035 533 q 981 535 1004 542 q 922 531 960 535 q 845 524 883 528 q 785 515 807 519 q 776 535 772 521 q 794 568 781 550 q 821 607 810 590 q 832 638 832 624 q 845 666 832 642 q 876 719 858 690 q 908 769 893 747 q 925 790 922 790 q 940 792 925 790 q 974 799 954 793 q 1008 803 983 799 q 1067 811 1033 807 q 1135 815 1101 815 q 1194 816 1165 815 q 1240 819 1222 817 q 1258 825 1258 821 q 1257 833 1258 825 q 1252 850 1256 840 q 1242 867 1249 860 q 1206 883 1224 875 q 1157 892 1188 892 q 1088 894 1125 894 q 1022 892 1050 894 q 985 883 993 889 q 922 874 954 882 q 865 856 890 865 q 793 869 826 864 q 744 882 760 875 q 702 887 718 894 q 656 850 686 879 q 622 813 638 831 q 597 779 606 794 q 564 741 583 764 q 522 699 544 718 q 490 653 507 676 q 465 622 474 629 q 447 597 457 610 q 417 544 438 583 q 388 508 406 532 q 353 456 371 483 q 324 409 336 429 q 310 386 311 389 q 303 378 310 381 q 283 368 297 375 q 260 361 271 368 q 247 347 250 354 q 254 335 244 339 q 250 282 279 310 q 226 256 243 279 q 191 206 210 233 q 158 155 172 178 q 143 129 144 132 q 137 119 143 129 q 122 100 131 110 q 81 33 88 60 q 101 -6 75 7 q 122 -17 113 -15 q 143 -18 131 -18 q 164 -2 150 -18 q 207 57 178 14 q 249 118 229 83 q 283 179 269 153 q 317 232 299 208 q 339 261 335 256 l 363 290 q 484 284 432 286 q 563 286 536 282 l 579 286 q 567 253 574 275 q 557 208 561 232 q 537 99 540 143 q 546 25 533 54 q 586 -26 558 -4 q 666 -60 622 -54 q 765 -67 710 -67 m 414 363 q 413 388 407 367 q 442 446 419 408 q 506 538 464 483 q 549 600 529 571 q 575 636 569 629 q 601 669 582 647 q 644 715 621 692 q 684 754 667 739 q 704 765 701 769 q 749 764 728 765 q 788 760 769 763 q 753 681 778 729 q 692 568 728 633 q 677 539 686 550 q 665 522 668 528 q 660 506 665 517 q 644 476 656 496 q 638 452 639 463 q 636 442 636 442 q 629 423 635 439 q 619 404 624 407 q 610 390 614 399 q 604 369 607 382 q 569 370 590 369 q 521 368 547 371 q 448 366 482 369 q 414 363 414 363 m 919 992 q 944 983 936 979 q 965 1010 951 988 q 999 1044 976 1025 q 1046 1082 1022 1063 q 1084 1119 1069 1101 q 1094 1149 1099 1136 q 1067 1184 1081 1171 q 1038 1188 1053 1197 q 1006 1164 1028 1183 q 961 1119 985 1144 q 920 1074 938 1094 q 901 1046 903 1053 q 905 1021 900 1040 q 919 992 910 1001 "},"B":{"ha":722,"x_min":113,"x_max":796,"o":"m 285 -79 q 350 -99 310 -94 q 435 -98 390 -104 q 519 -75 481 -92 q 569 -51 546 -65 q 610 -22 592 -37 q 643 4 629 -7 q 672 43 657 21 q 699 84 688 65 q 710 106 710 103 q 715 116 710 106 q 731 136 721 126 q 749 187 740 157 q 762 247 757 217 q 761 299 767 278 q 704 399 746 363 q 599 458 663 435 q 575 467 586 463 q 564 471 564 471 q 578 481 564 471 q 613 508 593 492 q 651 539 633 524 q 715 607 682 567 q 770 688 747 647 q 794 751 793 728 q 744 874 796 829 q 600 928 693 919 q 551 928 574 931 q 525 925 529 925 q 515 919 525 919 q 499 918 506 918 q 463 913 486 921 q 422 894 440 904 q 403 879 403 885 q 406 867 401 874 q 410 854 410 861 q 413 833 417 853 q 389 771 408 814 q 341 658 369 725 q 282 517 313 592 q 224 372 251 442 q 176 249 196 301 q 149 176 156 197 q 138 140 142 150 q 126 117 133 129 q 115 73 113 92 q 129 35 118 54 q 162 5 149 8 q 192 37 175 1 q 239 157 210 72 q 285 285 269 242 q 308 347 300 329 q 321 367 315 364 q 336 374 326 371 q 353 377 338 374 q 388 385 368 381 q 417 390 407 389 q 562 394 500 413 q 658 326 624 375 q 674 274 672 311 q 665 192 676 236 q 625 111 654 149 q 542 31 586 64 q 440 -19 499 -1 q 348 -27 389 -33 q 279 4 307 -21 q 248 31 267 17 q 221 40 229 46 q 204 -12 183 17 q 285 -79 225 -40 m 353 456 q 367 499 353 463 q 406 596 381 536 q 444 689 425 649 q 464 735 464 729 q 469 742 464 735 q 476 760 475 750 q 491 778 483 767 q 499 803 499 790 q 508 826 499 818 q 536 839 518 833 q 593 848 560 846 q 656 845 626 850 q 699 825 686 840 q 714 783 717 807 q 679 708 711 758 q 635 640 664 678 q 576 567 606 601 q 526 515 546 533 q 499 494 513 501 q 479 483 486 488 q 435 472 465 478 q 378 460 404 465 q 353 456 353 456 "},"C":{"ha":656,"x_min":158,"x_max":776,"o":"m 297 -78 q 377 -74 333 -85 q 464 -42 421 -62 q 536 1 507 -21 q 574 21 556 8 q 603 44 592 33 q 658 88 636 64 q 679 131 679 111 q 676 143 679 142 q 654 138 674 144 q 624 128 642 138 q 596 111 607 119 q 554 82 582 99 q 493 51 526 65 q 411 18 451 33 q 340 -1 371 3 q 290 7 308 -6 q 259 81 269 28 q 251 202 249 133 q 269 335 254 271 q 282 372 276 350 q 286 399 288 393 q 292 414 286 399 q 301 435 299 429 q 358 551 321 494 q 451 682 396 608 q 546 788 494 740 q 629 850 597 836 q 663 864 653 863 q 679 860 674 865 q 688 823 692 847 q 672 740 683 799 q 653 697 667 724 q 625 646 639 669 q 603 613 611 622 q 598 607 597 611 q 611 579 599 603 q 645 557 631 561 q 678 569 660 553 q 729 636 707 596 q 764 722 751 676 q 776 808 776 767 q 761 878 776 849 q 714 928 746 911 q 645 944 682 946 q 578 921 608 943 q 501 867 531 889 q 447 822 471 846 q 397 764 424 799 q 331 669 371 729 q 281 592 304 632 q 247 529 258 553 q 231 493 242 517 q 213 449 221 469 q 203 425 206 429 q 170 316 181 369 q 160 190 160 263 q 163 100 158 139 q 182 21 168 61 q 215 -31 196 -12 q 255 -60 233 -50 q 297 -78 276 -69 "},"Ć":{"ha":669,"x_min":158,"x_max":833,"o":"m 297 -78 q 377 -74 333 -85 q 464 -42 421 -62 q 536 1 507 -21 q 574 21 556 8 q 603 44 592 33 q 658 88 636 64 q 679 131 679 111 q 676 143 679 142 q 654 138 674 144 q 624 128 642 138 q 596 111 607 119 q 554 82 582 99 q 493 51 526 65 q 411 18 451 33 q 340 -1 371 3 q 290 7 308 -6 q 259 81 269 28 q 251 202 249 133 q 269 335 254 271 q 282 372 276 350 q 286 399 288 393 q 292 414 286 399 q 301 435 299 429 q 358 551 321 494 q 451 682 396 608 q 546 788 494 740 q 629 850 597 836 q 663 864 653 863 q 679 860 674 865 q 688 823 692 847 q 672 740 683 799 q 653 697 667 724 q 625 646 639 669 q 603 613 611 622 q 598 607 597 611 q 611 579 599 603 q 645 557 631 561 q 678 569 660 553 q 729 636 707 596 q 764 722 751 676 q 776 808 776 767 q 761 878 776 849 q 714 928 746 911 q 645 944 682 946 q 578 921 608 943 q 501 867 531 889 q 447 822 471 846 q 397 764 424 799 q 331 669 371 729 q 281 592 304 632 q 247 529 258 553 q 231 493 242 517 q 213 449 221 469 q 203 425 206 429 q 170 316 181 369 q 160 190 160 263 q 163 100 158 139 q 182 21 168 61 q 215 -31 196 -12 q 255 -60 233 -50 q 297 -78 276 -69 m 654 992 q 678 983 671 979 q 700 1010 686 988 q 734 1044 711 1025 q 781 1082 757 1063 q 819 1119 804 1101 q 829 1149 833 1136 q 801 1184 815 1171 q 772 1188 788 1197 q 741 1164 763 1183 q 696 1119 719 1144 q 655 1074 672 1094 q 636 1046 638 1053 q 640 1021 635 1040 q 654 992 644 1001 "},"Č":{"ha":669,"x_min":158,"x_max":875,"o":"m 297 -78 q 377 -74 333 -85 q 464 -42 421 -62 q 536 1 507 -21 q 574 21 556 8 q 603 44 592 33 q 658 88 636 64 q 679 131 679 111 q 676 143 679 142 q 654 138 674 144 q 624 128 642 138 q 596 111 607 119 q 554 82 582 99 q 493 51 526 65 q 411 18 451 33 q 340 -1 371 3 q 290 7 308 -6 q 259 81 269 28 q 251 202 249 133 q 269 335 254 271 q 282 372 276 350 q 286 399 288 393 q 292 414 286 399 q 301 435 299 429 q 358 551 321 494 q 451 682 396 608 q 546 788 494 740 q 629 850 597 836 q 663 864 653 863 q 679 860 674 865 q 688 823 692 847 q 672 740 683 799 q 653 697 667 724 q 625 646 639 669 q 603 613 611 622 q 598 607 597 611 q 611 579 599 603 q 645 557 631 561 q 678 569 660 553 q 729 636 707 596 q 764 722 751 676 q 776 808 776 767 q 761 878 776 849 q 714 928 746 911 q 645 944 682 946 q 578 921 608 943 q 501 867 531 889 q 447 822 471 846 q 397 764 424 799 q 331 669 371 729 q 281 592 304 632 q 247 529 258 553 q 231 493 242 517 q 213 449 221 469 q 203 425 206 429 q 170 316 181 369 q 160 190 160 263 q 163 100 158 139 q 182 21 168 61 q 215 -31 196 -12 q 255 -60 233 -50 q 297 -78 276 -69 m 724 997 q 762 1022 739 1006 q 809 1056 785 1038 q 851 1090 833 1074 q 869 1111 868 1106 q 872 1139 875 1124 q 854 1158 869 1154 q 806 1136 839 1161 q 778 1115 796 1128 q 742 1090 761 1103 q 706 1068 722 1078 q 660 1106 683 1088 q 628 1139 638 1125 q 590 1161 606 1165 q 570 1140 575 1157 q 569 1110 565 1124 q 593 1085 572 1106 q 640 1040 614 1064 q 682 1000 665 1015 q 701 990 690 990 q 724 997 713 989 "},"Ç":{"ha":669,"x_min":158,"x_max":776,"o":"m 297 -78 q 377 -74 333 -85 q 464 -42 421 -62 q 536 1 507 -21 q 574 21 556 8 q 603 44 592 33 q 658 88 636 64 q 679 131 679 111 q 676 143 679 142 q 654 138 674 144 q 624 128 642 138 q 596 111 607 119 q 554 82 582 99 q 493 51 526 65 q 411 18 451 33 q 340 -1 371 3 q 290 7 308 -6 q 259 81 269 28 q 251 202 249 133 q 269 335 254 271 q 282 372 276 350 q 286 399 288 393 q 292 414 286 399 q 301 435 299 429 q 358 551 321 494 q 451 682 396 608 q 546 788 494 740 q 629 850 597 836 q 663 864 653 863 q 679 860 674 865 q 688 823 692 847 q 672 740 683 799 q 653 697 667 724 q 625 646 639 669 q 603 613 611 622 q 598 607 597 611 q 611 579 599 603 q 645 557 631 561 q 678 569 660 553 q 729 636 707 596 q 764 722 751 676 q 776 808 776 767 q 761 878 776 849 q 714 928 746 911 q 645 944 682 946 q 578 921 608 943 q 501 867 531 889 q 447 822 471 846 q 397 764 424 799 q 331 669 371 729 q 281 592 304 632 q 247 529 258 553 q 231 493 242 517 q 213 449 221 469 q 203 425 206 429 q 170 316 181 369 q 160 190 160 263 q 163 100 158 139 q 182 21 168 61 q 215 -31 196 -12 q 255 -60 233 -50 q 297 -78 276 -69 m 329 -347 q 377 -327 357 -342 q 405 -288 397 -312 q 404 -231 413 -264 q 374 -177 397 -203 q 331 -124 350 -151 q 352 -90 331 -106 q 408 -58 374 -75 l 363 -26 q 274 -81 296 -60 q 255 -119 251 -103 q 269 -151 258 -135 q 299 -183 285 -165 q 322 -212 313 -200 q 344 -244 338 -229 q 340 -274 350 -258 q 308 -293 331 -293 q 259 -285 286 -293 q 210 -269 232 -276 q 185 -272 196 -265 q 169 -290 174 -278 q 170 -312 165 -301 q 192 -329 175 -324 q 225 -338 200 -332 q 279 -348 250 -344 q 329 -347 308 -351 "},"Ĉ":{"ha":669,"x_min":158,"x_max":881,"o":"m 297 -78 q 377 -74 333 -85 q 464 -42 421 -62 q 536 1 507 -21 q 574 21 556 8 q 603 44 592 33 q 658 88 636 64 q 679 131 679 111 q 676 143 679 142 q 654 138 674 144 q 624 128 642 138 q 596 111 607 119 q 554 82 582 99 q 493 51 526 65 q 411 18 451 33 q 340 -1 371 3 q 290 7 308 -6 q 259 81 269 28 q 251 202 249 133 q 269 335 254 271 q 282 372 276 350 q 286 399 288 393 q 292 414 286 399 q 301 435 299 429 q 358 551 321 494 q 451 682 396 608 q 546 788 494 740 q 629 850 597 836 q 663 864 653 863 q 679 860 674 865 q 688 823 692 847 q 672 740 683 799 q 653 697 667 724 q 625 646 639 669 q 603 613 611 622 q 598 607 597 611 q 611 579 599 603 q 645 557 631 561 q 678 569 660 553 q 729 636 707 596 q 764 722 751 676 q 776 808 776 767 q 761 878 776 849 q 714 928 746 911 q 645 944 682 946 q 578 921 608 943 q 501 867 531 889 q 447 822 471 846 q 397 764 424 799 q 331 669 371 729 q 281 592 304 632 q 247 529 258 553 q 231 493 242 517 q 213 449 221 469 q 203 425 206 429 q 170 316 181 369 q 160 190 160 263 q 163 100 158 139 q 182 21 168 61 q 215 -31 196 -12 q 255 -60 233 -50 q 297 -78 276 -69 m 639 1014 q 665 1037 649 1022 q 702 1067 682 1051 q 739 1092 722 1082 q 782 1052 760 1074 q 814 1018 804 1031 q 847 992 833 996 q 870 999 861 989 q 880 1023 879 1008 q 872 1049 881 1038 q 849 1074 869 1053 q 803 1119 828 1094 q 763 1157 779 1143 q 743 1170 754 1169 q 719 1160 732 1171 q 685 1136 706 1151 q 644 1103 664 1121 q 608 1071 624 1085 q 589 1051 593 1057 q 578 1015 574 1032 q 599 994 582 997 q 639 1014 615 990 "},"Ċ":{"ha":669,"x_min":158,"x_max":790,"o":"m 297 -78 q 377 -74 333 -85 q 464 -42 421 -62 q 536 1 507 -21 q 574 21 556 8 q 603 44 592 33 q 658 88 636 64 q 679 131 679 111 q 676 143 679 142 q 654 138 674 144 q 624 128 642 138 q 596 111 607 119 q 554 82 582 99 q 493 51 526 65 q 411 18 451 33 q 340 -1 371 3 q 290 7 308 -6 q 259 81 269 28 q 251 202 249 133 q 269 335 254 271 q 282 372 276 350 q 286 399 288 393 q 292 414 286 399 q 301 435 299 429 q 358 551 321 494 q 451 682 396 608 q 546 788 494 740 q 629 850 597 836 q 663 864 653 863 q 679 860 674 865 q 688 823 692 847 q 672 740 683 799 q 653 697 667 724 q 625 646 639 669 q 603 613 611 622 q 598 607 597 611 q 611 579 599 603 q 645 557 631 561 q 678 569 660 553 q 729 636 707 596 q 764 722 751 676 q 776 808 776 767 q 761 878 776 849 q 714 928 746 911 q 645 944 682 946 q 578 921 608 943 q 501 867 531 889 q 447 822 471 846 q 397 764 424 799 q 331 669 371 729 q 281 592 304 632 q 247 529 258 553 q 231 493 242 517 q 213 449 221 469 q 203 425 206 429 q 170 316 181 369 q 160 190 160 263 q 163 100 158 139 q 182 21 168 61 q 215 -31 196 -12 q 255 -60 233 -50 q 297 -78 276 -69 m 679 1025 q 716 1013 699 1010 q 754 1043 733 1015 q 785 1091 779 1074 q 778 1135 790 1108 q 748 1165 764 1157 q 715 1161 732 1172 q 705 1153 710 1160 q 696 1144 700 1147 q 669 1108 678 1129 q 658 1079 661 1086 q 663 1054 657 1074 q 679 1025 669 1035 "},"D":{"ha":803,"x_min":110,"x_max":903,"o":"m 313 -132 q 360 -118 333 -128 q 411 -98 388 -108 q 442 -82 435 -87 q 471 -69 456 -75 q 500 -53 486 -62 q 559 -21 528 -42 q 620 24 590 0 q 674 72 650 49 q 708 111 697 94 q 710 117 708 117 q 713 117 713 117 q 725 123 718 117 q 733 139 732 129 q 752 160 740 144 q 769 181 764 176 q 785 207 785 200 q 784 210 779 208 q 794 213 789 213 q 825 270 808 236 q 856 343 842 304 q 872 418 869 382 q 888 465 879 438 q 897 496 896 492 q 892 506 892 499 q 896 519 893 514 q 902 556 903 528 q 897 615 901 585 q 889 663 893 646 q 834 779 875 724 q 744 876 793 835 q 650 933 694 917 q 581 960 613 947 q 513 975 549 972 q 441 976 478 978 q 373 968 404 974 q 322 955 342 963 q 301 939 303 947 q 302 930 301 939 q 306 915 303 921 q 320 896 308 907 q 347 878 332 885 q 371 874 363 871 q 383 870 374 872 q 408 874 392 868 l 424 867 l 414 821 q 378 725 392 768 q 357 664 364 682 q 342 627 353 656 q 319 563 331 599 q 296 490 307 526 q 268 401 278 425 q 251 349 263 383 q 228 273 240 314 q 205 194 215 232 q 188 129 194 156 q 177 75 176 89 q 182 46 178 61 q 205 31 190 38 q 231 25 219 25 q 242 33 242 25 q 247 38 246 38 q 247 39 247 39 q 258 62 253 38 q 276 133 264 86 q 297 263 288 224 q 321 325 306 301 q 328 353 321 332 q 344 404 335 375 q 363 460 354 433 q 413 599 386 525 q 464 738 440 672 q 505 845 488 803 q 528 889 522 888 q 553 883 532 890 q 604 865 575 876 q 660 840 633 854 q 703 813 688 825 q 777 727 747 775 q 817 613 807 679 q 807 449 826 546 q 779 369 799 413 q 741 290 760 325 q 711 243 722 254 q 708 227 711 235 q 703 207 706 219 q 681 186 699 204 q 645 150 664 168 q 618 124 626 132 q 599 116 607 119 q 589 107 592 113 q 544 78 589 107 q 426 -1 500 49 q 385 -24 411 -12 q 331 -42 358 -35 q 283 -54 303 -50 q 210 -53 238 -60 q 163 -25 182 -46 q 145 -6 154 -14 q 132 3 136 1 q 114 -3 118 7 q 116 -33 110 -14 q 138 -74 122 -51 q 167 -110 158 -100 q 199 -126 176 -119 q 264 -137 242 -137 q 313 -132 286 -136 "},"Ð":{"ha":803,"x_min":110,"x_max":903,"o":"m 313 -132 q 360 -118 333 -128 q 411 -98 388 -108 q 442 -82 435 -87 q 471 -69 456 -75 q 500 -53 486 -62 q 559 -21 528 -42 q 620 24 590 0 q 674 72 650 49 q 708 111 697 94 q 710 117 708 117 q 713 117 713 117 q 725 123 718 117 q 733 139 732 129 q 752 160 740 144 q 769 181 764 176 q 781 197 778 192 q 785 207 785 201 q 784 210 779 208 q 794 213 789 213 q 825 270 808 236 q 856 343 842 304 q 872 418 869 382 q 888 465 879 438 q 897 496 896 492 q 892 506 892 499 q 896 519 893 514 q 902 556 903 528 q 897 615 901 585 q 889 663 893 646 q 834 779 875 724 q 744 876 793 835 q 650 933 694 917 q 581 960 613 947 q 513 975 549 972 q 417 974 465 979 q 336 960 369 969 q 301 939 303 950 q 302 930 301 939 q 306 915 303 921 q 320 896 308 907 q 347 878 332 885 q 371 874 363 871 q 383 870 374 872 q 408 874 392 868 l 424 867 l 414 821 q 378 725 392 768 q 357 664 364 682 q 342 627 353 656 q 319 563 331 599 q 296 490 307 526 q 294 487 294 489 q 293 482 294 485 q 259 478 276 481 q 222 472 242 475 q 164 459 175 467 q 165 431 153 451 q 178 417 171 421 q 206 414 185 414 q 230 409 218 410 q 250 408 242 408 l 271 408 q 269 405 269 407 q 268 401 269 403 q 251 349 263 383 q 228 273 240 314 q 205 194 215 232 q 188 129 194 156 q 177 75 176 89 q 182 46 178 61 q 205 31 190 38 q 231 25 219 25 q 242 33 242 25 l 247 39 q 258 62 253 38 q 276 133 264 86 q 297 263 288 224 q 321 325 306 301 q 330 357 321 332 q 349 413 339 382 q 357 414 353 414 q 364 414 361 414 q 413 415 389 414 q 447 418 438 417 q 483 433 478 415 q 469 471 488 450 q 442 485 454 482 q 397 488 429 488 l 372 488 q 421 621 396 551 q 469 751 446 690 q 508 849 492 811 q 528 889 524 888 q 553 883 532 890 q 604 865 575 876 q 660 840 633 854 q 703 813 688 825 q 777 727 747 775 q 817 613 807 679 q 807 449 826 546 q 779 369 799 413 q 741 290 760 325 q 711 243 722 254 q 708 227 711 235 q 703 207 706 219 q 681 186 699 204 q 645 150 664 168 q 618 124 626 132 q 599 116 607 119 q 589 107 592 113 q 544 78 589 107 q 426 -1 500 49 q 385 -24 411 -12 q 331 -42 358 -35 q 283 -54 303 -50 q 210 -53 238 -60 q 163 -25 182 -46 q 145 -6 154 -14 q 132 3 136 1 q 113 -16 110 10 q 138 -74 115 -42 q 160 -101 151 -90 q 176 -117 168 -111 q 199 -126 185 -122 q 264 -137 242 -137 q 313 -132 286 -136 "},"Ď":{"ha":803,"x_min":110,"x_max":942,"o":"m 313 -132 q 360 -118 333 -128 q 411 -98 388 -108 q 442 -82 435 -87 q 471 -69 456 -75 q 500 -53 486 -62 q 559 -21 528 -42 q 620 24 590 0 q 674 72 650 49 q 708 111 697 94 q 710 117 708 117 q 713 117 713 117 q 725 123 718 117 q 733 139 732 129 q 752 160 740 144 q 769 181 764 176 q 785 207 785 200 q 784 210 779 208 q 794 213 789 213 q 825 270 808 236 q 856 343 842 304 q 872 418 869 382 q 888 465 879 438 q 897 496 896 492 q 892 506 892 499 q 896 519 893 514 q 902 556 903 528 q 897 615 901 585 q 889 663 893 646 q 834 779 875 724 q 744 876 793 835 q 650 933 694 917 q 581 960 613 947 q 513 975 549 972 q 441 976 478 978 q 373 968 404 974 q 322 955 342 963 q 301 939 303 947 q 302 930 301 939 q 306 915 303 921 q 320 896 308 907 q 347 878 332 885 q 371 874 363 871 q 383 870 374 872 q 408 874 392 868 l 424 867 l 414 821 q 378 725 392 768 q 357 664 364 682 q 342 627 353 656 q 319 563 331 599 q 296 490 307 526 q 268 401 278 425 q 251 349 263 383 q 228 273 240 314 q 205 194 215 232 q 188 129 194 156 q 177 75 176 89 q 182 46 178 61 q 205 31 190 38 q 231 25 219 25 q 242 33 242 25 q 247 38 246 38 q 247 39 247 39 q 258 62 253 38 q 276 133 264 86 q 297 263 288 224 q 321 325 306 301 q 328 353 321 332 q 344 404 335 375 q 363 460 354 433 q 413 599 386 525 q 464 738 440 672 q 505 845 488 803 q 528 889 522 888 q 553 883 532 890 q 604 865 575 876 q 660 840 633 854 q 703 813 688 825 q 777 727 747 775 q 817 613 807 679 q 807 449 826 546 q 779 369 799 413 q 741 290 760 325 q 711 243 722 254 q 708 227 711 235 q 703 207 706 219 q 681 186 699 204 q 645 150 664 168 q 618 124 626 132 q 599 116 607 119 q 589 107 592 113 q 544 78 589 107 q 426 -1 500 49 q 385 -24 411 -12 q 331 -42 358 -35 q 283 -54 303 -50 q 210 -53 238 -60 q 163 -25 182 -46 q 145 -6 154 -14 q 132 3 136 1 q 114 -3 118 7 q 116 -33 110 -14 q 138 -74 122 -51 q 167 -110 158 -100 q 199 -126 176 -119 q 264 -137 242 -137 q 313 -132 286 -136 m 790 997 q 828 1022 806 1006 q 876 1056 851 1038 q 917 1090 900 1074 q 936 1111 935 1106 q 939 1139 942 1124 q 921 1158 936 1154 q 872 1136 906 1161 q 845 1115 863 1128 q 808 1090 828 1103 q 772 1068 789 1078 q 727 1106 750 1088 q 694 1139 704 1125 q 657 1161 672 1165 q 637 1140 642 1157 q 636 1110 632 1124 q 660 1085 639 1106 q 706 1040 681 1064 q 749 1000 732 1015 q 768 990 757 990 q 790 997 779 989 "},"Đ":{"ha":803,"x_min":110,"x_max":903,"o":"m 313 -132 q 360 -118 333 -128 q 411 -98 388 -108 q 442 -82 435 -87 q 471 -69 456 -75 q 500 -53 486 -62 q 559 -21 528 -42 q 620 24 590 0 q 674 72 650 49 q 708 111 697 94 q 710 117 708 117 q 713 117 713 117 q 725 123 718 117 q 733 139 732 129 q 752 160 740 144 q 769 181 764 176 q 781 197 778 192 q 785 207 785 201 q 784 210 779 208 q 794 213 789 213 q 825 270 808 236 q 856 343 842 304 q 872 418 869 382 q 888 465 879 438 q 897 496 896 492 q 892 506 892 499 q 896 519 893 514 q 902 556 903 528 q 897 615 901 585 q 889 663 893 646 q 834 779 875 724 q 744 876 793 835 q 650 933 694 917 q 581 960 613 947 q 513 975 549 972 q 417 974 465 979 q 336 960 369 969 q 301 939 303 950 q 302 930 301 939 q 306 915 303 921 q 320 896 308 907 q 347 878 332 885 q 371 874 363 871 q 383 870 374 872 q 408 874 392 868 l 424 867 l 414 821 q 378 725 392 768 q 357 664 364 682 q 342 627 353 656 q 319 563 331 599 q 296 490 307 526 q 294 487 294 489 q 293 482 294 485 q 259 478 276 481 q 222 472 242 475 q 164 459 175 467 q 165 431 153 451 q 178 417 171 421 q 206 414 185 414 q 230 409 218 410 q 250 408 242 408 l 271 408 q 269 405 269 407 q 268 401 269 403 q 251 349 263 383 q 228 273 240 314 q 205 194 215 232 q 188 129 194 156 q 177 75 176 89 q 182 46 178 61 q 205 31 190 38 q 231 25 219 25 q 242 33 242 25 l 247 39 q 258 62 253 38 q 276 133 264 86 q 297 263 288 224 q 321 325 306 301 q 330 357 321 332 q 349 413 339 382 q 357 414 353 414 q 364 414 361 414 q 413 415 389 414 q 447 418 438 417 q 483 433 478 415 q 469 471 488 450 q 442 485 454 482 q 397 488 429 488 l 372 488 q 421 621 396 551 q 469 751 446 690 q 508 849 492 811 q 528 889 524 888 q 553 883 532 890 q 604 865 575 876 q 660 840 633 854 q 703 813 688 825 q 777 727 747 775 q 817 613 807 679 q 807 449 826 546 q 779 369 799 413 q 741 290 760 325 q 711 243 722 254 q 708 227 711 235 q 703 207 706 219 q 681 186 699 204 q 645 150 664 168 q 618 124 626 132 q 599 116 607 119 q 589 107 592 113 q 544 78 589 107 q 426 -1 500 49 q 385 -24 411 -12 q 331 -42 358 -35 q 283 -54 303 -50 q 210 -53 238 -60 q 163 -25 182 -46 q 145 -6 154 -14 q 132 3 136 1 q 113 -16 110 10 q 138 -74 115 -42 q 160 -101 151 -90 q 176 -117 168 -111 q 199 -126 185 -122 q 264 -137 242 -137 q 313 -132 286 -136 "},"Ḍ":{"ha":803,"x_min":110,"x_max":903,"o":"m 313 -132 q 360 -118 333 -128 q 411 -98 388 -108 q 442 -82 435 -87 q 471 -69 456 -75 q 500 -53 486 -62 q 559 -21 528 -42 q 620 24 590 0 q 674 72 650 49 q 708 111 697 94 q 710 117 708 117 q 713 117 713 117 q 725 123 718 117 q 733 139 732 129 q 752 160 740 144 q 769 181 764 176 q 785 207 785 200 q 784 210 779 208 q 794 213 789 213 q 825 270 808 236 q 856 343 842 304 q 872 418 869 382 q 888 465 879 438 q 897 496 896 492 q 892 506 892 499 q 896 519 893 514 q 902 556 903 528 q 897 615 901 585 q 889 663 893 646 q 834 779 875 724 q 744 876 793 835 q 650 933 694 917 q 581 960 613 947 q 513 975 549 972 q 441 976 478 978 q 373 968 404 974 q 322 955 342 963 q 301 939 303 947 q 302 930 301 939 q 306 915 303 921 q 320 896 308 907 q 347 878 332 885 q 371 874 363 871 q 383 870 374 872 q 408 874 392 868 l 424 867 l 414 821 q 378 725 392 768 q 357 664 364 682 q 342 627 353 656 q 319 563 331 599 q 296 490 307 526 q 268 401 278 425 q 251 349 263 383 q 228 273 240 314 q 205 194 215 232 q 188 129 194 156 q 177 75 176 89 q 182 46 178 61 q 205 31 190 38 q 231 25 219 25 q 242 33 242 25 q 247 38 246 38 q 247 39 247 39 q 258 62 253 38 q 276 133 264 86 q 297 263 288 224 q 321 325 306 301 q 328 353 321 332 q 344 404 335 375 q 363 460 354 433 q 413 599 386 525 q 464 738 440 672 q 505 845 488 803 q 528 889 522 888 q 553 883 532 890 q 604 865 575 876 q 660 840 633 854 q 703 813 688 825 q 777 727 747 775 q 817 613 807 679 q 807 449 826 546 q 779 369 799 413 q 741 290 760 325 q 711 243 722 254 q 708 227 711 235 q 703 207 706 219 q 681 186 699 204 q 645 150 664 168 q 618 124 626 132 q 599 116 607 119 q 589 107 592 113 q 544 78 589 107 q 426 -1 500 49 q 385 -24 411 -12 q 331 -42 358 -35 q 283 -54 303 -50 q 210 -53 238 -60 q 163 -25 182 -46 q 145 -6 154 -14 q 132 3 136 1 q 114 -3 118 7 q 116 -33 110 -14 q 138 -74 122 -51 q 167 -110 158 -100 q 199 -126 176 -119 q 264 -137 242 -137 q 313 -132 286 -136 m 326 -300 q 353 -312 338 -315 q 390 -282 369 -310 q 410 -247 406 -261 q 401 -214 414 -232 q 382 -185 396 -193 q 351 -189 368 -178 q 341 -197 346 -190 q 332 -206 336 -203 q 317 -231 324 -211 q 307 -258 310 -251 q 311 -277 306 -264 q 326 -300 317 -290 "},"E":{"ha":735,"x_min":111,"x_max":885,"o":"m 321 -33 q 475 -16 389 -32 q 635 39 561 0 q 710 94 681 65 q 750 147 739 122 q 753 185 761 171 q 731 185 751 192 q 686 165 711 178 q 646 139 661 153 q 624 119 632 125 q 621 119 617 113 q 610 119 614 119 q 596 113 607 118 q 542 92 589 107 q 413 63 494 76 q 353 51 379 49 q 299 56 326 54 q 233 88 251 69 q 204 139 215 107 q 201 185 199 154 q 210 253 203 217 q 229 321 218 289 q 252 372 240 353 q 274 385 264 390 q 325 361 271 357 q 456 388 379 365 q 601 428 546 413 q 685 454 657 443 q 720 476 714 465 q 719 503 726 488 q 690 533 708 524 q 651 528 671 543 q 612 520 638 526 q 537 501 586 514 q 401 467 488 489 q 369 461 389 464 q 335 451 349 458 q 314 456 329 451 q 299 460 299 460 q 322 506 293 467 q 389 600 350 546 q 419 658 404 629 q 444 694 435 688 q 482 744 465 726 q 521 770 499 761 q 578 786 543 779 q 660 802 626 797 q 724 810 693 807 q 796 819 754 814 q 869 839 853 826 q 875 876 885 851 q 851 907 864 901 q 828 910 838 913 q 816 908 828 910 q 787 906 804 907 q 751 907 769 906 q 691 898 717 903 q 658 885 665 893 q 620 877 642 882 q 583 870 599 872 q 567 872 567 868 q 530 885 561 888 q 465 857 499 883 q 408 821 433 839 q 371 789 383 803 q 361 769 358 775 q 365 747 368 761 q 342 711 363 733 q 316 660 331 689 q 301 625 301 632 q 302 624 301 625 q 293 614 303 624 q 252 548 278 589 q 201 462 226 507 q 158 378 175 417 q 135 312 147 353 q 117 231 122 271 q 117 164 111 190 q 139 92 125 119 q 176 42 153 65 q 245 -7 213 17 q 321 -33 278 -31 "},"É":{"ha":761,"x_min":111,"x_max":885,"o":"m 321 -33 q 475 -16 389 -32 q 635 39 561 0 q 710 94 681 65 q 750 147 739 122 q 753 185 761 171 q 731 185 751 192 q 686 165 711 178 q 646 139 661 153 q 624 119 632 125 q 621 119 617 113 q 610 119 614 119 q 596 113 607 118 q 542 92 589 107 q 413 63 494 76 q 353 51 379 49 q 299 56 326 54 q 233 88 251 69 q 204 139 215 107 q 201 185 199 154 q 210 253 203 217 q 229 321 218 289 q 252 372 240 353 q 274 385 264 390 q 325 361 271 357 q 456 388 379 365 q 601 428 546 413 q 685 454 657 443 q 720 476 714 465 q 719 503 726 488 q 690 533 708 524 q 651 528 671 543 q 612 520 638 526 q 537 501 586 514 q 401 467 488 489 q 369 461 389 464 q 335 451 349 458 q 314 456 329 451 q 299 460 299 460 q 322 506 293 467 q 389 600 350 546 q 419 658 404 629 q 444 694 435 688 q 482 744 465 726 q 521 770 499 761 q 578 786 543 779 q 660 802 626 797 q 724 810 693 807 q 796 819 754 814 q 869 839 853 826 q 875 876 885 851 q 851 907 864 901 q 828 910 838 913 q 816 908 828 910 q 787 906 804 907 q 751 907 769 906 q 691 898 717 903 q 658 885 665 893 q 620 877 642 882 q 583 870 599 872 q 567 872 567 868 q 530 885 561 888 q 465 857 499 883 q 408 821 433 839 q 371 789 383 803 q 361 769 358 775 q 365 747 368 761 q 342 711 363 733 q 316 660 331 689 q 301 625 301 632 q 302 624 301 625 q 293 614 303 624 q 252 548 278 589 q 201 462 226 507 q 158 378 175 417 q 135 312 147 353 q 117 231 122 271 q 117 164 111 190 q 139 92 125 119 q 176 42 153 65 q 245 -7 213 17 q 321 -33 278 -31 m 701 992 q 726 983 718 979 q 747 1010 733 988 q 781 1044 758 1025 q 828 1082 804 1063 q 866 1119 851 1101 q 876 1149 881 1136 q 849 1184 863 1171 q 819 1188 835 1197 q 788 1164 810 1183 q 743 1119 767 1144 q 702 1074 719 1094 q 683 1046 685 1053 q 687 1021 682 1040 q 701 992 692 1001 "},"Ĕ":{"ha":761,"x_min":111,"x_max":933,"o":"m 321 -33 q 475 -16 389 -32 q 635 39 561 0 q 710 94 681 65 q 750 147 739 122 q 753 185 761 171 q 731 185 751 192 q 686 165 711 178 q 646 139 661 153 q 624 119 632 125 q 621 119 617 113 q 610 119 614 119 q 596 113 607 118 q 542 92 589 107 q 413 63 494 76 q 353 51 379 49 q 299 56 326 54 q 233 88 251 69 q 204 139 215 107 q 201 185 199 154 q 210 253 203 217 q 229 321 218 289 q 252 372 240 353 q 274 385 264 390 q 325 361 271 357 q 456 388 379 365 q 601 428 546 413 q 685 454 657 443 q 720 476 714 465 q 719 503 726 488 q 690 533 708 524 q 651 528 671 543 q 612 520 638 526 q 537 501 586 514 q 401 467 488 489 q 369 461 389 464 q 335 451 349 458 q 314 456 329 451 q 299 460 299 460 q 322 506 293 467 q 389 600 350 546 q 419 658 404 629 q 444 694 435 688 q 482 744 465 726 q 521 770 499 761 q 578 786 543 779 q 660 802 626 797 q 724 810 693 807 q 796 819 754 814 q 869 839 853 826 q 875 876 885 851 q 851 907 864 901 q 828 910 838 913 q 816 908 828 910 q 787 906 804 907 q 751 907 769 906 q 691 898 717 903 q 658 885 665 893 q 620 877 642 882 q 583 870 599 872 q 567 872 567 868 q 530 885 561 888 q 465 857 499 883 q 408 821 433 839 q 371 789 383 803 q 361 769 358 775 q 365 747 368 761 q 342 711 363 733 q 316 660 331 689 q 301 625 301 632 q 302 624 301 625 q 293 614 303 624 q 252 548 278 589 q 201 462 226 507 q 158 378 175 417 q 135 312 147 353 q 117 231 122 271 q 117 164 111 190 q 139 92 125 119 q 176 42 153 65 q 245 -7 213 17 q 321 -33 278 -31 m 746 974 q 816 987 783 971 q 873 1028 849 1003 q 912 1077 897 1053 q 931 1114 926 1101 q 930 1137 933 1124 q 917 1158 926 1150 q 896 1160 908 1165 q 868 1128 883 1154 q 842 1092 860 1114 q 805 1053 825 1069 q 767 1035 785 1036 q 707 1051 725 1033 q 686 1092 689 1068 q 688 1131 683 1115 q 687 1165 694 1154 q 666 1176 679 1176 q 640 1161 653 1175 q 624 1122 628 1147 q 628 1049 617 1081 q 671 997 640 1017 q 746 974 701 978 "},"Ě":{"ha":761,"x_min":111,"x_max":922,"o":"m 321 -33 q 475 -16 389 -32 q 635 39 561 0 q 710 94 681 65 q 750 147 739 122 q 753 185 761 171 q 731 185 751 192 q 686 165 711 178 q 646 139 661 153 q 624 119 632 125 q 621 119 617 113 q 610 119 614 119 q 596 113 607 118 q 542 92 589 107 q 413 63 494 76 q 353 51 379 49 q 299 56 326 54 q 233 88 251 69 q 204 139 215 107 q 201 185 199 154 q 210 253 203 217 q 229 321 218 289 q 252 372 240 353 q 274 385 264 390 q 325 361 271 357 q 456 388 379 365 q 601 428 546 413 q 685 454 657 443 q 720 476 714 465 q 719 503 726 488 q 690 533 708 524 q 651 528 671 543 q 612 520 638 526 q 537 501 586 514 q 401 467 488 489 q 369 461 389 464 q 335 451 349 458 q 314 456 329 451 q 299 460 299 460 q 322 506 293 467 q 389 600 350 546 q 419 658 404 629 q 444 694 435 688 q 482 744 465 726 q 521 770 499 761 q 578 786 543 779 q 660 802 626 797 q 724 810 693 807 q 796 819 754 814 q 869 839 853 826 q 875 876 885 851 q 851 907 864 901 q 828 910 838 913 q 816 908 828 910 q 787 906 804 907 q 751 907 769 906 q 691 898 717 903 q 658 885 665 893 q 620 877 642 882 q 583 870 599 872 q 567 872 567 868 q 530 885 561 888 q 465 857 499 883 q 408 821 433 839 q 371 789 383 803 q 361 769 358 775 q 365 747 368 761 q 342 711 363 733 q 316 660 331 689 q 301 625 301 632 q 302 624 301 625 q 293 614 303 624 q 252 548 278 589 q 201 462 226 507 q 158 378 175 417 q 135 312 147 353 q 117 231 122 271 q 117 164 111 190 q 139 92 125 119 q 176 42 153 65 q 245 -7 213 17 q 321 -33 278 -31 m 771 997 q 809 1022 786 1006 q 856 1056 832 1038 q 898 1090 881 1074 q 917 1111 915 1106 q 919 1139 922 1124 q 901 1158 917 1154 q 853 1136 886 1161 q 826 1115 843 1128 q 789 1090 808 1103 q 753 1068 769 1078 q 708 1106 731 1088 q 675 1139 685 1125 q 638 1161 653 1165 q 617 1140 622 1157 q 617 1110 613 1124 q 640 1085 619 1106 q 687 1040 661 1064 q 729 1000 713 1015 q 749 990 738 990 q 771 997 760 989 "},"Ê":{"ha":761,"x_min":111,"x_max":928,"o":"m 321 -33 q 475 -16 389 -32 q 635 39 561 0 q 710 94 681 65 q 750 147 739 122 q 753 185 761 171 q 731 185 751 192 q 686 165 711 178 q 646 139 661 153 q 624 119 632 125 q 621 119 617 113 q 610 119 614 119 q 596 113 607 118 q 542 92 589 107 q 413 63 494 76 q 353 51 379 49 q 299 56 326 54 q 233 88 251 69 q 204 139 215 107 q 201 185 199 154 q 210 253 203 217 q 229 321 218 289 q 252 372 240 353 q 274 385 264 390 q 325 361 271 357 q 456 388 379 365 q 601 428 546 413 q 685 454 657 443 q 720 476 714 465 q 719 503 726 488 q 690 533 708 524 q 651 528 671 543 q 612 520 638 526 q 537 501 586 514 q 401 467 488 489 q 369 461 389 464 q 335 451 349 458 q 314 456 329 451 q 299 460 299 460 q 322 506 293 467 q 389 600 350 546 q 419 658 404 629 q 444 694 435 688 q 482 744 465 726 q 521 770 499 761 q 578 786 543 779 q 660 802 626 797 q 724 810 693 807 q 796 819 754 814 q 869 839 853 826 q 875 876 885 851 q 851 907 864 901 q 828 910 838 913 q 816 908 828 910 q 787 906 804 907 q 751 907 769 906 q 691 898 717 903 q 658 885 665 893 q 620 877 642 882 q 583 870 599 872 q 567 872 567 868 q 530 885 561 888 q 465 857 499 883 q 408 821 433 839 q 371 789 383 803 q 361 769 358 775 q 365 747 368 761 q 342 711 363 733 q 316 660 331 689 q 301 625 301 632 q 302 624 301 625 q 293 614 303 624 q 252 548 278 589 q 201 462 226 507 q 158 378 175 417 q 135 312 147 353 q 117 231 122 271 q 117 164 111 190 q 139 92 125 119 q 176 42 153 65 q 245 -7 213 17 q 321 -33 278 -31 m 686 1014 q 713 1037 696 1022 q 749 1067 729 1051 q 786 1092 769 1082 q 829 1052 807 1074 q 861 1018 851 1031 q 894 992 881 996 q 917 999 908 989 q 927 1023 926 1008 q 919 1049 928 1038 q 896 1074 917 1053 q 851 1119 875 1094 q 810 1157 826 1143 q 790 1170 801 1169 q 767 1160 779 1171 q 732 1136 753 1151 q 691 1103 711 1121 q 656 1071 671 1085 q 636 1051 640 1057 q 625 1015 621 1032 q 646 994 629 997 q 686 1014 663 990 "},"Ȅ":{"ha":761,"x_min":111,"x_max":885,"o":"m 321 -33 q 475 -16 389 -32 q 635 39 561 0 q 710 94 681 65 q 750 147 739 122 q 753 185 761 171 q 731 185 751 192 q 686 165 711 178 q 646 139 661 153 q 624 119 632 125 q 621 119 617 113 q 610 119 614 119 q 596 113 607 118 q 542 92 589 107 q 413 63 494 76 q 353 51 379 49 q 299 56 326 54 q 233 88 251 69 q 204 139 215 107 q 201 185 199 154 q 210 253 203 217 q 229 321 218 289 q 252 372 240 353 q 274 385 264 390 q 325 361 271 357 q 456 388 379 365 q 601 428 546 413 q 685 454 657 443 q 720 476 714 465 q 719 503 726 488 q 690 533 708 524 q 651 528 671 543 q 612 520 638 526 q 537 501 586 514 q 401 467 488 489 q 369 461 389 464 q 335 451 349 458 q 314 456 329 451 q 299 460 299 460 q 322 506 293 467 q 389 600 350 546 q 419 658 404 629 q 444 694 435 688 q 482 744 465 726 q 521 770 499 761 q 578 786 543 779 q 660 802 626 797 q 724 810 693 807 q 796 819 754 814 q 869 839 853 826 q 875 876 885 851 q 851 907 864 901 q 828 910 838 913 q 816 908 828 910 q 787 906 804 907 q 751 907 769 906 q 691 898 717 903 q 658 885 665 893 q 620 877 642 882 q 583 870 599 872 q 567 872 567 868 q 530 885 561 888 q 465 857 499 883 q 408 821 433 839 q 371 789 383 803 q 361 769 358 775 q 365 747 368 761 q 342 711 363 733 q 316 660 331 689 q 301 625 301 632 q 302 624 301 625 q 293 614 303 624 q 252 548 278 589 q 201 462 226 507 q 158 378 175 417 q 135 312 147 353 q 117 231 122 271 q 117 164 111 190 q 139 92 125 119 q 176 42 153 65 q 245 -7 213 17 q 321 -33 278 -31 m 635 999 q 649 1014 643 1004 q 660 1033 656 1024 q 663 1044 664 1042 q 651 1069 663 1049 q 625 1117 640 1090 q 594 1165 610 1143 q 571 1192 579 1186 q 546 1191 561 1199 q 517 1164 531 1183 q 520 1140 511 1157 q 545 1101 529 1122 q 577 1059 561 1079 q 600 1024 593 1039 q 615 997 608 1001 q 635 999 621 992 m 800 999 q 819 1023 811 1006 q 826 1044 828 1040 q 816 1069 826 1049 q 790 1117 806 1090 q 758 1165 774 1143 q 735 1192 743 1186 q 711 1191 725 1199 q 681 1164 697 1183 q 684 1140 675 1157 q 709 1101 693 1122 q 741 1059 725 1079 q 764 1024 757 1039 q 778 997 772 1001 q 800 999 785 992 "},"Ë":{"ha":761,"x_min":111,"x_max":921,"o":"m 321 -33 q 475 -16 389 -32 q 635 39 561 0 q 710 94 681 65 q 750 147 739 122 q 753 185 761 171 q 731 185 751 192 q 686 165 711 178 q 646 139 661 153 q 624 119 632 125 q 621 119 617 113 q 610 119 614 119 q 596 113 607 118 q 542 92 589 107 q 413 63 494 76 q 353 51 379 49 q 299 56 326 54 q 233 88 251 69 q 204 139 215 107 q 201 185 199 154 q 210 253 203 217 q 229 321 218 289 q 252 372 240 353 q 274 385 264 390 q 325 361 271 357 q 456 388 379 365 q 601 428 546 413 q 685 454 657 443 q 720 476 714 465 q 719 503 726 488 q 690 533 708 524 q 651 528 671 543 q 612 520 638 526 q 537 501 586 514 q 401 467 488 489 q 369 461 389 464 q 335 451 349 458 q 314 456 329 451 q 299 460 299 460 q 322 506 293 467 q 389 600 350 546 q 419 658 404 629 q 444 694 435 688 q 482 744 465 726 q 521 770 499 761 q 578 786 543 779 q 660 802 626 797 q 724 810 693 807 q 796 819 754 814 q 869 839 853 826 q 875 876 885 851 q 851 907 864 901 q 828 910 838 913 q 816 908 828 910 q 787 906 804 907 q 751 907 769 906 q 691 898 717 903 q 658 885 665 893 q 620 877 642 882 q 583 870 599 872 q 567 872 567 868 q 530 885 561 888 q 465 857 499 883 q 408 821 433 839 q 371 789 383 803 q 361 769 358 775 q 365 747 368 761 q 342 711 363 733 q 316 660 331 689 q 301 625 301 632 q 302 624 301 625 q 293 614 303 624 q 252 548 278 589 q 201 462 226 507 q 158 378 175 417 q 135 312 147 353 q 117 231 122 271 q 117 164 111 190 q 139 92 125 119 q 176 42 153 65 q 245 -7 213 17 q 321 -33 278 -31 m 828 1042 q 857 1028 840 1025 q 894 1060 874 1031 q 917 1098 913 1083 q 908 1132 921 1113 q 887 1163 901 1154 q 856 1158 872 1171 q 844 1151 850 1157 q 835 1142 839 1144 q 817 1113 825 1133 q 807 1086 810 1093 q 812 1066 806 1081 q 828 1042 818 1051 m 649 1042 q 676 1028 660 1025 q 715 1060 693 1031 q 738 1098 733 1083 q 729 1132 742 1113 q 716 1156 725 1147 q 697 1165 707 1164 q 675 1158 686 1167 q 665 1151 669 1157 q 656 1142 660 1144 q 638 1113 646 1133 q 628 1086 631 1093 q 633 1066 626 1081 q 649 1042 639 1051 "},"Ė":{"ha":761,"x_min":111,"x_max":885,"o":"m 321 -33 q 475 -16 389 -32 q 635 39 561 0 q 710 94 681 65 q 750 147 739 122 q 753 185 761 171 q 731 185 751 192 q 686 165 711 178 q 646 139 661 153 q 624 119 632 125 q 621 119 617 113 q 610 119 614 119 q 596 113 607 118 q 542 92 589 107 q 413 63 494 76 q 353 51 379 49 q 299 56 326 54 q 233 88 251 69 q 204 139 215 107 q 201 185 199 154 q 210 253 203 217 q 229 321 218 289 q 252 372 240 353 q 274 385 264 390 q 325 361 271 357 q 456 388 379 365 q 601 428 546 413 q 685 454 657 443 q 720 476 714 465 q 719 503 726 488 q 690 533 708 524 q 651 528 671 543 q 612 520 638 526 q 537 501 586 514 q 401 467 488 489 q 369 461 389 464 q 335 451 349 458 q 314 456 329 451 q 299 460 299 460 q 322 506 293 467 q 389 600 350 546 q 419 658 404 629 q 444 694 435 688 q 482 744 465 726 q 521 770 499 761 q 578 786 543 779 q 660 802 626 797 q 724 810 693 807 q 796 819 754 814 q 869 839 853 826 q 875 876 885 851 q 851 907 864 901 q 828 910 838 913 q 816 908 828 910 q 787 906 804 907 q 751 907 769 906 q 691 898 717 903 q 658 885 665 893 q 620 877 642 882 q 583 870 599 872 q 567 872 567 868 q 530 885 561 888 q 465 857 499 883 q 408 821 433 839 q 371 789 383 803 q 361 769 358 775 q 365 747 368 761 q 342 711 363 733 q 316 660 331 689 q 301 625 301 632 q 302 624 301 625 q 293 614 303 624 q 252 548 278 589 q 201 462 226 507 q 158 378 175 417 q 135 312 147 353 q 117 231 122 271 q 117 164 111 190 q 139 92 125 119 q 176 42 153 65 q 245 -7 213 17 q 321 -33 278 -31 m 726 1025 q 763 1013 746 1010 q 801 1043 781 1015 q 832 1091 826 1074 q 825 1135 838 1108 q 795 1165 811 1157 q 763 1161 779 1172 q 752 1153 757 1160 q 743 1144 747 1147 q 717 1108 725 1129 q 706 1079 708 1086 q 710 1054 704 1074 q 726 1025 717 1035 "},"Ẹ":{"ha":761,"x_min":111,"x_max":885,"o":"m 321 -33 q 475 -16 389 -32 q 635 39 561 0 q 710 94 681 65 q 750 147 739 122 q 753 185 761 171 q 731 185 751 192 q 686 165 711 178 q 646 139 661 153 q 624 119 632 125 q 621 119 617 113 q 610 119 614 119 q 596 113 607 118 q 542 92 589 107 q 413 63 494 76 q 353 51 379 49 q 299 56 326 54 q 233 88 251 69 q 204 139 215 107 q 201 185 199 154 q 210 253 203 217 q 229 321 218 289 q 252 372 240 353 q 274 385 264 390 q 325 361 271 357 q 456 388 379 365 q 601 428 546 413 q 685 454 657 443 q 720 476 714 465 q 719 503 726 488 q 690 533 708 524 q 651 528 671 543 q 612 520 638 526 q 537 501 586 514 q 401 467 488 489 q 369 461 389 464 q 335 451 349 458 q 314 456 329 451 q 299 460 299 460 q 322 506 293 467 q 389 600 350 546 q 419 658 404 629 q 444 694 435 688 q 482 744 465 726 q 521 770 499 761 q 578 786 543 779 q 660 802 626 797 q 724 810 693 807 q 796 819 754 814 q 869 839 853 826 q 875 876 885 851 q 851 907 864 901 q 828 910 838 913 q 816 908 828 910 q 787 906 804 907 q 751 907 769 906 q 691 898 717 903 q 658 885 665 893 q 620 877 642 882 q 583 870 599 872 q 567 872 567 868 q 530 885 561 888 q 465 857 499 883 q 408 821 433 839 q 371 789 383 803 q 361 769 358 775 q 365 747 368 761 q 342 711 363 733 q 316 660 331 689 q 301 625 301 632 q 302 624 301 625 q 293 614 303 624 q 252 548 278 589 q 201 462 226 507 q 158 378 175 417 q 135 312 147 353 q 117 231 122 271 q 117 164 111 190 q 139 92 125 119 q 176 42 153 65 q 245 -7 213 17 q 321 -33 278 -31 m 315 -214 q 342 -226 326 -229 q 379 -196 358 -224 q 399 -160 394 -175 q 390 -128 403 -146 q 371 -99 385 -107 q 340 -103 357 -92 q 330 -110 335 -104 q 321 -119 325 -117 q 306 -145 313 -125 q 296 -172 299 -165 q 300 -191 294 -178 q 315 -214 306 -204 "},"È":{"ha":761,"x_min":111,"x_max":885,"o":"m 321 -33 q 475 -16 389 -32 q 635 39 561 0 q 710 94 681 65 q 750 147 739 122 q 753 185 761 171 q 731 185 751 192 q 686 165 711 178 q 646 139 661 153 q 624 119 632 125 q 621 119 617 113 q 610 119 614 119 q 596 113 607 118 q 542 92 589 107 q 413 63 494 76 q 353 51 379 49 q 299 56 326 54 q 233 88 251 69 q 204 139 215 107 q 201 185 199 154 q 210 253 203 217 q 229 321 218 289 q 252 372 240 353 q 274 385 264 390 q 325 361 271 357 q 456 388 379 365 q 601 428 546 413 q 685 454 657 443 q 720 476 714 465 q 719 503 726 488 q 690 533 708 524 q 651 528 671 543 q 612 520 638 526 q 537 501 586 514 q 401 467 488 489 q 369 461 389 464 q 335 451 349 458 q 314 456 329 451 q 299 460 299 460 q 322 506 293 467 q 389 600 350 546 q 419 658 404 629 q 444 694 435 688 q 482 744 465 726 q 521 770 499 761 q 578 786 543 779 q 660 802 626 797 q 724 810 693 807 q 796 819 754 814 q 869 839 853 826 q 875 876 885 851 q 851 907 864 901 q 828 910 838 913 q 816 908 828 910 q 787 906 804 907 q 751 907 769 906 q 691 898 717 903 q 658 885 665 893 q 620 877 642 882 q 583 870 599 872 q 567 872 567 868 q 530 885 561 888 q 465 857 499 883 q 408 821 433 839 q 371 789 383 803 q 361 769 358 775 q 365 747 368 761 q 342 711 363 733 q 316 660 331 689 q 301 625 301 632 q 302 624 301 625 q 293 614 303 624 q 252 548 278 589 q 201 462 226 507 q 158 378 175 417 q 135 312 147 353 q 117 231 122 271 q 117 164 111 190 q 139 92 125 119 q 176 42 153 65 q 245 -7 213 17 q 321 -33 278 -31 m 797 988 q 817 1004 808 990 q 825 1024 826 1018 q 817 1056 825 1032 q 795 1110 808 1081 q 769 1162 782 1139 q 746 1190 756 1185 q 719 1197 732 1206 q 688 1174 706 1189 q 690 1128 676 1158 q 726 1065 704 1097 q 760 1010 749 1033 q 769 986 765 994 q 780 978 774 978 q 797 988 786 979 "},"Ȇ":{"ha":761,"x_min":111,"x_max":894,"o":"m 321 -33 q 475 -16 389 -32 q 635 39 561 0 q 710 94 681 65 q 750 147 739 122 q 753 185 761 171 q 731 185 751 192 q 686 165 711 178 q 646 139 661 153 q 624 119 632 125 q 621 119 617 113 q 610 119 614 119 q 596 113 607 118 q 542 92 589 107 q 413 63 494 76 q 353 51 379 49 q 299 56 326 54 q 233 88 251 69 q 204 139 215 107 q 201 185 199 154 q 210 253 203 217 q 229 321 218 289 q 252 372 240 353 q 274 385 264 390 q 325 361 271 357 q 456 388 379 365 q 601 428 546 413 q 685 454 657 443 q 720 476 714 465 q 719 503 726 488 q 690 533 708 524 q 651 528 671 543 q 612 520 638 526 q 537 501 586 514 q 401 467 488 489 q 369 461 389 464 q 335 451 349 458 q 314 456 329 451 q 299 460 299 460 q 322 506 293 467 q 389 600 350 546 q 419 658 404 629 q 444 694 435 688 q 482 744 465 726 q 521 770 499 761 q 578 786 543 779 q 660 802 626 797 q 724 810 693 807 q 796 819 754 814 q 869 839 853 826 q 875 876 885 851 q 851 907 864 901 q 828 910 838 913 q 816 908 828 910 q 787 906 804 907 q 751 907 769 906 q 691 898 717 903 q 658 885 665 893 q 620 877 642 882 q 583 870 599 872 q 567 872 567 868 q 530 885 561 888 q 465 857 499 883 q 408 821 433 839 q 371 789 383 803 q 361 769 358 775 q 365 747 368 761 q 342 711 363 733 q 316 660 331 689 q 301 625 301 632 q 302 624 301 625 q 293 614 303 624 q 252 548 278 589 q 201 462 226 507 q 158 378 175 417 q 135 312 147 353 q 117 231 122 271 q 117 164 111 190 q 139 92 125 119 q 176 42 153 65 q 245 -7 213 17 q 321 -33 278 -31 m 822 1014 q 828 974 814 983 q 861 976 842 964 q 886 1022 881 989 q 882 1096 894 1064 q 840 1148 869 1128 q 764 1171 810 1168 q 694 1158 726 1174 q 637 1117 661 1142 q 598 1067 613 1092 q 579 1031 583 1043 q 583 1001 576 1018 q 606 983 590 983 q 642 1017 622 982 q 667 1053 650 1032 q 705 1092 685 1075 q 743 1110 725 1110 q 803 1094 785 1111 q 824 1053 821 1076 q 822 1014 826 1031 "},"Ē":{"ha":761,"x_min":111,"x_max":949,"o":"m 321 -33 q 475 -16 389 -32 q 635 39 561 0 q 710 94 681 65 q 750 147 739 122 q 753 185 761 171 q 731 185 751 192 q 686 165 711 178 q 646 139 661 153 q 624 119 632 125 q 621 119 617 113 q 610 119 614 119 q 596 113 607 118 q 542 92 589 107 q 413 63 494 76 q 353 51 379 49 q 299 56 326 54 q 233 88 251 69 q 204 139 215 107 q 201 185 199 154 q 210 253 203 217 q 229 321 218 289 q 252 372 240 353 q 274 385 264 390 q 325 361 271 357 q 456 388 379 365 q 601 428 546 413 q 685 454 657 443 q 720 476 714 465 q 719 503 726 488 q 690 533 708 524 q 651 528 671 543 q 612 520 638 526 q 537 501 586 514 q 401 467 488 489 q 369 461 389 464 q 335 451 349 458 q 314 456 329 451 q 299 460 299 460 q 322 506 293 467 q 389 600 350 546 q 419 658 404 629 q 444 694 435 688 q 482 744 465 726 q 521 770 499 761 q 578 786 543 779 q 660 802 626 797 q 724 810 693 807 q 796 819 754 814 q 869 839 853 826 q 875 876 885 851 q 851 907 864 901 q 828 910 838 913 q 816 908 828 910 q 787 906 804 907 q 751 907 769 906 q 691 898 717 903 q 658 885 665 893 q 620 877 642 882 q 583 870 599 872 q 567 872 567 868 q 530 885 561 888 q 465 857 499 883 q 408 821 433 839 q 371 789 383 803 q 361 769 358 775 q 365 747 368 761 q 342 711 363 733 q 316 660 331 689 q 301 625 301 632 q 302 624 301 625 q 293 614 303 624 q 252 548 278 589 q 201 462 226 507 q 158 378 175 417 q 135 312 147 353 q 117 231 122 271 q 117 164 111 190 q 139 92 125 119 q 176 42 153 65 q 245 -7 213 17 q 321 -33 278 -31 m 656 1058 q 710 1060 681 1058 q 765 1063 740 1061 q 797 1064 789 1064 q 838 1065 814 1064 q 881 1067 861 1065 q 908 1068 901 1068 q 944 1083 939 1065 q 931 1121 949 1100 q 889 1135 915 1132 q 831 1138 863 1138 q 726 1133 778 1138 q 628 1122 675 1129 q 569 1109 581 1117 q 571 1081 558 1101 q 583 1067 576 1071 q 611 1064 590 1064 q 635 1059 624 1060 q 656 1058 647 1058 "},"Ę":{"ha":761,"x_min":111,"x_max":885,"o":"m 321 -33 q 475 -16 389 -32 q 635 39 561 0 q 710 94 681 65 q 750 147 739 122 q 753 185 761 171 q 731 185 751 192 q 686 165 711 178 q 646 139 661 153 q 624 119 632 125 q 621 119 617 113 q 610 119 614 119 q 596 113 607 118 q 542 92 589 107 q 413 63 494 76 q 353 51 379 49 q 299 56 326 54 q 233 88 251 69 q 204 139 215 107 q 201 185 199 154 q 210 253 203 217 q 229 321 218 289 q 252 372 240 353 q 274 385 264 390 q 325 361 271 357 q 456 388 379 365 q 601 428 546 413 q 685 454 657 443 q 720 476 714 465 q 719 503 726 488 q 690 533 708 524 q 651 528 671 543 q 612 520 638 526 q 537 501 586 514 q 401 467 488 489 q 369 461 389 464 q 335 451 349 458 q 314 456 329 451 q 299 460 299 460 q 322 506 293 467 q 389 600 350 546 q 419 658 404 629 q 444 694 435 688 q 482 744 465 726 q 521 770 499 761 q 578 786 543 779 q 660 802 626 797 q 724 810 693 807 q 796 819 754 814 q 869 839 853 826 q 875 876 885 851 q 851 907 864 901 q 828 910 838 913 q 816 908 828 910 q 787 906 804 907 q 751 907 769 906 q 691 898 717 903 q 658 885 665 893 q 620 877 642 882 q 583 870 599 872 q 567 872 567 868 q 530 885 561 888 q 465 857 499 883 q 408 821 433 839 q 371 789 383 803 q 361 769 358 775 q 365 747 368 761 q 342 711 363 733 q 316 660 331 689 q 301 625 301 632 q 302 624 301 625 q 293 614 303 624 q 252 548 278 589 q 201 462 226 507 q 158 378 175 417 q 135 312 147 353 q 117 231 122 271 q 117 164 111 190 q 139 92 125 119 q 176 42 153 65 q 245 -7 213 17 q 321 -33 278 -31 m 511 -226 q 547 -216 526 -224 q 589 -199 568 -208 q 626 -182 610 -190 q 649 -172 643 -174 q 672 -153 665 -165 q 676 -128 678 -140 q 664 -112 674 -117 q 636 -118 654 -108 q 579 -149 601 -135 q 525 -168 557 -162 q 500 -160 504 -168 q 498 -124 490 -144 q 525 -79 506 -103 q 592 -13 550 -49 q 665 40 635 22 l 624 82 q 557 33 593 63 q 490 -28 521 4 q 444 -93 460 -61 q 438 -148 432 -119 q 464 -197 444 -176 q 511 -226 483 -218 "},"Ẽ":{"ha":761,"x_min":111,"x_max":965,"o":"m 321 -33 q 475 -16 389 -32 q 635 39 561 0 q 710 94 681 65 q 750 147 739 122 q 753 185 761 171 q 731 185 751 192 q 686 165 711 178 q 646 139 661 153 q 624 119 632 125 q 621 119 617 113 q 610 119 614 119 q 596 113 607 118 q 542 92 589 107 q 413 63 494 76 q 353 51 379 49 q 299 56 326 54 q 233 88 251 69 q 204 139 215 107 q 201 185 199 154 q 210 253 203 217 q 229 321 218 289 q 252 372 240 353 q 274 385 264 390 q 325 361 271 357 q 456 388 379 365 q 601 428 546 413 q 685 454 657 443 q 720 476 714 465 q 719 503 726 488 q 690 533 708 524 q 651 528 671 543 q 612 520 638 526 q 537 501 586 514 q 401 467 488 489 q 369 461 389 464 q 335 451 349 458 q 314 456 329 451 q 299 460 299 460 q 322 506 293 467 q 389 600 350 546 q 419 658 404 629 q 444 694 435 688 q 482 744 465 726 q 521 770 499 761 q 578 786 543 779 q 660 802 626 797 q 724 810 693 807 q 796 819 754 814 q 869 839 853 826 q 875 876 885 851 q 851 907 864 901 q 828 910 838 913 q 816 908 828 910 q 787 906 804 907 q 751 907 769 906 q 691 898 717 903 q 658 885 665 893 q 620 877 642 882 q 583 870 599 872 q 567 872 567 868 q 530 885 561 888 q 465 857 499 883 q 408 821 433 839 q 371 789 383 803 q 361 769 358 775 q 365 747 368 761 q 342 711 363 733 q 316 660 331 689 q 301 625 301 632 q 302 624 301 625 q 293 614 303 624 q 252 548 278 589 q 201 462 226 507 q 158 378 175 417 q 135 312 147 353 q 117 231 122 271 q 117 164 111 190 q 139 92 125 119 q 176 42 153 65 q 245 -7 213 17 q 321 -33 278 -31 m 824 1013 q 838 1015 829 1013 q 869 1029 847 1018 q 933 1064 892 1040 q 955 1085 946 1071 q 964 1104 964 1099 q 961 1122 965 1113 q 949 1137 957 1132 q 931 1138 940 1142 q 877 1110 901 1126 q 832 1089 853 1094 q 789 1091 806 1078 q 740 1133 772 1104 q 688 1161 718 1154 q 642 1161 658 1168 q 575 1106 594 1138 q 554 1061 556 1074 q 560 1044 553 1054 q 582 1031 568 1035 q 592 1034 585 1024 q 600 1051 599 1044 q 624 1066 615 1054 q 641 1089 632 1078 q 664 1100 650 1100 q 701 1079 681 1100 q 735 1051 722 1058 q 778 1023 761 1033 q 824 1013 796 1013 "},"F":{"ha":631,"x_min":113,"x_max":900,"o":"m 710 439 q 712 460 714 447 q 704 484 710 472 q 692 500 699 496 q 662 499 685 503 q 618 492 639 496 q 520 484 574 488 q 423 481 467 481 q 360 486 379 481 q 374 519 363 489 q 402 590 386 550 q 432 665 418 631 q 451 710 446 700 q 478 765 464 746 q 497 783 492 783 q 522 790 500 783 q 571 797 543 796 q 705 810 647 808 q 822 804 763 813 q 885 805 872 803 q 899 819 897 807 q 900 829 900 824 q 897 841 900 835 q 885 851 894 847 q 875 858 882 854 q 874 858 868 861 q 876 863 874 858 q 872 874 878 868 q 851 883 864 881 q 808 890 838 885 q 783 885 801 885 q 740 882 764 886 q 680 886 718 889 q 617 881 642 883 q 544 867 569 871 q 508 867 518 864 q 496 874 499 869 q 483 883 492 881 q 465 885 474 886 q 451 881 457 885 q 444 871 444 878 q 439 860 444 865 q 426 851 433 856 q 403 851 418 854 q 363 842 389 847 q 330 834 342 836 q 308 829 318 832 q 274 813 288 828 q 258 776 261 799 q 269 760 258 764 q 294 757 281 756 q 308 759 300 758 q 332 763 315 760 q 376 767 365 764 q 378 754 382 767 q 369 722 375 742 q 361 697 367 713 q 353 675 356 681 q 346 656 353 674 q 331 612 339 638 q 313 562 322 586 q 300 524 304 538 q 276 478 286 493 q 258 458 265 464 q 247 442 249 447 q 247 421 246 436 q 236 381 240 403 q 217 333 232 360 q 188 266 203 307 q 160 182 174 225 q 137 103 147 139 q 122 50 126 68 q 115 9 113 19 q 133 -14 117 -1 q 161 -29 144 -26 q 179 -26 178 -32 q 189 1 186 -22 q 204 58 192 25 q 214 100 204 69 q 238 172 224 131 q 270 256 253 214 q 302 332 288 297 q 326 383 317 367 q 333 401 326 394 q 339 408 339 408 q 385 405 351 406 q 459 406 418 404 q 535 408 500 407 q 589 411 571 410 q 678 424 650 418 q 710 439 706 429 "},"G":{"ha":676,"x_min":158,"x_max":807,"o":"m 238 -43 q 333 -62 275 -69 q 447 -29 392 -54 q 512 8 474 -19 q 587 71 550 36 q 644 135 624 106 q 699 224 676 182 q 729 297 722 267 q 735 354 735 326 q 725 403 735 382 q 692 436 715 425 q 618 456 660 451 q 540 458 576 461 q 489 450 504 456 q 472 419 474 435 q 481 389 471 404 q 538 380 506 378 q 621 376 569 382 q 647 350 649 378 q 627 279 646 322 q 585 192 608 236 q 524 116 560 151 q 452 57 489 81 q 383 29 415 33 q 278 24 310 4 q 242 94 246 43 q 249 214 239 146 q 260 275 251 238 q 277 350 268 313 q 292 407 286 388 q 342 551 313 485 q 410 682 372 617 q 446 739 424 710 q 490 792 468 768 q 526 829 513 817 q 575 853 547 846 q 629 859 603 860 q 671 849 656 858 q 713 827 693 838 q 750 789 732 817 q 776 782 763 775 q 798 805 789 789 q 806 832 807 821 q 797 860 806 849 q 776 889 788 872 q 735 913 767 899 q 668 936 704 926 q 569 938 617 949 q 501 915 521 926 q 430 855 478 901 q 339 738 382 808 q 300 663 322 710 q 256 562 278 615 q 217 458 235 508 q 174 287 190 375 q 160 113 158 199 q 179 24 158 68 q 238 -43 200 -19 "},"Ǵ":{"ha":692,"x_min":158,"x_max":844,"o":"m 238 -43 q 333 -62 275 -69 q 447 -29 392 -54 q 512 8 474 -19 q 587 71 550 36 q 644 135 624 106 q 699 224 676 182 q 729 297 722 267 q 735 354 735 326 q 725 403 735 382 q 692 436 715 425 q 618 456 660 451 q 540 458 576 461 q 489 450 504 456 q 472 419 474 435 q 481 389 471 404 q 538 380 506 378 q 621 376 569 382 q 647 350 649 378 q 627 279 646 322 q 585 192 608 236 q 524 116 560 151 q 452 57 489 81 q 383 29 415 33 q 278 24 310 4 q 242 94 246 43 q 249 214 239 146 q 260 275 251 238 q 277 350 268 313 q 292 407 286 388 q 342 551 313 485 q 410 682 372 617 q 446 739 424 710 q 490 792 468 768 q 526 829 513 817 q 575 853 547 846 q 629 859 603 860 q 671 849 656 858 q 713 827 693 838 q 750 789 732 817 q 776 782 763 775 q 798 805 789 789 q 806 832 807 821 q 797 860 806 849 q 776 889 788 872 q 735 913 767 899 q 668 936 704 926 q 569 938 617 949 q 501 915 521 926 q 430 855 478 901 q 339 738 382 808 q 300 663 322 710 q 256 562 278 615 q 217 458 235 508 q 174 287 190 375 q 160 113 158 199 q 179 24 158 68 q 238 -43 200 -19 m 665 992 q 690 983 682 979 q 711 1010 697 988 q 745 1044 722 1025 q 792 1082 768 1063 q 830 1119 815 1101 q 840 1149 844 1136 q 813 1184 826 1171 q 783 1188 799 1197 q 752 1164 774 1183 q 707 1119 731 1144 q 666 1074 683 1094 q 647 1046 649 1053 q 651 1021 646 1040 q 665 992 656 1001 "},"Ğ":{"ha":692,"x_min":158,"x_max":897,"o":"m 238 -43 q 333 -62 275 -69 q 447 -29 392 -54 q 512 8 474 -19 q 587 71 550 36 q 644 135 624 106 q 699 224 676 182 q 729 297 722 267 q 735 354 735 326 q 725 403 735 382 q 692 436 715 425 q 618 456 660 451 q 540 458 576 461 q 489 450 504 456 q 472 419 474 435 q 481 389 471 404 q 538 380 506 378 q 621 376 569 382 q 647 350 649 378 q 627 279 646 322 q 585 192 608 236 q 524 116 560 151 q 452 57 489 81 q 383 29 415 33 q 278 24 310 4 q 242 94 246 43 q 249 214 239 146 q 260 275 251 238 q 277 350 268 313 q 292 407 286 388 q 342 551 313 485 q 410 682 372 617 q 446 739 424 710 q 490 792 468 768 q 526 829 513 817 q 575 853 547 846 q 629 859 603 860 q 671 849 656 858 q 713 827 693 838 q 750 789 732 817 q 776 782 763 775 q 798 805 789 789 q 806 832 807 821 q 797 860 806 849 q 776 889 788 872 q 735 913 767 899 q 668 936 704 926 q 569 938 617 949 q 501 915 521 926 q 430 855 478 901 q 339 738 382 808 q 300 663 322 710 q 256 562 278 615 q 217 458 235 508 q 174 287 190 375 q 160 113 158 199 q 179 24 158 68 q 238 -43 200 -19 m 710 974 q 780 987 747 971 q 837 1028 813 1003 q 876 1077 861 1053 q 894 1114 890 1101 q 894 1137 897 1124 q 881 1158 890 1150 q 860 1160 872 1165 q 832 1128 847 1154 q 806 1092 824 1114 q 769 1053 789 1069 q 731 1035 749 1036 q 671 1051 689 1033 q 650 1092 653 1068 q 651 1131 647 1115 q 651 1165 658 1154 q 630 1176 643 1176 q 604 1161 617 1175 q 588 1122 592 1147 q 592 1049 581 1081 q 635 997 604 1017 q 710 974 665 978 "},"Ĝ":{"ha":692,"x_min":158,"x_max":807,"o":"m 238 -43 q 333 -62 275 -69 q 447 -29 392 -54 q 512 8 474 -19 q 587 71 550 36 q 644 135 624 106 q 699 224 676 182 q 729 297 722 267 q 735 354 735 326 q 725 403 735 382 q 692 436 715 425 q 618 456 660 451 q 540 458 576 461 q 489 450 504 456 q 472 419 474 435 q 481 389 471 404 q 538 380 506 378 q 621 376 569 382 q 647 350 649 378 q 627 279 646 322 q 585 192 608 236 q 524 116 560 151 q 452 57 489 81 q 383 29 415 33 q 278 24 310 4 q 242 94 246 43 q 249 214 239 146 q 260 275 251 238 q 277 350 268 313 q 292 407 286 388 q 342 551 313 485 q 410 682 372 617 q 446 739 424 710 q 490 792 468 768 q 526 829 513 817 q 575 853 547 846 q 629 859 603 860 q 671 849 656 858 q 713 827 693 838 q 750 789 732 817 q 776 782 763 775 q 798 805 789 789 q 806 832 807 821 q 797 860 806 849 q 776 889 788 872 q 735 913 767 899 q 668 936 704 926 q 569 938 617 949 q 501 915 521 926 q 430 855 478 901 q 339 738 382 808 q 300 663 322 710 q 256 562 278 615 q 217 458 235 508 q 174 287 190 375 q 160 113 158 199 q 179 24 158 68 q 238 -43 200 -19 m 553 1014 q 579 1037 563 1022 q 616 1067 596 1051 q 653 1092 636 1082 q 696 1052 674 1074 q 728 1018 718 1031 q 761 992 747 996 q 784 999 775 989 q 794 1023 793 1008 q 786 1049 794 1038 q 763 1074 783 1053 q 717 1119 742 1094 q 676 1157 693 1143 q 657 1170 668 1169 q 633 1160 646 1171 q 599 1136 619 1151 q 558 1103 578 1121 q 522 1071 538 1085 q 503 1051 507 1057 q 492 1015 488 1032 q 513 994 496 997 q 553 1014 529 990 "},"Ģ":{"ha":692,"x_min":158,"x_max":807,"o":"m 238 -43 q 333 -62 275 -69 q 447 -29 392 -54 q 512 8 474 -19 q 587 71 550 36 q 644 135 624 106 q 699 224 676 182 q 729 297 722 267 q 735 354 735 326 q 725 403 735 382 q 692 436 715 425 q 618 456 660 451 q 540 458 576 461 q 489 450 504 456 q 472 419 474 435 q 481 389 471 404 q 538 380 506 378 q 621 376 569 382 q 647 350 649 378 q 627 279 646 322 q 585 192 608 236 q 524 116 560 151 q 452 57 489 81 q 383 29 415 33 q 278 24 310 4 q 242 94 246 43 q 249 214 239 146 q 260 275 251 238 q 277 350 268 313 q 292 407 286 388 q 342 551 313 485 q 410 682 372 617 q 446 739 424 710 q 490 792 468 768 q 526 829 513 817 q 575 853 547 846 q 629 859 603 860 q 671 849 656 858 q 713 827 693 838 q 750 789 732 817 q 776 782 763 775 q 798 805 789 789 q 806 832 807 821 q 797 860 806 849 q 776 889 788 872 q 735 913 767 899 q 668 936 704 926 q 569 938 617 949 q 501 915 521 926 q 430 855 478 901 q 339 738 382 808 q 300 663 322 710 q 256 562 278 615 q 217 458 235 508 q 174 287 190 375 q 160 113 158 199 q 179 24 158 68 q 238 -43 200 -19 m 217 -325 q 232 -325 226 -325 q 241 -324 238 -325 q 247 -319 244 -322 q 254 -315 251 -317 q 260 -313 257 -314 q 267 -312 264 -312 q 283 -297 271 -312 q 308 -265 296 -282 q 324 -243 321 -249 q 344 -189 339 -208 q 344 -140 350 -169 q 294 -133 314 -117 q 275 -187 274 -149 q 253 -239 276 -210 q 210 -289 229 -268 q 190 -315 190 -306 q 199 -324 196 -322 q 217 -325 203 -325 "},"Ġ":{"ha":692,"x_min":158,"x_max":807,"o":"m 238 -43 q 333 -62 275 -69 q 447 -29 392 -54 q 512 8 474 -19 q 587 71 550 36 q 644 135 624 106 q 699 224 676 182 q 729 297 722 267 q 735 354 735 326 q 725 403 735 382 q 692 436 715 425 q 618 456 660 451 q 540 458 576 461 q 489 450 504 456 q 472 419 474 435 q 481 389 471 404 q 538 380 506 378 q 621 376 569 382 q 647 350 649 378 q 627 279 646 322 q 585 192 608 236 q 524 116 560 151 q 452 57 489 81 q 383 29 415 33 q 278 24 310 4 q 242 94 246 43 q 249 214 239 146 q 260 275 251 238 q 277 350 268 313 q 292 407 286 388 q 342 551 313 485 q 410 682 372 617 q 446 739 424 710 q 490 792 468 768 q 526 829 513 817 q 575 853 547 846 q 629 859 603 860 q 671 849 656 858 q 713 827 693 838 q 750 789 732 817 q 776 782 763 775 q 798 805 789 789 q 806 832 807 821 q 797 860 806 849 q 776 889 788 872 q 735 913 767 899 q 668 936 704 926 q 569 938 617 949 q 501 915 521 926 q 430 855 478 901 q 339 738 382 808 q 300 663 322 710 q 256 562 278 615 q 217 458 235 508 q 174 287 190 375 q 160 113 158 199 q 179 24 158 68 q 238 -43 200 -19 m 690 1025 q 727 1013 710 1010 q 765 1043 744 1015 q 796 1091 790 1074 q 789 1135 801 1108 q 759 1165 775 1157 q 726 1161 743 1172 q 716 1153 721 1160 q 707 1144 711 1147 q 681 1108 689 1129 q 669 1079 672 1086 q 674 1054 668 1074 q 690 1025 681 1035 "},"H":{"ha":782,"x_min":110,"x_max":992,"o":"m 181 -115 q 191 -78 183 -107 q 209 -9 199 -49 q 228 68 219 31 q 243 131 238 106 q 253 173 246 143 q 273 240 261 203 q 296 312 285 276 q 315 372 307 347 q 325 401 324 397 q 335 401 325 401 q 361 401 346 401 q 392 401 372 401 q 426 401 411 401 q 517 409 467 407 q 615 412 568 411 q 694 410 663 413 q 729 406 726 408 q 729 401 729 406 q 729 392 729 397 q 719 363 726 389 q 703 301 713 338 q 683 228 693 264 q 665 172 674 193 q 644 85 654 129 q 626 31 633 42 q 616 -19 611 -1 q 647 -51 621 -36 q 674 -61 663 -57 q 690 -60 685 -65 q 695 -31 690 -56 q 708 26 700 -7 q 722 92 715 60 q 731 124 722 99 q 744 165 739 149 q 751 191 744 176 q 758 215 758 206 q 783 285 769 243 q 810 373 797 328 q 832 451 822 418 q 844 493 842 485 q 854 513 850 499 q 858 536 858 526 q 865 558 858 540 q 881 594 872 576 q 892 615 889 613 q 901 631 897 621 q 906 658 906 642 q 931 730 917 686 q 968 811 946 774 q 991 863 990 843 q 975 897 992 882 q 965 910 972 906 q 949 917 957 915 q 938 919 942 919 q 908 904 921 919 q 874 825 896 889 q 842 731 860 786 q 813 636 824 675 l 765 493 l 693 486 q 641 483 679 483 q 553 481 603 482 q 457 481 504 481 q 379 479 410 481 q 349 475 349 478 q 362 508 349 481 q 390 579 375 536 q 410 635 399 604 q 429 688 421 665 q 438 710 438 710 q 452 747 438 715 q 489 818 467 779 l 539 918 l 525 940 q 505 964 518 956 q 479 973 492 972 q 460 963 467 974 q 451 943 460 957 q 438 918 443 929 q 378 787 400 838 q 351 731 357 736 q 351 730 351 731 q 351 724 351 729 q 344 706 351 724 q 326 663 336 688 q 307 615 315 638 q 287 562 297 589 q 271 528 276 535 q 267 504 271 522 q 257 471 263 486 q 244 441 246 454 q 242 428 242 428 q 242 417 242 422 q 242 413 242 413 q 227 378 238 408 q 204 303 217 347 q 178 210 192 258 q 155 119 165 161 q 140 53 144 76 q 133 26 135 31 q 126 10 132 21 q 124 -19 126 -1 q 115 -43 121 -37 q 119 -84 110 -65 q 151 -108 129 -103 q 166 -110 160 -108 q 176 -113 172 -111 q 181 -115 181 -115 "},"Ħ":{"ha":783,"x_min":110,"x_max":1036,"o":"m 913 664 q 962 665 938 664 q 996 668 986 667 q 1031 683 1026 665 q 1018 721 1036 700 q 990 735 1003 732 q 946 738 978 738 q 876 738 928 738 q 751 740 824 739 q 601 742 679 742 q 451 744 522 743 q 329 744 381 744 q 263 740 278 743 q 204 727 215 735 q 206 699 193 719 q 218 685 211 689 q 246 682 225 682 q 270 677 258 678 q 290 676 282 676 q 351 676 303 676 q 469 674 400 675 q 614 670 539 672 q 756 667 689 668 q 865 665 822 665 q 913 664 908 664 m 181 -115 q 191 -78 183 -107 q 209 -9 199 -49 q 228 68 219 31 q 243 131 238 106 q 253 173 246 143 q 273 240 261 203 q 296 312 285 276 q 315 372 307 347 q 325 401 324 397 q 335 401 325 401 q 361 401 346 401 q 392 401 372 401 q 426 401 411 401 q 517 409 467 407 q 615 412 568 411 q 694 410 663 413 q 729 406 726 408 q 729 401 729 406 q 729 392 729 397 q 719 363 726 389 q 703 301 713 338 q 683 228 693 264 q 665 172 674 193 q 644 85 654 129 q 626 31 633 42 q 616 -19 611 -1 q 647 -51 621 -36 q 674 -61 663 -57 q 690 -60 685 -65 q 695 -31 690 -56 q 708 26 700 -7 q 722 92 715 60 q 731 124 722 99 q 744 165 739 149 q 751 191 744 176 q 758 215 758 206 q 783 285 769 243 q 810 373 797 328 q 832 451 822 418 q 844 493 842 485 q 854 513 850 499 q 858 536 858 526 q 865 558 858 540 q 881 594 872 576 q 892 615 889 613 q 901 631 897 621 q 906 658 906 642 q 931 730 917 686 q 968 811 946 774 q 991 863 990 843 q 975 897 992 882 q 965 910 972 906 q 949 917 957 915 q 938 919 942 919 q 908 904 921 919 q 874 825 896 889 q 842 731 860 786 q 813 636 824 675 l 765 493 l 693 486 q 641 483 679 483 q 553 481 603 482 q 457 481 504 481 q 379 479 410 481 q 349 475 349 478 q 362 508 349 481 q 390 579 375 536 q 410 635 399 604 q 429 688 421 665 q 438 710 438 710 q 452 747 438 715 q 489 818 467 779 l 539 918 l 525 940 q 505 964 518 956 q 479 973 492 972 q 460 963 467 974 q 451 943 460 957 q 438 918 443 929 q 378 787 400 838 q 351 731 357 736 q 351 730 351 731 q 351 724 351 729 q 344 706 351 724 q 326 663 336 688 q 307 615 315 638 q 287 562 297 589 q 271 528 276 535 q 267 504 271 522 q 257 471 263 486 q 244 441 246 454 q 242 428 242 428 q 242 417 242 422 q 242 413 242 413 q 227 378 238 408 q 204 303 217 347 q 178 210 192 258 q 155 119 165 161 q 140 53 144 76 q 133 26 135 31 q 126 10 132 21 q 124 -19 126 -1 q 115 -43 121 -37 q 119 -84 110 -65 q 151 -108 129 -103 q 166 -110 160 -108 q 176 -113 172 -111 q 181 -115 181 -115 "},"Ĥ":{"ha":783,"x_min":110,"x_max":992,"o":"m 181 -115 q 191 -78 183 -107 q 209 -9 199 -49 q 228 68 219 31 q 243 131 238 106 q 253 173 246 143 q 273 240 261 203 q 296 312 285 276 q 315 372 307 347 q 325 401 324 397 q 335 401 325 401 q 361 401 346 401 q 392 401 372 401 q 426 401 411 401 q 517 409 467 407 q 615 412 568 411 q 694 410 663 413 q 729 406 726 408 q 729 401 729 406 q 729 392 729 397 q 719 363 726 389 q 703 301 713 338 q 683 228 693 264 q 665 172 674 193 q 644 85 654 129 q 626 31 633 42 q 616 -19 611 -1 q 647 -51 621 -36 q 674 -61 663 -57 q 690 -60 685 -65 q 695 -31 690 -56 q 708 26 700 -7 q 722 92 715 60 q 731 124 722 99 q 744 165 739 149 q 751 191 744 176 q 758 215 758 206 q 783 285 769 243 q 810 373 797 328 q 832 451 822 418 q 844 493 842 485 q 854 513 850 499 q 858 536 858 526 q 865 558 858 540 q 881 594 872 576 q 892 615 889 613 q 901 631 897 621 q 906 658 906 642 q 931 730 917 686 q 968 811 946 774 q 991 863 990 843 q 975 897 992 882 q 965 910 972 906 q 949 917 957 915 q 938 919 942 919 q 908 904 921 919 q 874 825 896 889 q 842 731 860 786 q 813 636 824 675 l 765 493 l 693 486 q 641 483 679 483 q 553 481 603 482 q 457 481 504 481 q 379 479 410 481 q 349 475 349 478 q 362 508 349 481 q 390 579 375 536 q 410 635 399 604 q 429 688 421 665 q 438 710 438 710 q 452 747 438 715 q 489 818 467 779 l 539 918 l 525 940 q 505 964 518 956 q 479 973 492 972 q 460 963 467 974 q 451 943 460 957 q 438 918 443 929 q 378 787 400 838 q 351 731 357 736 q 351 730 351 731 q 351 724 351 729 q 344 706 351 724 q 326 663 336 688 q 307 615 315 638 q 287 562 297 589 q 271 528 276 535 q 267 504 271 522 q 257 471 263 486 q 244 441 246 454 q 242 428 242 428 q 242 417 242 422 q 242 413 242 413 q 227 378 238 408 q 204 303 217 347 q 178 210 192 258 q 155 119 165 161 q 140 53 144 76 q 133 26 135 31 q 126 10 132 21 q 124 -19 126 -1 q 115 -43 121 -37 q 119 -84 110 -65 q 151 -108 129 -103 q 166 -110 160 -108 q 176 -113 172 -111 q 181 -115 181 -115 m 697 1014 q 724 1037 707 1022 q 760 1067 740 1051 q 797 1092 781 1082 q 840 1052 818 1074 q 872 1018 863 1031 q 906 992 892 996 q 928 999 919 989 q 938 1023 938 1008 q 931 1049 939 1038 q 907 1074 928 1053 q 862 1119 886 1094 q 821 1157 838 1143 q 801 1170 813 1169 q 778 1160 790 1171 q 743 1136 764 1151 q 702 1103 722 1121 q 667 1071 682 1085 q 647 1051 651 1057 q 636 1015 632 1032 q 657 994 640 997 q 697 1014 674 990 "},"Ḥ":{"ha":783,"x_min":110,"x_max":992,"o":"m 181 -115 q 191 -78 183 -107 q 209 -9 199 -49 q 228 68 219 31 q 243 131 238 106 q 253 173 246 143 q 273 240 261 203 q 296 312 285 276 q 315 372 307 347 q 325 401 324 397 q 335 401 325 401 q 361 401 346 401 q 392 401 372 401 q 426 401 411 401 q 517 409 467 407 q 615 412 568 411 q 694 410 663 413 q 729 406 726 408 q 729 401 729 406 q 729 392 729 397 q 719 363 726 389 q 703 301 713 338 q 683 228 693 264 q 665 172 674 193 q 644 85 654 129 q 626 31 633 42 q 616 -19 611 -1 q 647 -51 621 -36 q 674 -61 663 -57 q 690 -60 685 -65 q 695 -31 690 -56 q 708 26 700 -7 q 722 92 715 60 q 731 124 722 99 q 744 165 739 149 q 751 191 744 176 q 758 215 758 206 q 783 285 769 243 q 810 373 797 328 q 832 451 822 418 q 844 493 842 485 q 854 513 850 499 q 858 536 858 526 q 865 558 858 540 q 881 594 872 576 q 892 615 889 613 q 901 631 897 621 q 906 658 906 642 q 931 730 917 686 q 968 811 946 774 q 991 863 990 843 q 975 897 992 882 q 965 910 972 906 q 949 917 957 915 q 938 919 942 919 q 908 904 921 919 q 874 825 896 889 q 842 731 860 786 q 813 636 824 675 l 765 493 l 693 486 q 641 483 679 483 q 553 481 603 482 q 457 481 504 481 q 379 479 410 481 q 349 475 349 478 q 362 508 349 481 q 390 579 375 536 q 410 635 399 604 q 429 688 421 665 q 438 710 438 710 q 452 747 438 715 q 489 818 467 779 l 539 918 l 525 940 q 505 964 518 956 q 479 973 492 972 q 460 963 467 974 q 451 943 460 957 q 438 918 443 929 q 378 787 400 838 q 351 731 357 736 q 351 730 351 731 q 351 724 351 729 q 344 706 351 724 q 326 663 336 688 q 307 615 315 638 q 287 562 297 589 q 271 528 276 535 q 267 504 271 522 q 257 471 263 486 q 244 441 246 454 q 242 428 242 428 q 242 417 242 422 q 242 413 242 413 q 227 378 238 408 q 204 303 217 347 q 178 210 192 258 q 155 119 165 161 q 140 53 144 76 q 133 26 135 31 q 126 10 132 21 q 124 -19 126 -1 q 115 -43 121 -37 q 119 -84 110 -65 q 151 -108 129 -103 q 166 -110 160 -108 q 176 -113 172 -111 q 181 -115 181 -115 m 336 -226 q 363 -239 347 -242 q 400 -208 379 -236 q 419 -173 415 -187 q 411 -140 424 -158 q 392 -112 406 -119 q 361 -115 378 -104 q 351 -123 356 -117 q 342 -132 346 -129 q 326 -158 333 -137 q 317 -185 319 -178 q 321 -203 315 -190 q 336 -226 326 -217 "},"I":{"ha":556,"x_min":64,"x_max":839,"o":"m 267 -43 q 294 -49 283 -49 q 306 -37 306 -49 q 323 -24 308 -28 q 376 -17 338 -19 q 486 -12 414 -15 q 585 0 564 -14 q 578 51 606 14 q 564 69 574 64 q 526 72 554 74 q 432 64 497 71 q 374 59 396 61 q 353 57 353 57 q 374 128 364 96 q 395 197 383 161 q 422 279 407 232 q 456 394 436 326 q 460 416 457 401 q 469 443 464 431 q 483 481 474 453 q 505 545 493 510 q 528 614 517 581 q 544 665 539 647 q 563 726 556 696 q 569 761 571 756 q 578 774 575 768 q 588 785 582 779 q 693 804 594 796 q 762 808 729 806 q 807 813 794 810 q 835 826 831 811 q 832 867 839 840 q 795 889 822 886 q 690 885 768 892 q 633 883 660 883 q 594 890 606 883 q 570 889 582 892 q 546 882 558 886 q 508 863 532 871 q 461 853 485 856 q 394 840 429 849 q 331 822 358 832 q 293 803 303 811 q 285 792 286 799 q 286 772 285 785 q 307 753 290 758 q 331 757 324 747 q 355 763 335 760 q 401 767 375 765 q 448 771 426 769 q 475 772 469 772 q 469 724 481 771 q 422 568 458 678 q 410 523 419 554 q 392 462 401 492 q 376 419 382 432 q 364 377 374 407 q 342 310 354 347 q 318 239 329 272 q 301 186 307 206 q 283 126 292 154 q 269 83 275 99 l 256 56 l 182 54 q 95 43 122 53 q 67 17 68 33 q 74 -5 64 6 q 103 -20 85 -15 q 140 -22 121 -25 q 223 -24 189 -19 q 267 -43 257 -28 "},"Ĳ":{"ha":1036,"x_min":64,"x_max":1228,"o":"m 267 -43 q 294 -49 283 -49 q 306 -37 306 -49 q 323 -24 308 -28 q 376 -17 338 -19 q 486 -12 414 -15 q 585 0 564 -14 q 578 51 606 14 q 564 69 574 64 q 526 72 554 74 q 432 64 497 71 q 374 59 396 61 q 353 57 353 57 q 374 128 364 96 q 395 197 383 161 q 422 279 407 232 q 456 394 436 326 q 460 416 457 401 q 469 443 464 431 q 483 481 474 453 q 505 545 493 510 q 528 614 517 581 q 544 665 539 647 q 563 726 556 696 q 569 761 571 756 q 578 774 575 768 q 588 785 582 779 q 693 804 594 796 q 762 808 729 806 q 807 813 794 810 q 835 826 831 811 q 832 867 839 840 q 795 889 822 886 q 690 885 768 892 q 633 883 660 883 q 594 890 606 883 q 570 889 582 892 q 546 882 558 886 q 508 863 532 871 q 461 853 485 856 q 394 840 429 849 q 331 822 358 832 q 293 803 303 811 q 285 792 286 799 q 286 772 285 785 q 307 753 290 758 q 331 757 324 747 q 355 763 335 760 q 401 767 375 765 q 448 771 426 769 q 475 772 469 772 q 469 724 481 771 q 422 568 458 678 q 410 523 419 554 q 392 462 401 492 q 376 419 382 432 q 364 377 374 407 q 342 310 354 347 q 318 239 329 272 q 301 186 307 206 q 283 126 292 154 q 269 83 275 99 l 256 56 l 182 54 q 95 43 122 53 q 67 17 68 33 q 74 -5 64 6 q 103 -20 85 -15 q 140 -22 121 -25 q 223 -24 189 -19 q 267 -43 257 -28 m 735 -251 q 762 -234 746 -246 q 794 -207 778 -222 q 822 -178 810 -192 q 836 -156 833 -164 q 840 -145 836 -149 q 844 -142 844 -142 q 851 -137 850 -142 q 851 -133 851 -133 q 861 -113 851 -128 q 878 -82 871 -99 q 902 -30 889 -64 q 926 32 915 4 q 950 90 940 65 q 960 114 960 114 q 972 135 967 121 q 978 160 978 149 q 993 208 983 178 q 1014 265 1003 239 q 1029 315 1019 285 q 1049 374 1039 344 q 1064 418 1060 403 q 1107 534 1083 464 q 1161 690 1131 604 q 1202 802 1188 761 q 1222 865 1217 843 q 1226 900 1228 888 q 1215 924 1224 913 q 1192 939 1208 932 q 1162 950 1176 946 q 1142 950 1147 954 q 1097 944 1124 947 q 1042 936 1069 940 q 971 922 999 931 q 943 901 943 913 q 949 885 943 894 q 961 872 954 876 q 972 869 968 867 q 972 869 972 869 q 972 863 972 868 q 994 853 971 857 q 1040 860 1017 850 q 1094 869 1069 865 q 1118 874 1118 874 q 1112 840 1121 869 q 1088 763 1103 810 q 1056 663 1072 717 q 1031 588 1042 622 q 1014 543 1019 554 q 997 491 1007 525 q 979 428 986 457 q 959 372 971 406 q 937 308 947 339 q 921 263 926 278 q 910 224 915 240 q 903 201 904 207 q 897 191 897 196 q 896 186 896 186 q 874 131 890 169 q 837 49 857 93 q 799 -35 817 4 q 772 -94 781 -74 q 691 -176 729 -161 q 614 -157 653 -192 q 579 -131 594 -131 q 561 -156 568 -131 q 558 -184 556 -174 q 571 -206 561 -194 q 622 -244 593 -229 q 681 -260 651 -258 q 735 -251 711 -262 "},"Í":{"ha":556,"x_min":64,"x_max":839,"o":"m 267 -43 q 294 -49 283 -49 q 306 -37 306 -49 q 323 -24 308 -28 q 376 -17 338 -19 q 486 -12 414 -15 q 585 0 564 -14 q 578 51 606 14 q 564 69 574 64 q 526 72 554 74 q 432 64 497 71 q 374 59 396 61 q 353 57 353 57 q 374 128 364 96 q 395 197 383 161 q 422 279 407 232 q 456 394 436 326 q 460 416 457 401 q 469 443 464 431 q 483 481 474 453 q 505 545 493 510 q 528 614 517 581 q 544 665 539 647 q 563 726 556 696 q 569 761 571 756 q 578 774 575 768 q 588 785 582 779 q 693 804 594 796 q 762 808 729 806 q 807 813 794 810 q 835 826 831 811 q 832 867 839 840 q 795 889 822 886 q 690 885 768 892 q 633 883 660 883 q 594 890 606 883 q 570 889 582 892 q 546 882 558 886 q 508 863 532 871 q 461 853 485 856 q 394 840 429 849 q 331 822 358 832 q 293 803 303 811 q 285 792 286 799 q 286 772 285 785 q 307 753 290 758 q 331 757 324 747 q 355 763 335 760 q 401 767 375 765 q 448 771 426 769 q 475 772 469 772 q 469 724 481 771 q 422 568 458 678 q 410 523 419 554 q 392 462 401 492 q 376 419 382 432 q 364 377 374 407 q 342 310 354 347 q 318 239 329 272 q 301 186 307 206 q 283 126 292 154 q 269 83 275 99 l 256 56 l 182 54 q 95 43 122 53 q 67 17 68 33 q 74 -5 64 6 q 103 -20 85 -15 q 140 -22 121 -25 q 223 -24 189 -19 q 267 -43 257 -28 m 561 992 q 585 983 578 979 q 607 1010 593 988 q 641 1044 618 1025 q 688 1082 664 1063 q 726 1119 711 1101 q 736 1149 740 1136 q 708 1184 722 1171 q 679 1188 694 1197 q 648 1164 669 1183 q 603 1119 626 1144 q 562 1074 579 1094 q 543 1046 544 1053 q 547 1021 542 1040 q 561 992 551 1001 "},"Ĭ":{"ha":556,"x_min":64,"x_max":839,"o":"m 267 -43 q 294 -49 283 -49 q 306 -37 306 -49 q 323 -24 308 -28 q 376 -17 338 -19 q 486 -12 414 -15 q 585 0 564 -14 q 578 51 606 14 q 564 69 574 64 q 526 72 554 74 q 432 64 497 71 q 374 59 396 61 q 353 57 353 57 q 374 128 364 96 q 395 197 383 161 q 422 279 407 232 q 456 394 436 326 q 460 416 457 401 q 469 443 464 431 q 483 481 474 453 q 505 545 493 510 q 528 614 517 581 q 544 665 539 647 q 563 726 556 696 q 569 761 571 756 q 578 774 575 768 q 588 785 582 779 q 693 804 594 796 q 762 808 729 806 q 807 813 794 810 q 835 826 831 811 q 832 867 839 840 q 795 889 822 886 q 690 885 768 892 q 633 883 660 883 q 594 890 606 883 q 570 889 582 892 q 546 882 558 886 q 508 863 532 871 q 461 853 485 856 q 394 840 429 849 q 331 822 358 832 q 293 803 303 811 q 285 792 286 799 q 286 772 285 785 q 307 753 290 758 q 331 757 324 747 q 355 763 335 760 q 401 767 375 765 q 448 771 426 769 q 475 772 469 772 q 469 724 481 771 q 422 568 458 678 q 410 523 419 554 q 392 462 401 492 q 376 419 382 432 q 364 377 374 407 q 342 310 354 347 q 318 239 329 272 q 301 186 307 206 q 283 126 292 154 q 269 83 275 99 l 256 56 l 182 54 q 95 43 122 53 q 67 17 68 33 q 74 -5 64 6 q 103 -20 85 -15 q 140 -22 121 -25 q 223 -24 189 -19 q 267 -43 257 -28 m 606 974 q 676 987 643 971 q 733 1028 708 1003 q 772 1077 757 1053 q 790 1114 786 1101 q 790 1137 793 1124 q 777 1158 786 1150 q 756 1160 768 1165 q 728 1128 743 1154 q 702 1092 719 1114 q 665 1053 685 1069 q 626 1035 644 1036 q 567 1051 585 1033 q 546 1092 549 1068 q 547 1131 543 1115 q 547 1165 554 1154 q 526 1176 539 1176 q 500 1161 513 1175 q 483 1122 488 1147 q 488 1049 476 1081 q 531 997 500 1017 q 606 974 561 978 "},"Î":{"ha":556,"x_min":64,"x_max":839,"o":"m 267 -43 q 294 -49 283 -49 q 306 -37 306 -49 q 323 -24 308 -28 q 376 -17 338 -19 q 486 -12 414 -15 q 585 0 564 -14 q 578 51 606 14 q 564 69 574 64 q 526 72 554 74 q 432 64 497 71 q 374 59 396 61 q 353 57 353 57 q 374 128 364 96 q 395 197 383 161 q 422 279 407 232 q 456 394 436 326 q 460 416 457 401 q 469 443 464 431 q 483 481 474 453 q 505 545 493 510 q 528 614 517 581 q 544 665 539 647 q 563 726 556 696 q 569 761 571 756 q 578 774 575 768 q 588 785 582 779 q 693 804 594 796 q 762 808 729 806 q 807 813 794 810 q 835 826 831 811 q 832 867 839 840 q 795 889 822 886 q 690 885 768 892 q 633 883 660 883 q 594 890 606 883 q 570 889 582 892 q 546 882 558 886 q 508 863 532 871 q 461 853 485 856 q 394 840 429 849 q 331 822 358 832 q 293 803 303 811 q 285 792 286 799 q 286 772 285 785 q 307 753 290 758 q 331 757 324 747 q 355 763 335 760 q 401 767 375 765 q 448 771 426 769 q 475 772 469 772 q 469 724 481 771 q 422 568 458 678 q 410 523 419 554 q 392 462 401 492 q 376 419 382 432 q 364 377 374 407 q 342 310 354 347 q 318 239 329 272 q 301 186 307 206 q 283 126 292 154 q 269 83 275 99 l 256 56 l 182 54 q 95 43 122 53 q 67 17 68 33 q 74 -5 64 6 q 103 -20 85 -15 q 140 -22 121 -25 q 223 -24 189 -19 q 267 -43 257 -28 m 546 1014 q 572 1037 556 1022 q 609 1067 589 1051 q 646 1092 629 1082 q 689 1052 667 1074 q 721 1018 711 1031 q 754 992 740 996 q 777 999 768 989 q 787 1023 786 1008 q 779 1049 788 1038 q 756 1074 776 1053 q 710 1119 735 1094 q 669 1157 686 1143 q 650 1170 661 1169 q 626 1160 639 1171 q 592 1136 613 1151 q 551 1103 571 1121 q 515 1071 531 1085 q 496 1051 500 1057 q 485 1015 481 1032 q 506 994 489 997 q 546 1014 522 990 "},"Ȉ":{"ha":556,"x_min":64,"x_max":839,"o":"m 267 -43 q 294 -49 283 -49 q 306 -37 306 -49 q 323 -24 308 -28 q 376 -17 338 -19 q 486 -12 414 -15 q 585 0 564 -14 q 578 51 606 14 q 564 69 574 64 q 526 72 554 74 q 432 64 497 71 q 374 59 396 61 q 353 57 353 57 q 374 128 364 96 q 395 197 383 161 q 422 279 407 232 q 456 394 436 326 q 460 416 457 401 q 469 443 464 431 q 483 481 474 453 q 505 545 493 510 q 528 614 517 581 q 544 665 539 647 q 563 726 556 696 q 569 761 571 756 q 578 774 575 768 q 588 785 582 779 q 693 804 594 796 q 762 808 729 806 q 807 813 794 810 q 835 826 831 811 q 832 867 839 840 q 795 889 822 886 q 690 885 768 892 q 633 883 660 883 q 594 890 606 883 q 570 889 582 892 q 546 882 558 886 q 508 863 532 871 q 461 853 485 856 q 394 840 429 849 q 331 822 358 832 q 293 803 303 811 q 285 792 286 799 q 286 772 285 785 q 307 753 290 758 q 331 757 324 747 q 355 763 335 760 q 401 767 375 765 q 448 771 426 769 q 475 772 469 772 q 469 724 481 771 q 422 568 458 678 q 410 523 419 554 q 392 462 401 492 q 376 419 382 432 q 364 377 374 407 q 342 310 354 347 q 318 239 329 272 q 301 186 307 206 q 283 126 292 154 q 269 83 275 99 l 256 56 l 182 54 q 95 43 122 53 q 67 17 68 33 q 74 -5 64 6 q 103 -20 85 -15 q 140 -22 121 -25 q 223 -24 189 -19 q 267 -43 257 -28 m 494 999 q 509 1014 503 1004 q 519 1033 515 1024 q 522 1044 524 1042 q 511 1069 522 1049 q 485 1117 500 1090 q 454 1165 469 1143 q 431 1192 439 1186 q 406 1191 421 1199 q 376 1164 390 1183 q 380 1140 371 1157 q 405 1101 389 1122 q 437 1059 421 1079 q 460 1024 453 1039 q 474 997 468 1001 q 494 999 481 992 m 660 999 q 679 1023 671 1006 q 686 1044 688 1040 q 676 1069 686 1049 q 649 1117 665 1090 q 618 1165 633 1143 q 594 1192 603 1186 q 571 1191 585 1199 q 540 1164 557 1183 q 544 1140 535 1157 q 569 1101 553 1122 q 601 1059 585 1079 q 624 1024 617 1039 q 638 997 632 1001 q 660 999 644 992 "},"Ï":{"ha":556,"x_min":64,"x_max":839,"o":"m 267 -43 q 294 -49 283 -49 q 306 -37 306 -49 q 323 -24 308 -28 q 376 -17 338 -19 q 486 -12 414 -15 q 585 0 564 -14 q 578 51 606 14 q 564 69 574 64 q 526 72 554 74 q 432 64 497 71 q 374 59 396 61 q 353 57 353 57 q 374 128 364 96 q 395 197 383 161 q 422 279 407 232 q 456 394 436 326 q 460 416 457 401 q 469 443 464 431 q 483 481 474 453 q 505 545 493 510 q 528 614 517 581 q 544 665 539 647 q 563 726 556 696 q 569 761 571 756 q 578 774 575 768 q 588 785 582 779 q 693 804 594 796 q 762 808 729 806 q 807 813 794 810 q 835 826 831 811 q 832 867 839 840 q 795 889 822 886 q 690 885 768 892 q 633 883 660 883 q 594 890 606 883 q 570 889 582 892 q 546 882 558 886 q 508 863 532 871 q 461 853 485 856 q 394 840 429 849 q 331 822 358 832 q 293 803 303 811 q 285 792 286 799 q 286 772 285 785 q 307 753 290 758 q 331 757 324 747 q 355 763 335 760 q 401 767 375 765 q 448 771 426 769 q 475 772 469 772 q 469 724 481 771 q 422 568 458 678 q 410 523 419 554 q 392 462 401 492 q 376 419 382 432 q 364 377 374 407 q 342 310 354 347 q 318 239 329 272 q 301 186 307 206 q 283 126 292 154 q 269 83 275 99 l 256 56 l 182 54 q 95 43 122 53 q 67 17 68 33 q 74 -5 64 6 q 103 -20 85 -15 q 140 -22 121 -25 q 223 -24 189 -19 q 267 -43 257 -28 m 688 1042 q 717 1028 700 1025 q 754 1060 733 1031 q 776 1098 772 1083 q 768 1132 781 1113 q 747 1163 761 1154 q 715 1158 732 1171 q 704 1151 710 1157 q 694 1142 699 1144 q 677 1113 685 1133 q 667 1086 669 1093 q 672 1066 665 1081 q 688 1042 678 1051 m 508 1042 q 536 1028 519 1025 q 575 1060 553 1031 q 597 1098 593 1083 q 589 1132 601 1113 q 576 1156 585 1147 q 556 1165 567 1164 q 535 1158 546 1167 q 524 1151 529 1157 q 515 1142 519 1144 q 498 1113 506 1133 q 488 1086 490 1093 q 492 1066 486 1081 q 508 1042 499 1051 "},"İ":{"ha":556,"x_min":64,"x_max":839,"o":"m 267 -43 q 294 -49 283 -49 q 306 -37 306 -49 q 323 -24 308 -28 q 376 -17 338 -19 q 486 -12 414 -15 q 585 0 564 -14 q 578 51 606 14 q 564 69 574 64 q 526 72 554 74 q 432 64 497 71 q 374 59 396 61 q 353 57 353 57 q 374 128 364 96 q 395 197 383 161 q 422 279 407 232 q 456 394 436 326 q 460 416 457 401 q 469 443 464 431 q 483 481 474 453 q 505 545 493 510 q 528 614 517 581 q 544 665 539 647 q 563 726 556 696 q 569 761 571 756 q 578 774 575 768 q 588 785 582 779 q 693 804 594 796 q 762 808 729 806 q 807 813 794 810 q 835 826 831 811 q 832 867 839 840 q 795 889 822 886 q 690 885 768 892 q 633 883 660 883 q 594 890 606 883 q 570 889 582 892 q 546 882 558 886 q 508 863 532 871 q 461 853 485 856 q 394 840 429 849 q 331 822 358 832 q 293 803 303 811 q 285 792 286 799 q 286 772 285 785 q 307 753 290 758 q 331 757 324 747 q 355 763 335 760 q 401 767 375 765 q 448 771 426 769 q 475 772 469 772 q 469 724 481 771 q 422 568 458 678 q 410 523 419 554 q 392 462 401 492 q 376 419 382 432 q 364 377 374 407 q 342 310 354 347 q 318 239 329 272 q 301 186 307 206 q 283 126 292 154 q 269 83 275 99 l 256 56 l 182 54 q 95 43 122 53 q 67 17 68 33 q 74 -5 64 6 q 103 -20 85 -15 q 140 -22 121 -25 q 223 -24 189 -19 q 267 -43 257 -28 m 586 1025 q 623 1013 606 1010 q 661 1043 640 1015 q 692 1091 686 1074 q 685 1135 697 1108 q 655 1165 671 1157 q 622 1161 639 1172 q 612 1153 617 1160 q 603 1144 607 1147 q 576 1108 585 1129 q 565 1079 568 1086 q 570 1054 564 1074 q 586 1025 576 1035 "},"Ị":{"ha":556,"x_min":64,"x_max":839,"o":"m 267 -43 q 294 -49 283 -49 q 306 -37 306 -49 q 323 -24 308 -28 q 376 -17 338 -19 q 486 -12 414 -15 q 585 0 564 -14 q 578 51 606 14 q 564 69 574 64 q 526 72 554 74 q 432 64 497 71 q 374 59 396 61 q 353 57 353 57 q 374 128 364 96 q 395 197 383 161 q 422 279 407 232 q 456 394 436 326 q 460 416 457 401 q 469 443 464 431 q 483 481 474 453 q 505 545 493 510 q 528 614 517 581 q 544 665 539 647 q 563 726 556 696 q 569 761 571 756 q 578 774 575 768 q 588 785 582 779 q 693 804 594 796 q 762 808 729 806 q 807 813 794 810 q 835 826 831 811 q 832 867 839 840 q 795 889 822 886 q 690 885 768 892 q 633 883 660 883 q 594 890 606 883 q 570 889 582 892 q 546 882 558 886 q 508 863 532 871 q 461 853 485 856 q 394 840 429 849 q 331 822 358 832 q 293 803 303 811 q 285 792 286 799 q 286 772 285 785 q 307 753 290 758 q 331 757 324 747 q 355 763 335 760 q 401 767 375 765 q 448 771 426 769 q 475 772 469 772 q 469 724 481 771 q 422 568 458 678 q 410 523 419 554 q 392 462 401 492 q 376 419 382 432 q 364 377 374 407 q 342 310 354 347 q 318 239 329 272 q 301 186 307 206 q 283 126 292 154 q 269 83 275 99 l 256 56 l 182 54 q 95 43 122 53 q 67 17 68 33 q 74 -5 64 6 q 103 -20 85 -15 q 140 -22 121 -25 q 223 -24 189 -19 q 267 -43 257 -28 m 204 -239 q 231 -251 215 -254 q 268 -221 247 -249 q 288 -185 283 -200 q 279 -153 292 -171 q 260 -124 274 -132 q 229 -128 246 -117 q 219 -135 224 -129 q 210 -144 214 -142 q 194 -170 201 -150 q 185 -197 188 -190 q 189 -216 183 -203 q 204 -239 194 -229 "},"Ì":{"ha":556,"x_min":64,"x_max":839,"o":"m 267 -43 q 294 -49 283 -49 q 306 -37 306 -49 q 323 -24 308 -28 q 376 -17 338 -19 q 486 -12 414 -15 q 585 0 564 -14 q 578 51 606 14 q 564 69 574 64 q 526 72 554 74 q 432 64 497 71 q 374 59 396 61 q 353 57 353 57 q 374 128 364 96 q 395 197 383 161 q 422 279 407 232 q 456 394 436 326 q 460 416 457 401 q 469 443 464 431 q 483 481 474 453 q 505 545 493 510 q 528 614 517 581 q 544 665 539 647 q 563 726 556 696 q 569 761 571 756 q 578 774 575 768 q 588 785 582 779 q 693 804 594 796 q 762 808 729 806 q 807 813 794 810 q 835 826 831 811 q 832 867 839 840 q 795 889 822 886 q 690 885 768 892 q 633 883 660 883 q 594 890 606 883 q 570 889 582 892 q 546 882 558 886 q 508 863 532 871 q 461 853 485 856 q 394 840 429 849 q 331 822 358 832 q 293 803 303 811 q 285 792 286 799 q 286 772 285 785 q 307 753 290 758 q 331 757 324 747 q 355 763 335 760 q 401 767 375 765 q 448 771 426 769 q 475 772 469 772 q 469 724 481 771 q 422 568 458 678 q 410 523 419 554 q 392 462 401 492 q 376 419 382 432 q 364 377 374 407 q 342 310 354 347 q 318 239 329 272 q 301 186 307 206 q 283 126 292 154 q 269 83 275 99 l 256 56 l 182 54 q 95 43 122 53 q 67 17 68 33 q 74 -5 64 6 q 103 -20 85 -15 q 140 -22 121 -25 q 223 -24 189 -19 q 267 -43 257 -28 m 657 988 q 677 1004 668 990 q 685 1024 686 1018 q 676 1056 685 1032 q 655 1110 668 1081 q 628 1162 642 1139 q 606 1190 615 1185 q 578 1197 592 1206 q 547 1174 565 1189 q 550 1128 536 1158 q 586 1065 564 1097 q 619 1010 608 1033 q 629 986 625 994 q 640 978 633 978 q 657 988 646 979 "},"Ȋ":{"ha":556,"x_min":64,"x_max":839,"o":"m 267 -43 q 294 -49 283 -49 q 306 -37 306 -49 q 323 -24 308 -28 q 376 -17 338 -19 q 486 -12 414 -15 q 585 0 564 -14 q 578 51 606 14 q 564 69 574 64 q 526 72 554 74 q 432 64 497 71 q 374 59 396 61 q 353 57 353 57 q 374 128 364 96 q 395 197 383 161 q 422 279 407 232 q 456 394 436 326 q 460 416 457 401 q 469 443 464 431 q 483 481 474 453 q 505 545 493 510 q 528 614 517 581 q 544 665 539 647 q 563 726 556 696 q 569 761 571 756 q 578 774 575 768 q 588 785 582 779 q 693 804 594 796 q 762 808 729 806 q 807 813 794 810 q 835 826 831 811 q 832 867 839 840 q 795 889 822 886 q 690 885 768 892 q 633 883 660 883 q 594 890 606 883 q 570 889 582 892 q 546 882 558 886 q 508 863 532 871 q 461 853 485 856 q 394 840 429 849 q 331 822 358 832 q 293 803 303 811 q 285 792 286 799 q 286 772 285 785 q 307 753 290 758 q 331 757 324 747 q 355 763 335 760 q 401 767 375 765 q 448 771 426 769 q 475 772 469 772 q 469 724 481 771 q 422 568 458 678 q 410 523 419 554 q 392 462 401 492 q 376 419 382 432 q 364 377 374 407 q 342 310 354 347 q 318 239 329 272 q 301 186 307 206 q 283 126 292 154 q 269 83 275 99 l 256 56 l 182 54 q 95 43 122 53 q 67 17 68 33 q 74 -5 64 6 q 103 -20 85 -15 q 140 -22 121 -25 q 223 -24 189 -19 q 267 -43 257 -28 m 682 1014 q 688 974 674 983 q 721 976 701 964 q 746 1022 740 989 q 742 1096 754 1064 q 699 1148 729 1128 q 624 1171 669 1168 q 553 1158 586 1174 q 497 1117 521 1142 q 458 1067 472 1092 q 439 1031 443 1043 q 443 1001 436 1018 q 466 983 450 983 q 501 1017 482 982 q 527 1053 510 1032 q 565 1092 544 1075 q 603 1110 585 1110 q 663 1094 644 1111 q 683 1053 681 1076 q 682 1014 686 1031 "},"Ī":{"ha":556,"x_min":64,"x_max":839,"o":"m 267 -43 q 294 -49 283 -49 q 306 -37 306 -49 q 323 -24 308 -28 q 376 -17 338 -19 q 486 -12 414 -15 q 585 0 564 -14 q 578 51 606 14 q 564 69 574 64 q 526 72 554 74 q 432 64 497 71 q 374 59 396 61 q 353 57 353 57 q 374 128 364 96 q 395 197 383 161 q 422 279 407 232 q 456 394 436 326 q 460 416 457 401 q 469 443 464 431 q 483 481 474 453 q 505 545 493 510 q 528 614 517 581 q 544 665 539 647 q 563 726 556 696 q 569 761 571 756 q 578 774 575 768 q 588 785 582 779 q 693 804 594 796 q 762 808 729 806 q 807 813 794 810 q 835 826 831 811 q 832 867 839 840 q 795 889 822 886 q 690 885 768 892 q 633 883 660 883 q 594 890 606 883 q 570 889 582 892 q 546 882 558 886 q 508 863 532 871 q 461 853 485 856 q 394 840 429 849 q 331 822 358 832 q 293 803 303 811 q 285 792 286 799 q 286 772 285 785 q 307 753 290 758 q 331 757 324 747 q 355 763 335 760 q 401 767 375 765 q 448 771 426 769 q 475 772 469 772 q 469 724 481 771 q 422 568 458 678 q 410 523 419 554 q 392 462 401 492 q 376 419 382 432 q 364 377 374 407 q 342 310 354 347 q 318 239 329 272 q 301 186 307 206 q 283 126 292 154 q 269 83 275 99 l 256 56 l 182 54 q 95 43 122 53 q 67 17 68 33 q 74 -5 64 6 q 103 -20 85 -15 q 140 -22 121 -25 q 223 -24 189 -19 q 267 -43 257 -28 m 515 1058 q 570 1060 540 1058 q 624 1063 600 1061 q 657 1064 649 1064 q 697 1065 674 1064 q 741 1067 721 1065 q 768 1068 761 1068 q 803 1083 799 1065 q 790 1121 808 1100 q 749 1135 775 1132 q 690 1138 722 1138 q 586 1133 638 1138 q 488 1122 535 1129 q 429 1109 440 1117 q 431 1081 418 1101 q 443 1067 436 1071 q 471 1064 450 1064 q 495 1059 483 1060 q 515 1058 507 1058 "},"Į":{"ha":556,"x_min":64,"x_max":839,"o":"m 267 -43 q 294 -49 283 -49 q 306 -37 306 -49 q 323 -24 308 -28 q 376 -17 338 -19 q 486 -12 414 -15 q 585 0 564 -14 q 578 51 606 14 q 564 69 574 64 q 526 72 554 74 q 432 64 497 71 q 374 59 396 61 q 353 57 353 57 q 374 128 364 96 q 395 197 383 161 q 422 279 407 232 q 456 394 436 326 q 460 416 457 401 q 469 443 464 431 q 483 481 474 453 q 505 545 493 510 q 528 614 517 581 q 544 665 539 647 q 563 726 556 696 q 569 761 571 756 q 578 774 575 768 q 588 785 582 779 q 693 804 594 796 q 762 808 729 806 q 807 813 794 810 q 835 826 831 811 q 832 867 839 840 q 795 889 822 886 q 690 885 768 892 q 633 883 660 883 q 594 890 606 883 q 570 889 582 892 q 546 882 558 886 q 508 863 532 871 q 461 853 485 856 q 394 840 429 849 q 331 822 358 832 q 293 803 303 811 q 285 792 286 799 q 286 772 285 785 q 307 753 290 758 q 331 757 324 747 q 355 763 335 760 q 401 767 375 765 q 448 771 426 769 q 475 772 469 772 q 469 724 481 771 q 422 568 458 678 q 410 523 419 554 q 392 462 401 492 q 376 419 382 432 q 364 377 374 407 q 342 310 354 347 q 318 239 329 272 q 301 186 307 206 q 283 126 292 154 q 269 83 275 99 l 256 56 l 182 54 q 95 43 122 53 q 67 17 68 33 q 74 -5 64 6 q 103 -20 85 -15 q 140 -22 121 -25 q 223 -24 189 -19 q 267 -43 257 -28 m 190 -283 q 226 -273 206 -281 q 268 -256 247 -265 q 306 -239 289 -247 q 328 -229 322 -231 q 351 -210 344 -222 q 355 -185 357 -197 q 343 -169 353 -174 q 315 -175 333 -165 q 258 -206 281 -192 q 204 -225 236 -219 q 179 -217 183 -225 q 177 -181 169 -201 q 204 -136 185 -160 q 272 -70 229 -106 q 344 -17 314 -35 l 303 25 q 236 -24 272 6 q 169 -85 200 -53 q 124 -150 139 -118 q 117 -205 111 -176 q 143 -254 124 -233 q 190 -283 163 -275 "},"Ĩ":{"ha":556,"x_min":64,"x_max":839,"o":"m 267 -43 q 294 -49 283 -49 q 306 -37 306 -49 q 323 -24 308 -28 q 376 -17 338 -19 q 486 -12 414 -15 q 585 0 564 -14 q 578 51 606 14 q 564 69 574 64 q 526 72 554 74 q 432 64 497 71 q 374 59 396 61 q 353 57 353 57 q 374 128 364 96 q 395 197 383 161 q 422 279 407 232 q 456 394 436 326 q 460 416 457 401 q 469 443 464 431 q 483 481 474 453 q 505 545 493 510 q 528 614 517 581 q 544 665 539 647 q 563 726 556 696 q 569 761 571 756 q 578 774 575 768 q 588 785 582 779 q 693 804 594 796 q 762 808 729 806 q 807 813 794 810 q 835 826 831 811 q 832 867 839 840 q 795 889 822 886 q 690 885 768 892 q 633 883 660 883 q 594 890 606 883 q 570 889 582 892 q 546 882 558 886 q 508 863 532 871 q 461 853 485 856 q 394 840 429 849 q 331 822 358 832 q 293 803 303 811 q 285 792 286 799 q 286 772 285 785 q 307 753 290 758 q 331 757 324 747 q 355 763 335 760 q 401 767 375 765 q 448 771 426 769 q 475 772 469 772 q 469 724 481 771 q 422 568 458 678 q 410 523 419 554 q 392 462 401 492 q 376 419 382 432 q 364 377 374 407 q 342 310 354 347 q 318 239 329 272 q 301 186 307 206 q 283 126 292 154 q 269 83 275 99 l 256 56 l 182 54 q 95 43 122 53 q 67 17 68 33 q 74 -5 64 6 q 103 -20 85 -15 q 140 -22 121 -25 q 223 -24 189 -19 q 267 -43 257 -28 m 683 1013 q 698 1015 689 1013 q 729 1029 707 1018 q 793 1064 751 1040 q 815 1085 806 1071 q 824 1104 824 1099 q 821 1122 825 1113 q 808 1137 817 1132 q 790 1138 800 1142 q 737 1110 761 1126 q 692 1089 713 1094 q 649 1091 665 1078 q 600 1133 632 1104 q 548 1161 578 1154 q 501 1161 518 1168 q 435 1106 454 1138 q 414 1061 415 1074 q 420 1044 413 1054 q 442 1031 428 1035 q 451 1034 444 1024 q 460 1051 458 1044 q 483 1066 475 1054 q 501 1089 492 1078 q 524 1100 510 1100 q 561 1079 540 1100 q 594 1051 582 1058 q 638 1023 621 1033 q 683 1013 656 1013 "},"J":{"ha":425,"x_min":-56,"x_max":617,"o":"m 124 -251 q 151 -234 135 -246 q 183 -207 167 -222 q 210 -178 199 -192 q 225 -156 222 -164 q 229 -145 225 -149 q 233 -142 233 -142 q 240 -137 239 -142 q 240 -133 240 -133 q 250 -113 240 -128 q 267 -82 260 -99 q 291 -30 278 -64 q 315 32 304 4 q 339 90 329 65 q 349 114 349 114 q 361 135 356 121 q 367 160 367 149 q 382 208 372 178 q 403 265 392 239 q 418 315 408 285 q 438 374 428 344 q 453 418 449 403 q 496 534 472 464 q 550 690 519 604 q 591 802 576 761 q 611 865 606 843 q 615 900 617 888 q 604 924 613 913 q 581 939 597 932 q 551 950 565 946 q 531 950 536 954 q 485 944 513 947 q 431 936 458 940 q 360 922 388 931 q 332 901 332 913 q 338 885 332 894 q 350 872 343 876 q 361 869 357 867 q 361 869 361 869 q 361 863 361 868 q 383 853 360 857 q 429 860 406 850 q 483 869 458 865 q 507 874 507 874 q 501 840 510 869 q 476 763 492 810 q 444 663 461 717 q 419 588 431 622 q 403 543 408 554 q 385 491 396 525 q 368 428 375 457 q 348 372 360 406 q 326 308 336 339 q 310 263 315 278 q 299 224 304 240 q 292 201 293 207 q 285 191 286 196 q 285 186 285 186 q 263 131 279 169 q 226 49 246 93 q 188 -35 206 4 q 161 -94 169 -74 q 80 -176 118 -161 q 3 -157 42 -192 q -32 -131 -17 -131 q -50 -156 -43 -131 q -53 -184 -56 -174 q -40 -206 -50 -194 q 11 -244 -18 -229 q 70 -260 40 -258 q 124 -251 100 -262 "},"Ĵ":{"ha":425,"x_min":-56,"x_max":703,"o":"m 124 -251 q 151 -234 135 -246 q 183 -207 167 -222 q 210 -178 199 -192 q 225 -156 222 -164 q 229 -145 225 -149 q 233 -142 233 -142 q 240 -137 239 -142 q 240 -133 240 -133 q 250 -113 240 -128 q 267 -82 260 -99 q 291 -30 278 -64 q 315 32 304 4 q 339 90 329 65 q 349 114 349 114 q 361 135 356 121 q 367 160 367 149 q 382 208 372 178 q 403 265 392 239 q 418 315 408 285 q 438 374 428 344 q 453 418 449 403 q 496 534 472 464 q 550 690 519 604 q 591 802 576 761 q 611 865 606 843 q 615 900 617 888 q 604 924 613 913 q 581 939 597 932 q 551 950 565 946 q 531 950 536 954 q 485 944 513 947 q 431 936 458 940 q 360 922 388 931 q 332 901 332 913 q 338 885 332 894 q 350 872 343 876 q 361 869 357 867 q 361 869 361 869 q 361 863 361 868 q 383 853 360 857 q 429 860 406 850 q 483 869 458 865 q 507 874 507 874 q 501 840 510 869 q 476 763 492 810 q 444 663 461 717 q 419 588 431 622 q 403 543 408 554 q 385 491 396 525 q 368 428 375 457 q 348 372 360 406 q 326 308 336 339 q 310 263 315 278 q 299 224 304 240 q 292 201 293 207 q 285 191 286 196 q 285 186 285 186 q 263 131 279 169 q 226 49 246 93 q 188 -35 206 4 q 161 -94 169 -74 q 80 -176 118 -161 q 3 -157 42 -192 q -32 -131 -17 -131 q -50 -156 -43 -131 q -53 -184 -56 -174 q -40 -206 -50 -194 q 11 -244 -18 -229 q 70 -260 40 -258 q 124 -251 100 -262 m 461 1014 q 488 1037 471 1022 q 524 1067 504 1051 q 561 1092 544 1082 q 604 1052 582 1074 q 636 1018 626 1031 q 669 992 656 996 q 692 999 683 989 q 702 1023 701 1008 q 694 1049 703 1038 q 671 1074 692 1053 q 626 1119 650 1094 q 585 1157 601 1143 q 565 1170 576 1169 q 542 1160 554 1171 q 507 1136 528 1151 q 466 1103 486 1121 q 431 1071 446 1085 q 411 1051 415 1057 q 400 1015 396 1032 q 421 994 404 997 q 461 1014 438 990 "},"K":{"ha":692,"x_min":113,"x_max":944,"o":"m 133 -51 q 149 -62 143 -57 q 161 -67 156 -67 q 180 -48 171 -67 q 204 20 189 -29 q 247 158 219 69 q 274 246 263 210 q 292 304 285 282 q 305 338 300 326 q 310 351 310 349 l 367 492 q 377 527 367 499 q 405 595 388 556 q 442 678 422 635 q 481 760 463 722 q 510 824 499 799 q 522 855 521 840 q 513 892 524 869 q 485 918 501 915 q 451 908 469 921 q 441 894 446 903 q 436 886 436 886 q 431 867 436 886 q 411 828 425 849 q 390 785 401 806 q 379 758 379 765 q 379 748 379 753 q 379 743 379 743 q 365 722 375 743 q 343 672 356 701 q 318 617 331 643 q 284 524 300 569 q 260 456 268 479 q 244 413 254 433 q 226 374 235 392 q 223 342 226 363 q 213 306 219 322 q 200 283 206 294 q 194 260 194 271 q 184 230 194 254 q 163 178 174 206 q 147 124 156 150 q 138 86 138 97 q 136 72 138 81 q 128 64 135 64 q 123 43 126 58 q 121 10 119 28 q 114 -30 113 -19 q 133 -51 115 -40 m 624 -62 q 670 -72 660 -79 q 685 -54 681 -64 q 690 -42 688 -50 q 692 -26 692 -35 q 690 -12 692 -17 q 677 5 689 -4 q 652 22 665 14 q 632 32 639 31 q 594 49 619 32 q 538 100 569 65 q 493 159 514 124 q 456 231 472 194 q 420 317 435 268 q 399 442 406 367 l 328 464 l 326 367 q 339 324 329 350 q 358 254 349 299 q 408 142 375 194 q 464 58 442 90 q 498 22 476 43 q 544 -18 519 1 q 590 -51 568 -37 q 624 -62 611 -64 m 313 453 l 351 376 q 372 396 353 379 q 419 433 392 413 q 471 472 446 454 q 506 494 496 489 q 528 506 519 493 q 540 525 538 518 q 556 539 546 532 q 567 546 567 546 q 577 549 572 544 q 588 553 582 553 q 638 601 599 569 q 733 669 678 633 q 799 717 774 697 q 825 738 825 738 q 849 758 829 746 q 896 783 869 771 q 936 811 928 801 q 942 835 944 821 q 935 860 943 846 q 916 884 928 875 q 893 888 904 893 q 869 876 888 889 q 828 847 851 864 q 772 807 808 835 q 700 761 735 779 l 529 622 q 444 554 469 578 q 414 526 418 531 l 313 453 "},"Ķ":{"ha":686,"x_min":113,"x_max":944,"o":"m 133 -51 q 149 -62 143 -57 q 161 -67 156 -67 q 180 -48 171 -67 q 204 20 189 -29 q 247 158 219 69 q 274 246 263 210 q 292 304 285 282 q 305 338 300 326 q 310 351 310 349 l 367 492 q 377 527 367 499 q 405 595 388 556 q 442 678 422 635 q 481 760 463 722 q 510 824 499 799 q 522 855 521 840 q 513 892 524 869 q 485 918 501 915 q 451 908 469 921 q 441 894 446 903 q 436 886 436 886 q 431 867 436 886 q 411 828 425 849 q 390 785 401 806 q 379 758 379 765 q 379 748 379 753 q 379 743 379 743 q 365 722 375 743 q 343 672 356 701 q 318 617 331 643 q 284 524 300 569 q 260 456 268 479 q 244 413 254 433 q 226 374 235 392 q 223 342 226 363 q 213 306 219 322 q 200 283 206 294 q 194 260 194 271 q 184 230 194 254 q 163 178 174 206 q 147 124 156 150 q 138 86 138 97 q 136 72 138 81 q 128 64 135 64 q 123 43 126 58 q 121 10 119 28 q 114 -30 113 -19 q 133 -51 115 -40 m 624 -62 q 670 -72 660 -79 q 685 -54 681 -64 q 690 -42 688 -50 q 692 -26 692 -35 q 690 -12 692 -17 q 677 5 689 -4 q 652 22 665 14 q 632 32 639 31 q 594 49 619 32 q 538 100 569 65 q 493 159 514 124 q 456 231 472 194 q 420 317 435 268 q 399 442 406 367 l 328 464 l 326 367 q 339 324 329 350 q 358 254 349 299 q 408 142 375 194 q 464 58 442 90 q 498 22 476 43 q 544 -18 519 1 q 590 -51 568 -37 q 624 -62 611 -64 m 313 453 l 351 376 q 372 396 353 379 q 419 433 392 413 q 471 472 446 454 q 506 494 496 489 q 528 506 519 493 q 540 525 538 518 q 556 539 546 532 q 567 546 567 546 q 577 549 572 544 q 588 553 582 553 q 638 601 599 569 q 733 669 678 633 q 799 717 774 697 q 825 738 825 738 q 849 758 829 746 q 896 783 869 771 q 936 811 928 801 q 942 835 944 821 q 935 860 943 846 q 916 884 928 875 q 893 888 904 893 q 869 876 888 889 q 828 847 851 864 q 772 807 808 835 q 700 761 735 779 l 529 622 q 444 554 469 578 q 414 526 418 531 l 313 453 m 225 -254 q 240 -254 235 -254 q 249 -253 246 -254 q 256 -249 253 -251 q 263 -244 260 -246 q 269 -242 265 -243 q 275 -242 272 -242 q 292 -226 279 -242 q 317 -194 304 -211 q 332 -172 329 -178 q 353 -118 347 -137 q 353 -69 358 -99 q 302 -62 322 -46 q 283 -117 282 -78 q 261 -168 285 -139 q 218 -218 238 -197 q 199 -244 199 -235 q 208 -253 204 -251 q 225 -254 211 -254 "},"L":{"ha":592,"x_min":140,"x_max":625,"o":"m 301 -53 q 359 -60 324 -60 q 433 -53 394 -60 q 499 -33 471 -46 q 552 -12 525 -25 q 599 13 579 0 q 621 33 618 26 q 622 53 625 46 q 613 67 619 61 q 592 69 606 72 q 547 57 578 65 q 524 51 539 54 q 492 44 508 47 q 453 35 474 40 q 415 28 433 31 l 417 28 q 369 20 386 22 q 340 19 351 18 q 319 23 331 19 q 293 32 308 26 q 241 63 263 44 q 217 106 219 82 q 219 156 215 124 q 231 224 222 189 q 249 285 239 260 q 250 308 249 296 q 258 325 251 319 q 264 342 263 335 q 268 349 265 350 q 269 358 268 349 q 279 378 271 368 q 307 452 293 417 q 342 531 321 488 q 344 536 343 533 q 347 543 346 539 q 363 573 347 543 q 396 643 378 603 q 435 709 413 672 q 483 781 458 746 q 526 841 507 815 q 556 872 546 867 q 562 884 561 874 q 558 908 563 894 q 544 932 554 922 q 510 951 524 953 q 472 924 496 950 q 430 873 454 907 q 379 797 406 839 q 330 712 353 754 q 292 636 307 669 q 279 605 285 621 q 272 582 274 589 q 257 553 263 567 l 257 550 q 245 526 253 544 q 229 487 238 508 q 215 447 221 465 q 208 425 208 429 q 203 416 208 425 q 196 404 199 407 q 188 389 192 399 q 185 374 183 379 q 185 365 185 374 q 178 349 186 357 q 168 334 172 343 q 164 325 164 325 q 165 309 165 319 q 158 282 165 299 q 151 255 154 268 q 149 236 147 242 q 144 219 149 222 q 141 190 142 215 q 142 136 140 165 q 146 89 144 107 q 202 3 158 44 q 301 -53 246 -39 "},"Ĺ":{"ha":592,"x_min":140,"x_max":796,"o":"m 301 -53 q 359 -60 324 -60 q 433 -53 394 -60 q 499 -33 471 -46 q 552 -12 525 -25 q 599 13 579 0 q 621 33 618 26 q 622 53 625 46 q 613 67 619 61 q 592 69 606 72 q 547 57 578 65 q 524 51 539 54 q 492 44 508 47 q 453 35 474 40 q 415 28 433 31 l 417 28 q 369 20 386 22 q 340 19 351 18 q 319 23 331 19 q 293 32 308 26 q 241 63 263 44 q 217 106 219 82 q 219 156 215 124 q 231 224 222 189 q 249 285 239 260 q 250 308 249 296 q 258 325 251 319 q 264 342 263 335 q 268 349 265 350 q 269 358 268 349 q 279 378 271 368 q 307 452 293 417 q 342 531 321 488 q 344 536 343 533 q 347 543 346 539 q 363 573 347 543 q 396 643 378 603 q 435 709 413 672 q 483 781 458 746 q 526 841 507 815 q 556 872 546 867 q 562 884 561 874 q 558 908 563 894 q 544 932 554 922 q 510 951 524 953 q 472 924 496 950 q 430 873 454 907 q 379 797 406 839 q 330 712 353 754 q 292 636 307 669 q 279 605 285 621 q 272 582 274 589 q 257 553 263 567 l 257 550 q 245 526 253 544 q 229 487 238 508 q 215 447 221 465 q 208 425 208 429 q 203 416 208 425 q 196 404 199 407 q 188 389 192 399 q 185 374 183 379 q 185 365 185 374 q 178 349 186 357 q 168 334 172 343 q 164 325 164 325 q 165 309 165 319 q 158 282 165 299 q 151 255 154 268 q 149 236 147 242 q 144 219 149 222 q 141 190 142 215 q 142 136 140 165 q 146 89 144 107 q 202 3 158 44 q 301 -53 246 -39 m 617 992 q 641 983 633 979 q 663 1010 649 988 q 697 1044 674 1025 q 743 1082 719 1063 q 781 1119 767 1101 q 792 1149 796 1136 q 764 1184 778 1171 q 735 1188 750 1197 q 703 1164 725 1183 q 658 1119 682 1144 q 617 1074 635 1094 q 599 1046 600 1053 q 602 1021 597 1040 q 617 992 607 1001 "},"Ľ":{"ha":592,"x_min":140,"x_max":811,"o":"m 301 -53 q 359 -60 324 -60 q 433 -53 394 -60 q 499 -33 471 -46 q 552 -12 525 -25 q 599 13 579 0 q 621 33 618 26 q 622 53 625 46 q 613 67 619 61 q 592 69 606 72 q 547 57 578 65 q 524 51 539 54 q 492 44 508 47 q 453 35 474 40 q 415 28 433 31 l 417 28 q 369 20 386 22 q 340 19 351 18 q 319 23 331 19 q 293 32 308 26 q 241 63 263 44 q 217 106 219 82 q 219 156 215 124 q 231 224 222 189 q 249 285 239 260 q 250 308 249 296 q 258 325 251 319 q 264 342 263 335 q 268 349 265 350 q 269 358 268 349 q 279 378 271 368 q 307 452 293 417 q 342 531 321 488 q 344 536 343 533 q 347 543 346 539 q 363 573 347 543 q 396 643 378 603 q 435 709 413 672 q 483 781 458 746 q 526 841 507 815 q 556 872 546 867 q 562 884 561 874 q 558 908 563 894 q 544 932 554 922 q 510 951 524 953 q 472 924 496 950 q 430 873 454 907 q 379 797 406 839 q 330 712 353 754 q 292 636 307 669 q 279 605 285 621 q 272 582 274 589 q 257 553 263 567 l 257 550 q 245 526 253 544 q 229 487 238 508 q 215 447 221 465 q 208 425 208 429 q 203 416 208 425 q 196 404 199 407 q 188 389 192 399 q 185 374 183 379 q 185 365 185 374 q 178 349 186 357 q 168 334 172 343 q 164 325 164 325 q 165 309 165 319 q 158 282 165 299 q 151 255 154 268 q 149 236 147 242 q 144 219 149 222 q 141 190 142 215 q 142 136 140 165 q 146 89 144 107 q 202 3 158 44 q 301 -53 246 -39 m 661 722 q 685 723 676 722 q 700 729 694 724 q 710 738 706 735 q 719 742 714 742 q 738 758 724 742 q 767 792 753 774 q 785 821 782 811 q 806 879 800 856 q 806 932 811 903 q 767 949 785 953 q 738 926 749 946 q 728 876 726 907 q 716 842 729 863 q 685 801 703 821 q 654 767 668 781 q 640 752 644 758 q 635 736 635 746 q 644 724 640 726 q 661 722 647 722 "},"Ļ":{"ha":592,"x_min":140,"x_max":625,"o":"m 301 -53 q 359 -60 324 -60 q 433 -53 394 -60 q 499 -33 471 -46 q 552 -12 525 -25 q 599 13 579 0 q 621 33 618 26 q 622 53 625 46 q 613 67 619 61 q 592 69 606 72 q 547 57 578 65 q 524 51 539 54 q 492 44 508 47 q 453 35 474 40 q 415 28 433 31 l 417 28 q 369 20 386 22 q 340 19 351 18 q 319 23 331 19 q 293 32 308 26 q 241 63 263 44 q 217 106 219 82 q 219 156 215 124 q 231 224 222 189 q 249 285 239 260 q 250 308 249 296 q 258 325 251 319 q 264 342 263 335 q 268 349 265 350 q 269 358 268 349 q 279 378 271 368 q 307 452 293 417 q 342 531 321 488 q 344 536 343 533 q 347 543 346 539 q 363 573 347 543 q 396 643 378 603 q 435 709 413 672 q 483 781 458 746 q 526 841 507 815 q 556 872 546 867 q 562 884 561 874 q 558 908 563 894 q 544 932 554 922 q 510 951 524 953 q 472 924 496 950 q 430 873 454 907 q 379 797 406 839 q 330 712 353 754 q 292 636 307 669 q 279 605 285 621 q 272 582 274 589 q 257 553 263 567 l 257 550 q 245 526 253 544 q 229 487 238 508 q 215 447 221 465 q 208 425 208 429 q 203 416 208 425 q 196 404 199 407 q 188 389 192 399 q 185 374 183 379 q 185 365 185 374 q 178 349 186 357 q 168 334 172 343 q 164 325 164 325 q 165 309 165 319 q 158 282 165 299 q 151 255 154 268 q 149 236 147 242 q 144 219 149 222 q 141 190 142 215 q 142 136 140 165 q 146 89 144 107 q 202 3 158 44 q 301 -53 246 -39 m 182 -317 q 197 -317 192 -317 q 206 -315 203 -317 q 213 -311 210 -314 q 219 -307 217 -308 q 226 -305 222 -306 q 232 -304 229 -304 q 249 -289 236 -304 q 274 -257 261 -274 q 289 -235 286 -240 q 310 -181 304 -200 q 310 -132 315 -161 q 259 -124 279 -108 q 240 -179 239 -140 q 218 -231 242 -201 q 175 -281 194 -260 q 156 -307 156 -297 q 165 -315 161 -314 q 182 -317 168 -317 "},"Ŀ":{"ha":592,"x_min":140,"x_max":664,"o":"m 301 -53 q 359 -60 324 -60 q 433 -53 394 -60 q 499 -33 471 -46 q 552 -12 525 -25 q 599 13 579 0 q 621 33 618 26 q 622 53 625 46 q 613 67 619 61 q 592 69 606 72 q 547 57 578 65 q 524 51 539 54 q 492 44 508 47 q 453 35 474 40 q 415 28 433 31 l 417 28 q 369 20 386 22 q 340 19 351 18 q 319 23 331 19 q 293 32 308 26 q 241 63 263 44 q 217 106 219 82 q 219 156 215 124 q 231 224 222 189 q 249 285 239 260 q 250 308 249 296 q 258 325 251 319 q 264 342 263 335 q 268 349 265 350 q 269 358 268 349 q 279 378 271 368 q 307 452 293 417 q 342 531 321 488 q 344 536 343 533 q 347 543 346 539 q 363 573 347 543 q 396 643 378 603 q 435 709 413 672 q 483 781 458 746 q 526 841 507 815 q 556 872 546 867 q 562 884 561 874 q 558 908 563 894 q 544 932 554 922 q 510 951 524 953 q 472 924 496 950 q 430 873 454 907 q 379 797 406 839 q 330 712 353 754 q 292 636 307 669 q 279 605 285 621 q 272 582 274 589 q 257 553 263 567 l 257 550 q 245 526 253 544 q 229 487 238 508 q 215 447 221 465 q 208 425 208 429 q 203 416 208 425 q 196 404 199 407 q 188 389 192 399 q 185 374 183 379 q 185 365 185 374 q 178 349 186 357 q 168 334 172 343 q 164 325 164 325 q 165 309 165 319 q 158 282 165 299 q 151 255 154 268 q 149 236 147 242 q 144 219 149 222 q 141 190 142 215 q 142 136 140 165 q 146 89 144 107 q 202 3 158 44 q 301 -53 246 -39 m 553 344 q 590 332 572 329 q 628 363 607 335 q 658 410 653 393 q 651 454 664 428 q 622 484 638 476 q 589 481 606 492 q 575 464 575 478 q 569 438 576 453 q 553 413 563 424 q 536 401 543 403 q 533 390 532 401 q 540 365 535 378 q 553 344 546 351 "},"Ł":{"ha":592,"x_min":60,"x_max":625,"o":"m 82 306 q 99 299 90 300 q 126 307 108 297 q 154 313 143 308 q 172 321 165 317 q 220 343 186 328 q 297 378 254 358 q 381 415 340 397 q 452 445 422 433 q 488 457 482 457 q 531 488 507 474 q 560 511 554 501 q 586 541 589 522 q 556 568 583 560 q 524 569 538 572 q 479 553 511 567 q 422 526 460 543 q 338 489 383 510 q 247 447 292 468 q 167 404 201 425 q 118 368 132 383 q 66 333 72 350 q 82 306 60 317 m 301 -53 q 359 -60 324 -60 q 433 -53 394 -60 q 499 -33 471 -46 q 552 -12 525 -25 q 599 13 579 0 q 621 33 618 26 q 622 53 625 46 q 613 67 619 61 q 592 69 606 72 q 547 57 578 65 q 524 51 539 54 q 492 44 508 47 q 453 35 474 40 q 415 28 433 31 l 417 28 q 369 20 386 22 q 340 19 351 18 q 319 23 331 19 q 293 32 308 26 q 241 63 263 44 q 217 106 219 82 q 219 156 215 124 q 231 224 222 189 q 249 285 239 260 q 250 308 249 296 q 258 325 251 319 q 264 342 263 335 q 268 349 265 350 q 269 358 268 349 q 279 378 271 368 q 307 452 293 417 q 342 531 321 488 q 344 536 343 533 q 347 543 346 539 q 363 573 347 543 q 396 643 378 603 q 435 709 413 672 q 483 781 458 746 q 526 841 507 815 q 556 872 546 867 q 562 884 561 874 q 558 908 563 894 q 544 932 554 922 q 510 951 524 953 q 472 924 496 950 q 430 873 454 907 q 379 797 406 839 q 330 712 353 754 q 292 636 307 669 q 279 605 285 621 q 272 582 274 589 q 257 553 263 567 l 257 550 q 245 526 253 544 q 229 487 238 508 q 215 447 221 465 q 208 425 208 429 q 203 416 208 425 q 196 404 199 407 q 188 389 192 399 q 185 374 183 379 q 185 365 185 374 q 178 349 186 357 q 168 334 172 343 q 164 325 164 325 q 165 309 165 319 q 158 282 165 299 q 151 255 154 268 q 149 236 147 242 q 144 219 149 222 q 141 190 142 215 q 142 136 140 165 q 146 89 144 107 q 202 3 158 44 q 301 -53 246 -39 "},"M":{"ha":1000,"x_min":47,"x_max":1110,"o":"m 918 -67 q 936 -60 918 -54 q 946 -39 943 -61 q 954 38 949 -17 q 958 124 954 82 q 975 188 963 165 q 981 247 972 203 q 997 338 990 292 q 1019 408 1008 371 q 1040 481 1031 446 q 1053 540 1049 517 q 1085 653 1072 599 q 1103 751 1097 708 q 1108 814 1110 794 q 1091 883 1107 856 q 1054 920 1075 911 q 1014 911 1033 929 q 967 851 996 897 q 907 756 939 804 q 788 551 840 639 q 699 401 736 463 q 639 301 663 340 q 604 243 615 263 q 570 198 588 222 q 543 157 553 174 q 519 121 526 125 q 503 122 513 117 q 501 166 499 128 q 511 263 503 204 q 532 391 519 322 q 560 527 544 460 q 593 649 575 594 q 598 680 594 660 q 606 724 601 700 q 610 768 610 749 q 611 835 619 818 q 592 868 603 851 q 568 886 579 883 q 543 889 557 889 q 519 867 531 892 q 507 814 507 843 q 499 792 507 804 q 485 772 492 779 q 418 676 463 751 q 310 490 374 600 q 275 423 294 458 q 238 358 256 388 q 210 311 221 329 q 180 255 194 281 q 158 221 165 229 q 151 194 157 206 q 139 172 146 183 q 115 140 131 167 q 82 76 100 113 q 57 19 65 38 q 48 -10 49 0 q 51 -29 47 -19 q 78 -53 65 -43 q 104 -64 92 -64 q 111 -54 107 -61 q 125 -28 115 -47 q 156 32 135 -8 q 215 141 178 72 q 308 315 251 210 q 370 436 339 381 q 425 530 401 492 q 454 578 449 568 q 471 594 467 597 q 472 564 475 592 q 462 524 468 554 q 448 449 456 493 q 432 356 440 406 q 414 258 424 307 q 404 152 406 194 q 411 81 403 110 q 438 31 419 53 q 503 6 474 -3 q 581 67 532 15 q 616 110 597 85 q 648 156 635 135 q 661 181 661 176 q 666 190 661 181 q 679 212 671 199 q 696 238 688 225 q 726 280 713 258 q 746 317 740 301 q 761 347 749 324 q 786 389 774 371 q 831 469 806 421 q 878 558 856 517 q 921 636 901 594 q 954 692 940 678 q 979 729 969 715 q 989 743 989 743 q 994 758 988 749 q 1009 776 1001 768 q 1017 779 1017 783 q 1011 750 1017 779 q 995 674 1006 721 q 968 572 985 628 q 924 367 944 465 q 890 191 904 269 q 867 64 875 113 q 865 -3 865 19 q 876 -51 865 -25 q 902 -72 888 -68 q 918 -67 917 -75 "},"N":{"ha":832,"x_min":113,"x_max":1022,"o":"m 135 -86 q 178 -102 163 -115 q 207 -50 193 -89 q 242 58 218 -19 q 317 267 267 136 q 335 324 324 297 q 354 368 346 351 q 368 402 357 375 q 394 466 379 429 q 426 540 410 503 q 451 604 442 578 q 490 702 478 678 q 506 704 501 726 q 511 615 510 682 q 503 487 508 549 q 499 367 497 425 q 522 251 501 308 q 546 133 536 181 q 571 49 556 85 q 613 -22 586 14 q 697 -63 657 -79 q 769 29 736 -47 q 840 209 800 99 q 915 476 879 319 q 929 506 922 475 q 942 574 936 538 q 955 640 946 601 q 972 714 964 679 q 981 764 981 749 q 1012 908 1001 854 q 1019 976 1022 961 q 999 999 1015 990 q 965 1008 982 1007 q 944 997 949 1008 q 931 976 938 990 q 925 938 925 961 q 919 905 925 924 q 907 886 914 886 q 908 872 908 879 q 907 856 907 865 q 899 819 907 851 q 882 746 892 788 q 863 669 872 704 q 845 563 857 615 q 826 486 833 510 q 767 263 793 350 q 722 129 740 176 q 691 64 703 82 q 672 46 679 46 q 658 69 667 46 q 640 128 649 93 q 623 198 631 163 q 611 258 615 233 q 597 369 599 304 q 596 512 594 435 q 594 668 597 589 q 589 772 593 735 q 580 828 585 808 q 568 861 575 847 q 540 898 560 889 q 497 899 519 907 q 458 861 475 890 q 418 785 433 824 q 388 698 403 746 q 350 583 374 650 q 317 515 335 549 q 289 457 300 481 q 276 428 278 433 q 267 399 276 428 q 240 324 257 369 q 200 226 222 278 q 177 142 190 175 q 151 80 164 110 q 126 6 138 50 q 116 -35 119 -21 q 117 -60 113 -50 q 135 -86 121 -71 "},"Ń":{"ha":786,"x_min":113,"x_max":1022,"o":"m 135 -86 q 178 -102 163 -115 q 207 -50 193 -89 q 242 58 218 -19 q 317 267 267 136 q 335 324 324 297 q 354 368 346 351 q 368 402 357 375 q 394 466 379 429 q 426 540 410 503 q 451 604 442 578 q 490 702 478 678 q 506 704 501 726 q 511 615 510 682 q 503 487 508 549 q 499 367 497 425 q 522 251 501 308 q 546 133 536 181 q 571 49 556 85 q 613 -22 586 14 q 697 -63 657 -79 q 769 29 736 -47 q 840 209 800 99 q 915 476 879 319 q 929 506 922 475 q 942 574 936 538 q 955 640 946 601 q 972 714 964 679 q 981 764 981 749 q 1012 908 1001 854 q 1019 976 1022 961 q 999 999 1015 990 q 965 1008 982 1007 q 944 997 949 1008 q 931 976 938 990 q 925 938 925 961 q 919 905 925 924 q 907 886 914 886 q 908 872 908 879 q 907 856 907 865 q 899 819 907 851 q 882 746 892 788 q 863 669 872 704 q 845 563 857 615 q 826 486 833 510 q 767 263 793 350 q 722 129 740 176 q 691 64 703 82 q 672 46 679 46 q 658 69 667 46 q 640 128 649 93 q 623 198 631 163 q 611 258 615 233 q 597 369 599 304 q 596 512 594 435 q 594 668 597 589 q 589 772 593 735 q 580 828 585 808 q 568 861 575 847 q 540 898 560 889 q 497 899 519 907 q 458 861 475 890 q 418 785 433 824 q 388 698 403 746 q 350 583 374 650 q 317 515 335 549 q 289 457 300 481 q 276 428 278 433 q 267 399 276 428 q 240 324 257 369 q 200 226 222 278 q 177 142 190 175 q 151 80 164 110 q 126 6 138 50 q 116 -35 119 -21 q 117 -60 113 -50 q 135 -86 121 -71 m 636 992 q 660 983 653 979 q 682 1010 668 988 q 716 1044 693 1025 q 763 1082 739 1063 q 801 1119 786 1101 q 811 1149 815 1136 q 783 1184 797 1171 q 754 1188 769 1197 q 723 1164 744 1183 q 678 1119 701 1144 q 637 1074 654 1094 q 618 1046 619 1053 q 622 1021 617 1040 q 636 992 626 1001 "},"Ň":{"ha":786,"x_min":113,"x_max":1022,"o":"m 135 -86 q 178 -102 163 -115 q 207 -50 193 -89 q 242 58 218 -19 q 317 267 267 136 q 335 324 324 297 q 354 368 346 351 q 368 402 357 375 q 394 466 379 429 q 426 540 410 503 q 451 604 442 578 q 490 702 478 678 q 506 704 501 726 q 511 615 510 682 q 503 487 508 549 q 499 367 497 425 q 522 251 501 308 q 546 133 536 181 q 571 49 556 85 q 613 -22 586 14 q 697 -63 657 -79 q 769 29 736 -47 q 840 209 800 99 q 915 476 879 319 q 929 506 922 475 q 942 574 936 538 q 955 640 946 601 q 972 714 964 679 q 981 764 981 749 q 1012 908 1001 854 q 1019 976 1022 961 q 999 999 1015 990 q 965 1008 982 1007 q 944 997 949 1008 q 931 976 938 990 q 925 938 925 961 q 919 905 925 924 q 907 886 914 886 q 908 872 908 879 q 907 856 907 865 q 899 819 907 851 q 882 746 892 788 q 863 669 872 704 q 845 563 857 615 q 826 486 833 510 q 767 263 793 350 q 722 129 740 176 q 691 64 703 82 q 672 46 679 46 q 658 69 667 46 q 640 128 649 93 q 623 198 631 163 q 611 258 615 233 q 597 369 599 304 q 596 512 594 435 q 594 668 597 589 q 589 772 593 735 q 580 828 585 808 q 568 861 575 847 q 540 898 560 889 q 497 899 519 907 q 458 861 475 890 q 418 785 433 824 q 388 698 403 746 q 350 583 374 650 q 317 515 335 549 q 289 457 300 481 q 276 428 278 433 q 267 399 276 428 q 240 324 257 369 q 200 226 222 278 q 177 142 190 175 q 151 80 164 110 q 126 6 138 50 q 116 -35 119 -21 q 117 -60 113 -50 q 135 -86 121 -71 m 706 997 q 744 1022 721 1006 q 791 1056 767 1038 q 833 1090 815 1074 q 851 1111 850 1106 q 854 1139 857 1124 q 836 1158 851 1154 q 788 1136 821 1161 q 760 1115 778 1128 q 724 1090 743 1103 q 688 1068 704 1078 q 642 1106 665 1088 q 610 1139 619 1125 q 572 1161 588 1165 q 552 1140 557 1157 q 551 1110 547 1124 q 575 1085 554 1106 q 622 1040 596 1064 q 664 1000 647 1015 q 683 990 672 990 q 706 997 694 989 "},"Ņ":{"ha":786,"x_min":113,"x_max":1022,"o":"m 135 -86 q 178 -102 163 -115 q 207 -50 193 -89 q 242 58 218 -19 q 317 267 267 136 q 335 324 324 297 q 354 368 346 351 q 368 402 357 375 q 394 466 379 429 q 426 540 410 503 q 451 604 442 578 q 490 702 478 678 q 506 704 501 726 q 511 615 510 682 q 503 487 508 549 q 499 367 497 425 q 522 251 501 308 q 546 133 536 181 q 571 49 556 85 q 613 -22 586 14 q 697 -63 657 -79 q 769 29 736 -47 q 840 209 800 99 q 915 476 879 319 q 929 506 922 475 q 942 574 936 538 q 955 640 946 601 q 972 714 964 679 q 981 764 981 749 q 1012 908 1001 854 q 1019 976 1022 961 q 999 999 1015 990 q 965 1008 982 1007 q 944 997 949 1008 q 931 976 938 990 q 925 938 925 961 q 919 905 925 924 q 907 886 914 886 q 908 872 908 879 q 907 856 907 865 q 899 819 907 851 q 882 746 892 788 q 863 669 872 704 q 845 563 857 615 q 826 486 833 510 q 767 263 793 350 q 722 129 740 176 q 691 64 703 82 q 672 46 679 46 q 658 69 667 46 q 640 128 649 93 q 623 198 631 163 q 611 258 615 233 q 597 369 599 304 q 596 512 594 435 q 594 668 597 589 q 589 772 593 735 q 580 828 585 808 q 568 861 575 847 q 540 898 560 889 q 497 899 519 907 q 458 861 475 890 q 418 785 433 824 q 388 698 403 746 q 350 583 374 650 q 317 515 335 549 q 289 457 300 481 q 276 428 278 433 q 267 399 276 428 q 240 324 257 369 q 200 226 222 278 q 177 142 190 175 q 151 80 164 110 q 126 6 138 50 q 116 -35 119 -21 q 117 -60 113 -50 q 135 -86 121 -71 m 285 -254 q 300 -254 294 -254 q 309 -253 306 -254 q 315 -249 313 -251 q 322 -244 319 -246 q 328 -242 325 -243 q 335 -242 332 -242 q 351 -226 339 -242 q 376 -194 364 -211 q 392 -172 389 -178 q 413 -118 407 -137 q 413 -69 418 -99 q 362 -62 382 -46 q 343 -117 342 -78 q 321 -168 344 -139 q 278 -218 297 -197 q 258 -244 258 -235 q 267 -253 264 -251 q 285 -254 271 -254 "},"Ṅ":{"ha":786,"x_min":113,"x_max":1022,"o":"m 135 -86 q 178 -102 163 -115 q 207 -50 193 -89 q 242 58 218 -19 q 317 267 267 136 q 335 324 324 297 q 354 368 346 351 q 368 402 357 375 q 394 466 379 429 q 426 540 410 503 q 451 604 442 578 q 490 702 478 678 q 506 704 501 726 q 511 615 510 682 q 503 487 508 549 q 499 367 497 425 q 522 251 501 308 q 546 133 536 181 q 571 49 556 85 q 613 -22 586 14 q 697 -63 657 -79 q 769 29 736 -47 q 840 209 800 99 q 915 476 879 319 q 929 506 922 475 q 942 574 936 538 q 955 640 946 601 q 972 714 964 679 q 981 764 981 749 q 1012 908 1001 854 q 1019 976 1022 961 q 999 999 1015 990 q 965 1008 982 1007 q 944 997 949 1008 q 931 976 938 990 q 925 938 925 961 q 919 905 925 924 q 907 886 914 886 q 908 872 908 879 q 907 856 907 865 q 899 819 907 851 q 882 746 892 788 q 863 669 872 704 q 845 563 857 615 q 826 486 833 510 q 767 263 793 350 q 722 129 740 176 q 691 64 703 82 q 672 46 679 46 q 658 69 667 46 q 640 128 649 93 q 623 198 631 163 q 611 258 615 233 q 597 369 599 304 q 596 512 594 435 q 594 668 597 589 q 589 772 593 735 q 580 828 585 808 q 568 861 575 847 q 540 898 560 889 q 497 899 519 907 q 458 861 475 890 q 418 785 433 824 q 388 698 403 746 q 350 583 374 650 q 317 515 335 549 q 289 457 300 481 q 276 428 278 433 q 267 399 276 428 q 240 324 257 369 q 200 226 222 278 q 177 142 190 175 q 151 80 164 110 q 126 6 138 50 q 116 -35 119 -21 q 117 -60 113 -50 q 135 -86 121 -71 m 661 1025 q 698 1013 681 1010 q 736 1043 715 1015 q 767 1091 761 1074 q 760 1135 772 1108 q 730 1165 746 1157 q 697 1161 714 1172 q 687 1153 692 1160 q 678 1144 682 1147 q 651 1108 660 1129 q 640 1079 643 1086 q 645 1054 639 1074 q 661 1025 651 1035 "},"Ŋ":{"ha":786,"x_min":133,"x_max":960,"o":"m 496 -217 q 528 -185 508 -207 q 565 -140 547 -164 q 590 -99 583 -115 q 626 -27 614 -58 q 639 8 639 4 q 643 17 639 13 q 649 28 647 22 q 661 53 653 33 q 679 96 669 74 q 694 128 689 118 q 699 145 697 136 q 701 163 700 154 q 717 189 713 176 q 733 212 725 201 q 740 222 740 222 q 748 238 740 222 q 760 272 756 254 l 788 328 q 810 377 794 339 q 845 465 826 415 q 882 566 864 515 q 910 653 900 617 l 957 789 q 959 815 960 808 q 950 839 958 821 q 921 865 932 856 q 903 875 910 875 q 884 851 893 875 q 860 767 875 826 q 846 723 853 746 q 840 688 839 700 q 828 657 832 674 q 817 633 824 640 q 808 601 817 626 q 788 544 800 575 q 767 490 776 514 q 756 464 757 467 q 740 433 750 450 q 726 394 731 417 q 706 351 719 379 q 679 299 692 324 q 660 268 667 274 q 653 251 660 268 q 632 221 646 233 q 612 194 622 206 q 601 182 601 182 q 597 191 597 182 q 588 214 596 200 q 581 248 588 226 q 578 274 575 269 q 575 317 578 278 q 569 417 572 357 q 563 542 565 476 q 559 690 561 636 q 555 772 557 744 q 549 811 553 799 q 538 836 544 824 q 513 869 524 858 q 483 876 501 879 q 470 870 475 876 q 467 857 465 864 q 460 849 464 854 q 449 842 456 843 q 435 834 443 840 q 421 826 428 828 q 407 786 421 824 q 370 690 393 749 q 318 565 347 632 q 255 400 286 485 q 198 239 224 315 q 155 105 172 163 q 133 19 138 47 q 144 -1 135 13 q 166 -24 153 -14 q 192 -32 179 -33 q 208 -22 200 -31 q 220 -1 215 -14 q 224 22 225 11 q 243 86 226 38 q 290 215 260 135 q 310 274 296 233 q 344 367 325 314 q 385 474 364 419 q 424 576 406 529 q 454 651 442 622 q 468 681 467 681 q 470 617 469 675 q 476 472 471 558 q 483 353 479 400 q 491 275 486 307 q 501 213 496 243 q 535 120 513 158 q 582 63 558 82 q 547 -10 567 31 q 510 -84 528 -50 q 481 -132 493 -118 q 431 -160 463 -158 q 383 -158 399 -162 q 353 -151 367 -149 q 335 -165 340 -153 q 338 -197 331 -178 q 387 -233 358 -222 q 445 -239 415 -243 q 496 -217 475 -235 "},"Ñ":{"ha":786,"x_min":113,"x_max":1022,"o":"m 135 -86 q 178 -102 163 -115 q 207 -50 193 -89 q 242 58 218 -19 q 317 267 267 136 q 335 324 324 297 q 354 368 346 351 q 368 402 357 375 q 394 466 379 429 q 426 540 410 503 q 451 604 442 578 q 490 702 478 678 q 506 704 501 726 q 511 615 510 682 q 503 487 508 549 q 499 367 497 425 q 522 251 501 308 q 546 133 536 181 q 571 49 556 85 q 613 -22 586 14 q 697 -63 657 -79 q 769 29 736 -47 q 840 209 800 99 q 915 476 879 319 q 929 506 922 475 q 942 574 936 538 q 955 640 946 601 q 972 714 964 679 q 981 764 981 749 q 1012 908 1001 854 q 1019 976 1022 961 q 999 999 1015 990 q 965 1008 982 1007 q 944 997 949 1008 q 931 976 938 990 q 925 938 925 961 q 919 905 925 924 q 907 886 914 886 q 908 872 908 879 q 907 856 907 865 q 899 819 907 851 q 882 746 892 788 q 863 669 872 704 q 845 563 857 615 q 826 486 833 510 q 767 263 793 350 q 722 129 740 176 q 691 64 703 82 q 672 46 679 46 q 658 69 667 46 q 640 128 649 93 q 623 198 631 163 q 611 258 615 233 q 597 369 599 304 q 596 512 594 435 q 594 668 597 589 q 589 772 593 735 q 580 828 585 808 q 568 861 575 847 q 540 898 560 889 q 497 899 519 907 q 458 861 475 890 q 418 785 433 824 q 388 698 403 746 q 350 583 374 650 q 317 515 335 549 q 289 457 300 481 q 276 428 278 433 q 267 399 276 428 q 240 324 257 369 q 200 226 222 278 q 177 142 190 175 q 151 80 164 110 q 126 6 138 50 q 116 -35 119 -21 q 117 -60 113 -50 q 135 -86 121 -71 m 758 1013 q 773 1015 764 1013 q 804 1029 782 1018 q 868 1064 826 1040 q 890 1085 881 1071 q 899 1104 899 1099 q 896 1122 900 1113 q 883 1137 892 1132 q 865 1138 875 1142 q 812 1110 836 1126 q 767 1089 788 1094 q 724 1091 740 1078 q 675 1133 707 1104 q 623 1161 653 1154 q 576 1161 593 1168 q 510 1106 529 1138 q 489 1061 490 1074 q 495 1044 488 1054 q 517 1031 503 1035 q 526 1034 519 1024 q 535 1051 533 1044 q 558 1066 550 1054 q 576 1089 567 1078 q 599 1100 585 1100 q 636 1079 615 1100 q 669 1051 657 1058 q 713 1023 696 1033 q 758 1013 731 1013 "},"O":{"ha":689,"x_min":158,"x_max":818,"o":"m 243 -28 q 347 -57 288 -62 q 469 -10 406 -51 q 592 101 532 31 q 701 268 653 172 q 773 401 747 344 q 808 506 799 458 q 816 603 818 554 q 804 714 814 653 q 747 858 786 811 q 631 921 708 904 q 592 918 615 928 q 540 892 568 908 q 463 842 497 872 q 371 754 428 813 q 321 681 346 721 q 270 584 296 640 q 217 444 244 528 q 196 367 207 397 q 186 331 185 338 q 187 319 186 331 q 181 300 188 307 q 171 238 176 279 q 162 153 165 196 q 161 85 158 110 q 178 33 164 54 q 243 -28 192 11 m 332 13 q 291 15 311 8 q 263 36 271 22 q 244 65 250 57 q 239 86 239 72 q 242 138 239 100 q 258 245 244 183 q 290 370 271 307 q 331 483 310 433 q 371 553 353 533 q 377 567 376 560 q 378 574 378 574 q 394 609 378 583 q 435 668 410 635 q 490 733 461 701 q 546 790 519 765 q 589 821 572 814 q 644 828 619 835 q 683 807 669 822 q 703 769 694 794 q 713 719 711 743 q 713 638 713 669 q 713 581 714 606 q 706 529 711 557 q 689 460 700 501 q 655 351 669 393 q 624 281 640 310 q 585 223 608 251 q 526 153 563 194 q 454 77 486 107 q 393 32 422 47 q 332 13 364 17 "},"Ó":{"ha":689,"x_min":158,"x_max":843,"o":"m 243 -28 q 347 -57 288 -62 q 469 -10 406 -51 q 592 101 532 31 q 701 268 653 172 q 773 401 747 344 q 808 506 799 458 q 816 603 818 554 q 804 714 814 653 q 747 858 786 811 q 631 921 708 904 q 592 918 615 928 q 540 892 568 908 q 463 842 497 872 q 371 754 428 813 q 321 681 346 721 q 270 584 296 640 q 217 444 244 528 q 196 367 207 397 q 186 331 185 338 q 187 319 186 331 q 181 300 188 307 q 171 238 176 279 q 162 153 165 196 q 161 85 158 110 q 178 33 164 54 q 243 -28 192 11 m 332 13 q 291 15 311 8 q 263 36 271 22 q 244 65 250 57 q 239 86 239 72 q 242 138 239 100 q 258 245 244 183 q 290 370 271 307 q 331 483 310 433 q 371 553 353 533 q 377 567 376 560 q 378 574 378 574 q 394 609 378 583 q 435 668 410 635 q 490 733 461 701 q 546 790 519 765 q 589 821 572 814 q 644 828 619 835 q 683 807 669 822 q 703 769 694 794 q 713 719 711 743 q 713 638 713 669 q 713 581 714 606 q 706 529 711 557 q 689 460 700 501 q 655 351 669 393 q 624 281 640 310 q 585 223 608 251 q 526 153 563 194 q 454 77 486 107 q 393 32 422 47 q 332 13 364 17 m 664 992 q 688 983 681 979 q 710 1010 696 988 q 744 1044 721 1025 q 790 1082 767 1063 q 828 1119 814 1101 q 839 1149 843 1136 q 811 1184 825 1171 q 782 1188 797 1197 q 751 1164 772 1183 q 706 1119 729 1144 q 665 1074 682 1094 q 646 1046 647 1053 q 649 1021 644 1040 q 664 992 654 1001 "},"Ŏ":{"ha":689,"x_min":158,"x_max":896,"o":"m 243 -28 q 347 -57 288 -62 q 469 -10 406 -51 q 592 101 532 31 q 701 268 653 172 q 773 401 747 344 q 808 506 799 458 q 816 603 818 554 q 804 714 814 653 q 747 858 786 811 q 631 921 708 904 q 592 918 615 928 q 540 892 568 908 q 463 842 497 872 q 371 754 428 813 q 321 681 346 721 q 270 584 296 640 q 217 444 244 528 q 196 367 207 397 q 186 331 185 338 q 187 319 186 331 q 181 300 188 307 q 171 238 176 279 q 162 153 165 196 q 161 85 158 110 q 178 33 164 54 q 243 -28 192 11 m 332 13 q 291 15 311 8 q 263 36 271 22 q 244 65 250 57 q 239 86 239 72 q 242 138 239 100 q 258 245 244 183 q 290 370 271 307 q 331 483 310 433 q 371 553 353 533 q 377 567 376 560 q 378 574 378 574 q 394 609 378 583 q 435 668 410 635 q 490 733 461 701 q 546 790 519 765 q 589 821 572 814 q 644 828 619 835 q 683 807 669 822 q 703 769 694 794 q 713 719 711 743 q 713 638 713 669 q 713 581 714 606 q 706 529 711 557 q 689 460 700 501 q 655 351 669 393 q 624 281 640 310 q 585 223 608 251 q 526 153 563 194 q 454 77 486 107 q 393 32 422 47 q 332 13 364 17 m 708 974 q 778 987 746 971 q 835 1028 811 1003 q 874 1077 860 1053 q 893 1114 889 1101 q 892 1137 896 1124 q 880 1158 889 1150 q 858 1160 871 1165 q 831 1128 846 1154 q 805 1092 822 1114 q 767 1053 788 1069 q 729 1035 747 1036 q 669 1051 688 1033 q 649 1092 651 1068 q 650 1131 646 1115 q 649 1165 657 1154 q 628 1176 642 1176 q 603 1161 615 1175 q 586 1122 590 1147 q 591 1049 579 1081 q 633 997 603 1017 q 708 974 664 978 "},"Ô":{"ha":689,"x_min":158,"x_max":890,"o":"m 243 -28 q 347 -57 288 -62 q 469 -10 406 -51 q 592 101 532 31 q 701 268 653 172 q 773 401 747 344 q 808 506 799 458 q 816 603 818 554 q 804 714 814 653 q 747 858 786 811 q 631 921 708 904 q 592 918 615 928 q 540 892 568 908 q 463 842 497 872 q 371 754 428 813 q 321 681 346 721 q 270 584 296 640 q 217 444 244 528 q 196 367 207 397 q 186 331 185 338 q 187 319 186 331 q 181 300 188 307 q 171 238 176 279 q 162 153 165 196 q 161 85 158 110 q 178 33 164 54 q 243 -28 192 11 m 332 13 q 291 15 311 8 q 263 36 271 22 q 244 65 250 57 q 239 86 239 72 q 242 138 239 100 q 258 245 244 183 q 290 370 271 307 q 331 483 310 433 q 371 553 353 533 q 377 567 376 560 q 378 574 378 574 q 394 609 378 583 q 435 668 410 635 q 490 733 461 701 q 546 790 519 765 q 589 821 572 814 q 644 828 619 835 q 683 807 669 822 q 703 769 694 794 q 713 719 711 743 q 713 638 713 669 q 713 581 714 606 q 706 529 711 557 q 689 460 700 501 q 655 351 669 393 q 624 281 640 310 q 585 223 608 251 q 526 153 563 194 q 454 77 486 107 q 393 32 422 47 q 332 13 364 17 m 649 1014 q 675 1037 658 1022 q 712 1067 692 1051 q 749 1092 732 1082 q 792 1052 769 1074 q 824 1018 814 1031 q 857 992 843 996 q 880 999 871 989 q 890 1023 889 1008 q 882 1049 890 1038 q 858 1074 879 1053 q 813 1119 838 1094 q 772 1157 789 1143 q 753 1170 764 1169 q 729 1160 742 1171 q 694 1136 715 1151 q 653 1103 674 1121 q 618 1071 633 1085 q 599 1051 603 1057 q 588 1015 583 1032 q 608 994 592 997 q 649 1014 625 990 "},"Ȍ":{"ha":689,"x_min":158,"x_max":818,"o":"m 243 -28 q 347 -57 288 -62 q 469 -10 406 -51 q 592 101 532 31 q 701 268 653 172 q 773 401 747 344 q 808 506 799 458 q 816 603 818 554 q 804 714 814 653 q 747 858 786 811 q 631 921 708 904 q 592 918 615 928 q 540 892 568 908 q 463 842 497 872 q 371 754 428 813 q 321 681 346 721 q 270 584 296 640 q 217 444 244 528 q 196 367 207 397 q 186 331 185 338 q 187 319 186 331 q 181 300 188 307 q 171 238 176 279 q 162 153 165 196 q 161 85 158 110 q 178 33 164 54 q 243 -28 192 11 m 332 13 q 291 15 311 8 q 263 36 271 22 q 244 65 250 57 q 239 86 239 72 q 242 138 239 100 q 258 245 244 183 q 290 370 271 307 q 331 483 310 433 q 371 553 353 533 q 377 567 376 560 q 378 574 378 574 q 394 609 378 583 q 435 668 410 635 q 490 733 461 701 q 546 790 519 765 q 589 821 572 814 q 644 828 619 835 q 683 807 669 822 q 703 769 694 794 q 713 719 711 743 q 713 638 713 669 q 713 581 714 606 q 706 529 711 557 q 689 460 700 501 q 655 351 669 393 q 624 281 640 310 q 585 223 608 251 q 526 153 563 194 q 454 77 486 107 q 393 32 422 47 q 332 13 364 17 m 597 999 q 612 1014 606 1004 q 622 1033 618 1024 q 625 1044 626 1042 q 614 1069 625 1049 q 588 1117 603 1090 q 557 1165 572 1143 q 533 1192 542 1186 q 508 1191 524 1199 q 479 1164 493 1183 q 483 1140 474 1157 q 508 1101 492 1122 q 540 1059 524 1079 q 563 1024 556 1039 q 577 997 571 1001 q 597 999 583 992 m 763 999 q 782 1023 774 1006 q 789 1044 790 1040 q 778 1069 789 1049 q 752 1117 768 1090 q 721 1165 736 1143 q 697 1192 706 1186 q 674 1191 688 1199 q 643 1164 660 1183 q 647 1140 638 1157 q 672 1101 656 1122 q 703 1059 688 1079 q 726 1024 719 1039 q 741 997 735 1001 q 763 999 747 992 "},"Ö":{"ha":689,"x_min":158,"x_max":883,"o":"m 243 -28 q 347 -57 288 -62 q 469 -10 406 -51 q 592 101 532 31 q 701 268 653 172 q 773 401 747 344 q 808 506 799 458 q 816 603 818 554 q 804 714 814 653 q 747 858 786 811 q 631 921 708 904 q 592 918 615 928 q 540 892 568 908 q 463 842 497 872 q 371 754 428 813 q 321 681 346 721 q 270 584 296 640 q 217 444 244 528 q 196 367 207 397 q 186 331 185 338 q 187 319 186 331 q 181 300 188 307 q 171 238 176 279 q 162 153 165 196 q 161 85 158 110 q 178 33 164 54 q 243 -28 192 11 m 332 13 q 291 15 311 8 q 263 36 271 22 q 244 65 250 57 q 239 86 239 72 q 242 138 239 100 q 258 245 244 183 q 290 370 271 307 q 331 483 310 433 q 371 553 353 533 q 377 567 376 560 q 378 574 378 574 q 394 609 378 583 q 435 668 410 635 q 490 733 461 701 q 546 790 519 765 q 589 821 572 814 q 644 828 619 835 q 683 807 669 822 q 703 769 694 794 q 713 719 711 743 q 713 638 713 669 q 713 581 714 606 q 706 529 711 557 q 689 460 700 501 q 655 351 669 393 q 624 281 640 310 q 585 223 608 251 q 526 153 563 194 q 454 77 486 107 q 393 32 422 47 q 332 13 364 17 m 790 1042 q 819 1028 803 1025 q 857 1060 836 1031 q 879 1098 875 1083 q 871 1132 883 1113 q 849 1163 864 1154 q 818 1158 835 1171 q 807 1151 813 1157 q 797 1142 801 1144 q 780 1113 788 1133 q 769 1086 772 1093 q 774 1066 768 1081 q 790 1042 781 1051 m 611 1042 q 639 1028 622 1025 q 678 1060 656 1031 q 700 1098 696 1083 q 692 1132 704 1113 q 678 1156 688 1147 q 659 1165 669 1164 q 638 1158 649 1167 q 627 1151 632 1157 q 618 1142 622 1144 q 601 1113 608 1133 q 590 1086 593 1093 q 595 1066 589 1081 q 611 1042 601 1051 "},"Ọ":{"ha":689,"x_min":158,"x_max":818,"o":"m 243 -28 q 347 -57 288 -62 q 469 -10 406 -51 q 592 101 532 31 q 701 268 653 172 q 773 401 747 344 q 808 506 799 458 q 816 603 818 554 q 804 714 814 653 q 747 858 786 811 q 631 921 708 904 q 592 918 615 928 q 540 892 568 908 q 463 842 497 872 q 371 754 428 813 q 321 681 346 721 q 270 584 296 640 q 217 444 244 528 q 196 367 207 397 q 186 331 185 338 q 187 319 186 331 q 181 300 188 307 q 171 238 176 279 q 162 153 165 196 q 161 85 158 110 q 178 33 164 54 q 243 -28 192 11 m 332 13 q 291 15 311 8 q 263 36 271 22 q 244 65 250 57 q 239 86 239 72 q 242 138 239 100 q 258 245 244 183 q 290 370 271 307 q 331 483 310 433 q 371 553 353 533 q 377 567 376 560 q 378 574 378 574 q 394 609 378 583 q 435 668 410 635 q 490 733 461 701 q 546 790 519 765 q 589 821 572 814 q 644 828 619 835 q 683 807 669 822 q 703 769 694 794 q 713 719 711 743 q 713 638 713 669 q 713 581 714 606 q 706 529 711 557 q 689 460 700 501 q 655 351 669 393 q 624 281 640 310 q 585 223 608 251 q 526 153 563 194 q 454 77 486 107 q 393 32 422 47 q 332 13 364 17 m 233 -237 q 260 -250 244 -253 q 297 -219 276 -247 q 317 -184 313 -199 q 308 -151 321 -169 q 289 -123 303 -131 q 258 -126 275 -115 q 248 -134 253 -128 q 239 -143 243 -140 q 224 -169 231 -149 q 214 -196 217 -189 q 218 -215 213 -201 q 233 -237 224 -228 "},"Ò":{"ha":689,"x_min":158,"x_max":818,"o":"m 243 -28 q 347 -57 288 -62 q 469 -10 406 -51 q 592 101 532 31 q 701 268 653 172 q 773 401 747 344 q 808 506 799 458 q 816 603 818 554 q 804 714 814 653 q 747 858 786 811 q 631 921 708 904 q 592 918 615 928 q 540 892 568 908 q 463 842 497 872 q 371 754 428 813 q 321 681 346 721 q 270 584 296 640 q 217 444 244 528 q 196 367 207 397 q 186 331 185 338 q 187 319 186 331 q 181 300 188 307 q 171 238 176 279 q 162 153 165 196 q 161 85 158 110 q 178 33 164 54 q 243 -28 192 11 m 332 13 q 291 15 311 8 q 263 36 271 22 q 244 65 250 57 q 239 86 239 72 q 242 138 239 100 q 258 245 244 183 q 290 370 271 307 q 331 483 310 433 q 371 553 353 533 q 377 567 376 560 q 378 574 378 574 q 394 609 378 583 q 435 668 410 635 q 490 733 461 701 q 546 790 519 765 q 589 821 572 814 q 644 828 619 835 q 683 807 669 822 q 703 769 694 794 q 713 719 711 743 q 713 638 713 669 q 713 581 714 606 q 706 529 711 557 q 689 460 700 501 q 655 351 669 393 q 624 281 640 310 q 585 223 608 251 q 526 153 563 194 q 454 77 486 107 q 393 32 422 47 q 332 13 364 17 m 760 988 q 780 1004 771 990 q 788 1024 789 1018 q 779 1056 788 1032 q 758 1110 771 1081 q 731 1162 744 1139 q 708 1190 718 1185 q 681 1197 694 1206 q 650 1174 668 1189 q 653 1128 639 1158 q 689 1065 667 1097 q 722 1010 711 1033 q 732 986 728 994 q 742 978 736 978 q 760 988 749 979 "},"Ő":{"ha":689,"x_min":158,"x_max":928,"o":"m 243 -28 q 347 -57 288 -62 q 469 -10 406 -51 q 592 101 532 31 q 701 268 653 172 q 773 401 747 344 q 808 506 799 458 q 816 603 818 554 q 804 714 814 653 q 747 858 786 811 q 631 921 708 904 q 592 918 615 928 q 540 892 568 908 q 463 842 497 872 q 371 754 428 813 q 321 681 346 721 q 270 584 296 640 q 217 444 244 528 q 196 367 207 397 q 186 331 185 338 q 187 319 186 331 q 181 300 188 307 q 171 238 176 279 q 162 153 165 196 q 161 85 158 110 q 178 33 164 54 q 243 -28 192 11 m 332 13 q 291 15 311 8 q 263 36 271 22 q 244 65 250 57 q 239 86 239 72 q 242 138 239 100 q 258 245 244 183 q 290 370 271 307 q 331 483 310 433 q 371 553 353 533 q 377 567 376 560 q 378 574 378 574 q 394 609 378 583 q 435 668 410 635 q 490 733 461 701 q 546 790 519 765 q 589 821 572 814 q 644 828 619 835 q 683 807 669 822 q 703 769 694 794 q 713 719 711 743 q 713 638 713 669 q 713 581 714 606 q 706 529 711 557 q 689 460 700 501 q 655 351 669 393 q 624 281 640 310 q 585 223 608 251 q 526 153 563 194 q 454 77 486 107 q 393 32 422 47 q 332 13 364 17 m 581 997 q 596 990 590 992 q 608 995 601 989 q 622 1015 614 1001 q 651 1044 632 1028 q 691 1079 671 1061 q 724 1112 711 1097 q 732 1135 736 1126 q 708 1168 719 1157 q 685 1174 697 1179 q 656 1151 675 1169 q 615 1111 636 1133 q 580 1071 594 1089 q 564 1049 565 1053 q 567 1026 563 1044 q 581 997 571 1007 m 774 997 q 793 991 786 988 q 814 1015 800 994 q 843 1044 824 1028 q 883 1079 863 1061 q 915 1112 903 1097 q 924 1135 928 1126 q 901 1168 914 1157 q 876 1174 889 1179 q 848 1151 867 1169 q 808 1111 829 1133 q 772 1071 786 1089 q 756 1049 757 1053 q 759 1026 754 1044 q 774 997 764 1007 "},"Ȏ":{"ha":689,"x_min":158,"x_max":857,"o":"m 243 -28 q 347 -57 288 -62 q 469 -10 406 -51 q 592 101 532 31 q 701 268 653 172 q 773 401 747 344 q 808 506 799 458 q 816 603 818 554 q 804 714 814 653 q 747 858 786 811 q 631 921 708 904 q 592 918 615 928 q 540 892 568 908 q 463 842 497 872 q 371 754 428 813 q 321 681 346 721 q 270 584 296 640 q 217 444 244 528 q 196 367 207 397 q 186 331 185 338 q 187 319 186 331 q 181 300 188 307 q 171 238 176 279 q 162 153 165 196 q 161 85 158 110 q 178 33 164 54 q 243 -28 192 11 m 332 13 q 291 15 311 8 q 263 36 271 22 q 244 65 250 57 q 239 86 239 72 q 242 138 239 100 q 258 245 244 183 q 290 370 271 307 q 331 483 310 433 q 371 553 353 533 q 377 567 376 560 q 378 574 378 574 q 394 609 378 583 q 435 668 410 635 q 490 733 461 701 q 546 790 519 765 q 589 821 572 814 q 644 828 619 835 q 683 807 669 822 q 703 769 694 794 q 713 719 711 743 q 713 638 713 669 q 713 581 714 606 q 706 529 711 557 q 689 460 700 501 q 655 351 669 393 q 624 281 640 310 q 585 223 608 251 q 526 153 563 194 q 454 77 486 107 q 393 32 422 47 q 332 13 364 17 m 785 1014 q 790 974 776 983 q 824 976 804 964 q 849 1022 843 989 q 844 1096 857 1064 q 802 1148 832 1128 q 726 1171 772 1168 q 656 1158 689 1174 q 599 1117 624 1142 q 560 1067 575 1092 q 542 1031 546 1043 q 546 1001 539 1018 q 569 983 553 983 q 604 1017 585 982 q 630 1053 613 1032 q 667 1092 647 1075 q 706 1110 688 1110 q 765 1094 747 1111 q 786 1053 783 1076 q 785 1014 789 1031 "},"Ō":{"ha":689,"x_min":158,"x_max":911,"o":"m 243 -28 q 347 -57 288 -62 q 469 -10 406 -51 q 592 101 532 31 q 701 268 653 172 q 773 401 747 344 q 808 506 799 458 q 816 603 818 554 q 804 714 814 653 q 747 858 786 811 q 631 921 708 904 q 592 918 615 928 q 540 892 568 908 q 463 842 497 872 q 371 754 428 813 q 321 681 346 721 q 270 584 296 640 q 217 444 244 528 q 196 367 207 397 q 186 331 185 338 q 187 319 186 331 q 181 300 188 307 q 171 238 176 279 q 162 153 165 196 q 161 85 158 110 q 178 33 164 54 q 243 -28 192 11 m 332 13 q 291 15 311 8 q 263 36 271 22 q 244 65 250 57 q 239 86 239 72 q 242 138 239 100 q 258 245 244 183 q 290 370 271 307 q 331 483 310 433 q 371 553 353 533 q 377 567 376 560 q 378 574 378 574 q 394 609 378 583 q 435 668 410 635 q 490 733 461 701 q 546 790 519 765 q 589 821 572 814 q 644 828 619 835 q 683 807 669 822 q 703 769 694 794 q 713 719 711 743 q 713 638 713 669 q 713 581 714 606 q 706 529 711 557 q 689 460 700 501 q 655 351 669 393 q 624 281 640 310 q 585 223 608 251 q 526 153 563 194 q 454 77 486 107 q 393 32 422 47 q 332 13 364 17 m 618 1058 q 673 1060 643 1058 q 727 1063 703 1061 q 760 1064 751 1064 q 800 1065 776 1064 q 844 1067 824 1065 q 871 1068 864 1068 q 906 1083 901 1065 q 893 1121 911 1100 q 851 1135 878 1132 q 793 1138 825 1138 q 689 1133 740 1138 q 590 1122 638 1129 q 532 1109 543 1117 q 533 1081 521 1101 q 546 1067 539 1071 q 574 1064 553 1064 q 598 1059 586 1060 q 618 1058 610 1058 "},"Ǫ":{"ha":689,"x_min":150,"x_max":818,"o":"m 243 -28 q 347 -57 288 -62 q 469 -10 406 -51 q 592 101 532 31 q 701 268 653 172 q 773 401 747 344 q 808 506 799 458 q 816 603 818 554 q 804 714 814 653 q 747 858 786 811 q 631 921 708 904 q 592 918 615 928 q 540 892 568 908 q 463 842 497 872 q 371 754 428 813 q 321 681 346 721 q 270 584 296 640 q 217 444 244 528 q 196 367 207 397 q 186 331 185 338 q 187 319 186 331 q 181 300 188 307 q 171 238 176 279 q 162 153 165 196 q 161 85 158 110 q 178 33 164 54 q 243 -28 192 11 m 332 13 q 291 15 311 8 q 263 36 271 22 q 244 65 250 57 q 239 86 239 72 q 242 138 239 100 q 258 245 244 183 q 290 370 271 307 q 331 483 310 433 q 371 553 353 533 q 377 567 376 560 q 378 574 378 574 q 394 609 378 583 q 435 668 410 635 q 490 733 461 701 q 546 790 519 765 q 589 821 572 814 q 644 828 619 835 q 683 807 669 822 q 703 769 694 794 q 713 719 711 743 q 713 638 713 669 q 713 581 714 606 q 706 529 711 557 q 689 460 700 501 q 655 351 669 393 q 624 281 640 310 q 585 223 608 251 q 526 153 563 194 q 454 77 486 107 q 393 32 422 47 q 332 13 364 17 m 229 -297 q 265 -287 244 -294 q 307 -270 286 -279 q 344 -253 328 -261 q 367 -243 361 -244 q 390 -224 383 -236 q 394 -199 396 -211 q 382 -183 392 -187 q 354 -189 372 -179 q 297 -219 319 -206 q 243 -239 275 -233 q 218 -231 222 -239 q 216 -194 208 -215 q 243 -150 224 -174 q 310 -84 268 -119 q 383 -31 353 -49 l 342 11 q 275 -37 311 -8 q 208 -99 239 -67 q 163 -164 178 -132 q 156 -219 150 -190 q 182 -268 163 -247 q 229 -297 201 -289 "},"Ø":{"ha":689,"x_min":136,"x_max":896,"o":"m 183 -99 q 199 -87 194 -96 q 214 -47 204 -78 q 238 -1 218 -35 q 289 79 258 32 q 354 179 319 126 q 423 283 389 232 q 484 374 457 333 q 526 436 511 414 q 558 477 546 460 q 569 500 569 494 q 573 508 569 500 q 581 513 576 515 q 591 521 589 515 q 596 531 593 526 q 608 548 596 533 q 638 583 621 563 q 671 620 654 603 q 696 646 688 638 q 714 670 706 661 q 725 685 722 679 q 743 708 725 690 q 782 749 761 725 q 844 814 824 793 q 872 847 864 835 q 886 878 881 860 q 894 905 893 893 q 888 931 896 917 q 876 952 879 946 q 874 958 874 958 q 862 960 868 960 q 851 957 856 960 q 822 944 829 965 q 799 910 819 938 q 749 843 779 882 q 686 764 718 804 q 626 691 654 724 q 585 644 599 658 q 578 635 583 639 q 572 625 574 631 q 565 612 571 619 q 556 597 558 604 q 540 584 549 596 q 528 561 532 572 q 518 544 525 551 q 506 538 511 536 q 481 505 503 535 q 428 430 460 475 q 362 334 397 385 q 294 237 326 283 q 240 157 263 190 q 213 115 218 124 q 201 92 210 106 q 181 64 192 79 q 145 -18 154 18 q 146 -76 136 -54 q 183 -99 156 -97 m 243 -28 q 347 -57 288 -62 q 469 -10 406 -51 q 592 101 532 31 q 701 268 653 172 q 773 401 747 344 q 808 506 799 458 q 816 603 818 554 q 804 714 814 653 q 747 858 786 811 q 631 921 708 904 q 592 918 615 928 q 540 892 568 908 q 463 842 497 872 q 371 754 428 813 q 321 681 346 721 q 270 584 296 640 q 217 444 244 528 q 196 367 207 397 q 186 331 185 338 q 187 319 186 331 q 181 300 188 307 q 171 238 176 279 q 162 153 165 196 q 161 85 158 110 q 178 33 164 54 q 243 -28 192 11 m 332 13 q 291 15 311 8 q 263 36 271 22 q 244 65 250 57 q 239 86 239 72 q 242 138 239 100 q 258 245 244 183 q 290 370 271 307 q 331 483 310 433 q 371 553 353 533 q 377 567 376 560 q 378 574 378 574 q 394 609 378 583 q 435 668 410 635 q 490 733 461 701 q 546 790 519 765 q 589 821 572 814 q 644 828 619 835 q 683 807 669 822 q 703 769 694 794 q 713 719 711 743 q 713 638 713 669 q 713 581 714 606 q 706 529 711 557 q 689 460 700 501 q 655 351 669 393 q 624 281 640 310 q 585 223 608 251 q 526 153 563 194 q 454 77 486 107 q 393 32 422 47 q 332 13 364 17 "},"Ǿ":{"ha":689,"x_min":136,"x_max":896,"o":"m 183 -99 q 199 -87 194 -96 q 214 -47 204 -78 q 238 -1 218 -35 q 289 79 258 32 q 354 179 319 126 q 423 283 389 232 q 484 374 457 333 q 526 436 511 414 q 558 477 546 460 q 569 500 569 494 q 573 508 569 500 q 581 513 576 515 q 591 521 589 515 q 596 531 593 526 q 608 548 596 533 q 638 583 621 563 q 671 620 654 603 q 696 646 688 638 q 714 670 706 661 q 725 685 722 679 q 743 708 725 690 q 782 749 761 725 q 844 814 824 793 q 872 847 864 835 q 886 878 881 860 q 894 905 893 893 q 888 931 896 917 q 876 952 879 946 q 874 958 874 958 q 862 960 868 960 q 851 957 856 960 q 822 944 829 965 q 799 910 819 938 q 749 843 779 882 q 686 764 718 804 q 626 691 654 724 q 585 644 599 658 q 578 635 583 639 q 572 625 574 631 q 565 612 571 619 q 556 597 558 604 q 540 584 549 596 q 528 561 532 572 q 518 544 525 551 q 506 538 511 536 q 481 505 503 535 q 428 430 460 475 q 362 334 397 385 q 294 237 326 283 q 240 157 263 190 q 213 115 218 124 q 201 92 210 106 q 181 64 192 79 q 145 -18 154 18 q 146 -76 136 -54 q 183 -99 156 -97 m 243 -28 q 347 -57 288 -62 q 469 -10 406 -51 q 592 101 532 31 q 701 268 653 172 q 773 401 747 344 q 808 506 799 458 q 816 603 818 554 q 804 714 814 653 q 747 858 786 811 q 631 921 708 904 q 592 918 615 928 q 540 892 568 908 q 463 842 497 872 q 371 754 428 813 q 321 681 346 721 q 270 584 296 640 q 217 444 244 528 q 196 367 207 397 q 186 331 185 338 q 187 319 186 331 q 181 300 188 307 q 171 238 176 279 q 162 153 165 196 q 161 85 158 110 q 178 33 164 54 q 243 -28 192 11 m 332 13 q 291 15 311 8 q 263 36 271 22 q 244 65 250 57 q 239 86 239 72 q 242 138 239 100 q 258 245 244 183 q 290 370 271 307 q 331 483 310 433 q 371 553 353 533 q 377 567 376 560 q 378 574 378 574 q 394 609 378 583 q 435 668 410 635 q 490 733 461 701 q 546 790 519 765 q 589 821 572 814 q 644 828 619 835 q 683 807 669 822 q 703 769 694 794 q 713 719 711 743 q 713 638 713 669 q 713 581 714 606 q 706 529 711 557 q 689 460 700 501 q 655 351 669 393 q 624 281 640 310 q 585 223 608 251 q 526 153 563 194 q 454 77 486 107 q 393 32 422 47 q 332 13 364 17 m 663 992 q 687 983 679 979 q 708 1010 694 988 q 742 1044 719 1025 q 789 1082 765 1063 q 827 1119 813 1101 q 838 1149 842 1136 q 810 1184 824 1171 q 781 1188 796 1197 q 749 1164 771 1183 q 704 1119 728 1144 q 663 1074 681 1094 q 644 1046 646 1053 q 648 1021 643 1040 q 663 992 653 1001 "},"Õ":{"ha":689,"x_min":158,"x_max":928,"o":"m 243 -28 q 347 -57 288 -62 q 469 -10 406 -51 q 592 101 532 31 q 701 268 653 172 q 773 401 747 344 q 808 506 799 458 q 816 603 818 554 q 804 714 814 653 q 747 858 786 811 q 631 921 708 904 q 592 918 615 928 q 540 892 568 908 q 463 842 497 872 q 371 754 428 813 q 321 681 346 721 q 270 584 296 640 q 217 444 244 528 q 196 367 207 397 q 186 331 185 338 q 187 319 186 331 q 181 300 188 307 q 171 238 176 279 q 162 153 165 196 q 161 85 158 110 q 178 33 164 54 q 243 -28 192 11 m 332 13 q 291 15 311 8 q 263 36 271 22 q 244 65 250 57 q 239 86 239 72 q 242 138 239 100 q 258 245 244 183 q 290 370 271 307 q 331 483 310 433 q 371 553 353 533 q 377 567 376 560 q 378 574 378 574 q 394 609 378 583 q 435 668 410 635 q 490 733 461 701 q 546 790 519 765 q 589 821 572 814 q 644 828 619 835 q 683 807 669 822 q 703 769 694 794 q 713 719 711 743 q 713 638 713 669 q 713 581 714 606 q 706 529 711 557 q 689 460 700 501 q 655 351 669 393 q 624 281 640 310 q 585 223 608 251 q 526 153 563 194 q 454 77 486 107 q 393 32 422 47 q 332 13 364 17 m 786 1013 q 801 1015 792 1013 q 832 1029 810 1018 q 896 1064 854 1040 q 917 1085 908 1071 q 926 1104 926 1099 q 924 1122 928 1113 q 911 1137 919 1132 q 893 1138 903 1142 q 840 1110 864 1126 q 794 1089 815 1094 q 751 1091 768 1078 q 703 1133 735 1104 q 651 1161 681 1154 q 604 1161 621 1168 q 538 1106 557 1138 q 517 1061 518 1074 q 523 1044 515 1054 q 544 1031 531 1035 q 554 1034 547 1024 q 563 1051 561 1044 q 586 1066 578 1054 q 603 1089 594 1078 q 626 1100 613 1100 q 664 1079 643 1100 q 697 1051 685 1058 q 741 1023 724 1033 q 786 1013 758 1013 "},"Œ":{"ha":1089,"x_min":121,"x_max":1258,"o":"m 765 -67 q 817 -63 797 -67 q 858 -51 836 -60 q 914 -28 879 -43 q 1014 14 983 0 q 1044 42 1044 28 q 1036 58 1046 46 q 1016 81 1026 71 q 1003 92 1006 92 q 987 88 993 92 q 975 76 981 83 q 955 73 969 76 q 933 69 940 69 q 903 55 924 64 q 857 31 882 46 q 751 14 797 15 q 676 18 704 13 q 627 62 632 39 q 632 122 622 85 q 657 233 643 188 q 694 331 671 278 q 727 402 722 388 q 738 413 732 417 q 775 417 743 411 q 852 431 807 422 q 942 451 897 440 q 1019 474 986 463 q 1061 493 1053 485 q 1072 504 1071 497 q 1065 519 1072 511 q 1042 529 1058 526 q 1019 538 1035 533 q 981 535 1004 542 q 922 531 960 535 q 845 524 883 528 q 785 515 807 519 q 776 535 772 521 q 794 568 781 550 q 821 607 810 590 q 832 638 832 624 q 845 666 832 642 q 876 719 858 690 q 908 769 893 747 q 925 790 922 790 q 940 792 925 790 q 974 799 954 793 q 1036 807 989 799 q 1135 815 1083 815 q 1219 817 1181 815 q 1258 825 1258 818 q 1256 841 1258 825 q 1242 867 1253 857 q 1219 878 1231 872 q 1192 888 1207 883 q 1157 892 1178 892 q 1019 894 1069 899 q 938 881 968 890 q 883 863 908 871 q 836 842 854 853 q 821 825 818 832 l 810 811 l 806 819 q 772 863 792 839 q 729 905 753 886 q 679 928 706 924 q 638 937 661 931 q 588 940 614 943 q 535 915 563 938 q 432 813 486 875 q 330 679 378 750 q 251 542 282 608 q 219 469 235 504 q 191 401 204 435 q 167 338 178 368 q 149 281 157 308 q 131 210 135 235 q 127 169 126 185 q 126 132 128 153 q 129 96 121 124 q 150 40 138 68 q 169 -1 163 11 q 265 -58 210 -36 q 364 -67 321 -79 q 403 -62 383 -67 q 443 -49 422 -57 q 485 -32 464 -42 q 525 -10 506 -22 q 540 0 532 -4 q 554 7 547 4 q 568 -11 560 -3 q 586 -26 576 -19 q 638 -53 610 -44 q 697 -65 665 -62 q 765 -67 729 -67 m 640 849 q 699 817 676 844 q 731 751 722 789 q 735 676 740 713 q 726 647 732 661 q 721 619 721 633 l 692 568 q 685 553 689 560 q 678 540 681 546 q 670 529 676 535 q 664 513 664 524 q 640 459 643 478 q 636 440 636 440 q 631 426 635 438 q 622 407 626 414 q 609 386 614 399 q 597 339 604 374 l 589 296 q 576 278 583 293 q 563 232 568 263 q 551 188 557 210 q 543 150 546 167 q 539 116 542 140 q 536 69 536 92 q 508 58 525 67 q 490 50 490 50 q 444 38 460 46 q 408 22 428 29 q 379 16 400 21 q 337 8 358 11 q 301 6 315 4 q 245 26 264 0 q 215 94 226 51 q 219 133 222 106 q 231 226 215 160 q 262 337 243 276 q 310 464 281 397 q 385 596 340 531 q 419 644 403 624 q 450 683 435 664 q 478 722 465 701 q 568 826 531 796 q 640 849 606 857 "},"P":{"ha":644,"x_min":113,"x_max":815,"o":"m 153 -67 q 174 -63 165 -67 q 188 -40 182 -60 q 204 19 193 -17 q 227 93 215 56 q 249 159 239 131 q 263 193 260 188 q 269 219 263 200 q 282 256 275 238 q 299 280 288 275 q 351 290 311 285 q 417 300 378 289 q 501 328 457 311 q 581 361 544 344 q 624 393 600 374 q 667 435 649 413 q 701 471 683 450 q 735 513 719 492 q 760 549 750 533 q 769 571 769 565 q 776 586 769 578 q 792 600 783 594 q 802 628 797 607 q 808 669 807 649 q 809 729 815 708 q 792 774 803 750 q 764 819 782 797 q 729 855 746 840 q 703 869 713 869 q 690 873 696 871 q 683 883 683 875 q 669 893 683 888 q 636 905 654 899 q 606 917 618 911 q 570 917 599 917 q 517 918 542 917 q 466 921 483 921 q 438 913 449 921 q 411 888 426 906 q 381 850 386 867 q 385 826 375 833 q 385 803 393 821 q 361 743 376 786 q 337 681 351 721 q 308 597 322 642 q 283 510 294 551 q 259 453 267 476 q 244 418 251 429 q 240 398 244 413 q 229 360 235 383 q 215 318 224 333 q 199 303 207 303 q 195 283 199 293 q 192 257 192 272 q 183 222 192 246 q 161 144 175 197 q 124 27 135 65 q 115 -26 113 -11 q 125 -49 117 -40 q 153 -67 136 -67 m 325 364 q 322 377 319 371 q 324 399 325 383 q 353 473 329 414 q 403 624 378 532 q 433 698 415 658 q 461 757 451 738 q 488 810 478 797 q 521 829 499 822 q 565 833 544 833 q 615 828 585 833 q 685 785 656 817 q 721 718 714 754 q 715 655 728 693 q 690 597 703 617 q 672 559 682 579 q 657 532 661 539 q 601 472 629 497 q 560 438 574 447 q 505 407 533 421 q 449 383 476 393 q 368 363 406 367 q 325 364 331 358 "},"Þ":{"ha":656,"x_min":106,"x_max":774,"o":"m 163 -89 q 176 -92 169 -94 q 190 -76 183 -89 q 200 -37 196 -62 q 221 39 210 4 q 242 117 232 74 l 271 196 l 318 189 q 347 190 332 189 q 368 197 361 192 q 489 246 426 208 q 503 256 494 249 q 518 267 511 264 q 525 260 525 271 q 555 290 536 276 q 590 313 574 303 q 618 340 608 322 q 628 357 628 357 q 656 377 638 360 q 688 411 675 394 q 693 426 700 428 q 720 465 706 436 q 747 529 735 493 q 766 598 758 565 q 771 647 774 631 q 740 715 767 679 q 664 775 714 751 q 615 782 646 779 q 564 785 583 785 q 551 782 564 785 q 518 776 538 779 q 553 849 542 825 q 568 888 564 874 q 572 918 572 901 q 570 947 572 935 q 557 969 568 960 l 535 992 q 523 990 529 992 q 513 985 517 989 q 491 979 501 985 q 481 963 481 974 q 470 924 481 956 q 443 846 460 892 q 408 753 426 800 q 403 746 406 751 q 383 722 392 722 q 361 685 349 721 q 365 674 367 682 q 358 646 364 667 q 345 624 347 638 q 343 610 343 610 q 327 583 329 592 q 325 575 325 575 q 315 560 324 575 q 297 523 307 544 q 281 482 288 501 q 274 454 274 463 q 256 428 265 447 q 241 390 247 410 q 233 357 235 369 q 220 329 228 351 q 211 300 213 307 q 201 278 210 304 q 179 211 192 251 q 154 128 167 171 q 133 56 142 86 q 122 21 124 25 q 110 -27 114 -12 q 106 -46 106 -42 q 108 -54 107 -50 q 119 -73 110 -67 q 142 -82 129 -79 q 163 -89 156 -85 m 303 269 q 310 310 300 278 q 339 387 321 342 q 378 481 357 432 q 422 574 400 531 q 460 647 443 618 q 485 679 478 676 q 547 703 513 694 q 615 706 582 711 q 665 675 647 701 q 673 628 674 661 q 662 558 672 596 q 629 489 651 519 q 592 442 614 468 q 551 394 571 417 q 521 361 532 372 q 429 294 478 321 q 303 269 381 268 "},"Q":{"ha":697,"x_min":157,"x_max":819,"o":"m 321 -99 q 458 -67 390 -107 q 587 58 526 -26 q 692 267 647 142 q 721 341 713 307 q 726 385 729 375 q 731 392 726 392 q 735 393 735 393 q 764 426 749 393 q 792 508 779 458 q 812 608 804 557 q 819 696 819 658 q 811 764 814 736 q 781 822 808 792 q 719 897 754 876 q 615 914 685 918 q 581 907 600 913 q 545 894 561 901 q 521 882 529 888 q 451 838 486 864 q 388 776 415 813 q 349 734 369 761 q 310 678 329 707 q 280 626 292 649 q 268 596 268 603 q 264 572 268 576 q 250 544 261 572 q 225 476 239 517 q 199 396 211 436 q 181 332 188 356 q 160 138 157 218 q 199 -12 164 58 q 229 -51 208 -32 q 275 -82 250 -69 q 321 -99 300 -94 m 607 -175 q 644 -162 643 -176 q 613 -99 644 -149 q 593 -61 607 -79 q 575 -28 579 -43 q 557 4 565 -15 q 542 39 549 24 q 519 72 533 46 q 494 124 506 97 q 482 157 483 150 q 424 224 456 224 q 388 228 397 231 q 372 208 379 225 q 369 181 358 192 q 388 147 372 176 q 425 77 404 117 q 465 1 446 38 q 493 -56 483 -36 q 507 -83 497 -71 q 522 -97 517 -94 q 525 -108 525 -100 q 535 -124 525 -115 q 563 -159 540 -142 q 607 -175 585 -176 m 332 -18 q 277 -6 297 -28 q 254 58 257 15 q 250 197 240 121 q 293 369 260 274 q 383 586 326 465 q 475 743 424 683 q 580 826 526 803 q 678 832 633 849 q 724 788 711 817 q 728 697 736 758 q 714 589 728 640 q 682 495 700 538 q 651 418 664 453 q 558 203 610 300 q 448 48 506 107 q 332 -18 390 -11 "},"R":{"ha":746,"x_min":110,"x_max":889,"o":"m 194 -83 q 273 133 239 35 q 321 282 307 232 l 344 347 q 390 342 360 342 q 443 347 421 342 q 521 372 483 360 q 593 401 558 385 q 674 445 631 417 q 759 508 718 474 q 831 578 800 543 q 874 642 863 613 q 888 721 889 681 q 860 801 888 761 q 765 879 832 840 q 635 917 704 911 q 501 908 567 924 l 429 879 q 415 856 414 872 q 431 825 417 840 q 453 810 454 825 q 447 781 453 794 q 379 626 404 688 q 331 510 354 565 q 300 435 321 485 q 256 331 279 386 q 216 230 233 275 q 193 165 199 185 q 172 117 186 151 q 153 50 158 83 q 119 -26 129 -4 q 115 -56 110 -47 q 136 -82 119 -65 q 174 -99 160 -100 q 194 -83 189 -97 m 746 -99 q 758 -85 751 -97 q 767 -60 764 -74 q 761 -39 769 -46 q 674 18 722 -19 q 582 97 625 56 q 514 167 539 138 q 448 246 483 201 q 390 339 413 290 l 340 389 l 303 368 l 322 293 q 365 211 344 240 q 414 147 385 182 q 551 8 490 60 q 674 -79 613 -43 q 720 -101 706 -100 q 746 -99 735 -103 m 388 418 q 388 440 382 424 q 414 499 393 457 q 475 624 435 542 q 506 697 490 663 q 533 756 522 732 q 544 783 544 779 q 571 820 551 811 q 626 825 590 829 q 718 807 663 821 q 756 786 736 801 q 789 751 775 771 q 803 714 803 732 q 781 642 806 678 q 718 572 757 606 q 634 512 679 539 q 549 465 589 485 q 463 434 506 447 q 388 418 419 421 "},"Ŕ":{"ha":692,"x_min":110,"x_max":889,"o":"m 194 -83 q 273 133 239 35 q 321 282 307 232 l 344 347 q 390 342 360 342 q 443 347 421 342 q 521 372 483 360 q 593 401 558 385 q 674 445 631 417 q 759 508 718 474 q 831 578 800 543 q 874 642 863 613 q 888 721 889 681 q 860 801 888 761 q 765 879 832 840 q 635 917 704 911 q 501 908 567 924 l 429 879 q 415 856 414 872 q 431 825 417 840 q 453 810 454 825 q 447 781 453 794 q 379 626 404 688 q 331 510 354 565 q 300 435 321 485 q 256 331 279 386 q 216 230 233 275 q 193 165 199 185 q 172 117 186 151 q 153 50 158 83 q 119 -26 129 -4 q 115 -56 110 -47 q 136 -82 119 -65 q 174 -99 160 -100 q 194 -83 189 -97 m 746 -99 q 758 -85 751 -97 q 767 -60 764 -74 q 761 -39 769 -46 q 674 18 722 -19 q 582 97 625 56 q 514 167 539 138 q 448 246 483 201 q 390 339 413 290 l 340 389 l 303 368 l 322 293 q 365 211 344 240 q 414 147 385 182 q 551 8 490 60 q 674 -79 613 -43 q 720 -101 706 -100 q 746 -99 735 -103 m 388 418 q 388 440 382 424 q 414 499 393 457 q 475 624 435 542 q 506 697 490 663 q 533 756 522 732 q 544 783 544 779 q 571 820 551 811 q 626 825 590 829 q 718 807 663 821 q 756 786 736 801 q 789 751 775 771 q 803 714 803 732 q 781 642 806 678 q 718 572 757 606 q 634 512 679 539 q 549 465 589 485 q 463 434 506 447 q 388 418 419 421 m 635 992 q 659 983 651 979 q 681 1010 667 988 q 715 1044 692 1025 q 761 1082 738 1063 q 799 1119 785 1101 q 810 1149 814 1136 q 782 1184 796 1171 q 753 1188 768 1197 q 722 1164 743 1183 q 676 1119 700 1144 q 635 1074 653 1094 q 617 1046 618 1053 q 620 1021 615 1040 q 635 992 625 1001 "},"Ř":{"ha":692,"x_min":110,"x_max":889,"o":"m 194 -83 q 273 133 239 35 q 321 282 307 232 l 344 347 q 390 342 360 342 q 443 347 421 342 q 521 372 483 360 q 593 401 558 385 q 674 445 631 417 q 759 508 718 474 q 831 578 800 543 q 874 642 863 613 q 888 721 889 681 q 860 801 888 761 q 765 879 832 840 q 635 917 704 911 q 501 908 567 924 l 429 879 q 415 856 414 872 q 431 825 417 840 q 453 810 454 825 q 447 781 453 794 q 379 626 404 688 q 331 510 354 565 q 300 435 321 485 q 256 331 279 386 q 216 230 233 275 q 193 165 199 185 q 172 117 186 151 q 153 50 158 83 q 119 -26 129 -4 q 115 -56 110 -47 q 136 -82 119 -65 q 174 -99 160 -100 q 194 -83 189 -97 m 746 -99 q 758 -85 751 -97 q 767 -60 764 -74 q 761 -39 769 -46 q 674 18 722 -19 q 582 97 625 56 q 514 167 539 138 q 448 246 483 201 q 390 339 413 290 l 340 389 l 303 368 l 322 293 q 365 211 344 240 q 414 147 385 182 q 551 8 490 60 q 674 -79 613 -43 q 720 -101 706 -100 q 746 -99 735 -103 m 388 418 q 388 440 382 424 q 414 499 393 457 q 475 624 435 542 q 506 697 490 663 q 533 756 522 732 q 544 783 544 779 q 571 820 551 811 q 626 825 590 829 q 718 807 663 821 q 756 786 736 801 q 789 751 775 771 q 803 714 803 732 q 781 642 806 678 q 718 572 757 606 q 634 512 679 539 q 549 465 589 485 q 463 434 506 447 q 388 418 419 421 m 704 997 q 742 1022 719 1006 q 790 1056 765 1038 q 831 1090 814 1074 q 850 1111 849 1106 q 853 1139 856 1124 q 835 1158 850 1154 q 786 1136 819 1161 q 759 1115 776 1128 q 722 1090 742 1103 q 686 1068 703 1078 q 641 1106 664 1088 q 608 1139 618 1125 q 571 1161 586 1165 q 551 1140 556 1157 q 550 1110 546 1124 q 574 1085 553 1106 q 620 1040 594 1064 q 663 1000 646 1015 q 682 990 671 990 q 704 997 693 989 "},"Ŗ":{"ha":692,"x_min":110,"x_max":889,"o":"m 194 -83 q 273 133 239 35 q 321 282 307 232 l 344 347 q 390 342 360 342 q 443 347 421 342 q 521 372 483 360 q 593 401 558 385 q 674 445 631 417 q 759 508 718 474 q 831 578 800 543 q 874 642 863 613 q 888 721 889 681 q 860 801 888 761 q 765 879 832 840 q 635 917 704 911 q 501 908 567 924 l 429 879 q 415 856 414 872 q 431 825 417 840 q 453 810 454 825 q 447 781 453 794 q 379 626 404 688 q 331 510 354 565 q 300 435 321 485 q 256 331 279 386 q 216 230 233 275 q 193 165 199 185 q 172 117 186 151 q 153 50 158 83 q 119 -26 129 -4 q 115 -56 110 -47 q 136 -82 119 -65 q 174 -99 160 -100 q 194 -83 189 -97 m 746 -99 q 758 -85 751 -97 q 767 -60 764 -74 q 761 -39 769 -46 q 674 18 722 -19 q 582 97 625 56 q 514 167 539 138 q 448 246 483 201 q 390 339 413 290 l 340 389 l 303 368 l 322 293 q 365 211 344 240 q 414 147 385 182 q 551 8 490 60 q 674 -79 613 -43 q 720 -101 706 -100 q 746 -99 735 -103 m 388 418 q 388 440 382 424 q 414 499 393 457 q 475 624 435 542 q 506 697 490 663 q 533 756 522 732 q 544 783 544 779 q 571 820 551 811 q 626 825 590 829 q 718 807 663 821 q 756 786 736 801 q 789 751 775 771 q 803 714 803 732 q 781 642 806 678 q 718 572 757 606 q 634 512 679 539 q 549 465 589 485 q 463 434 506 447 q 388 418 419 421 m 254 -254 q 269 -254 264 -254 q 278 -253 275 -254 q 285 -249 282 -251 q 292 -244 289 -246 q 298 -242 294 -243 q 304 -242 301 -242 q 321 -226 308 -242 q 346 -194 333 -211 q 361 -172 358 -178 q 382 -118 376 -137 q 382 -69 388 -99 q 331 -62 351 -46 q 313 -117 311 -78 q 290 -168 314 -139 q 247 -218 267 -197 q 228 -244 228 -235 q 237 -253 233 -251 q 254 -254 240 -254 "}}}
